<?xml version="1.0" encoding="UTF-8" standalone="no"?>
<svg xmlns:rdf="http://www.w3.org/1999/02/22-rdf-syntax-ns#" xmlns="http://www.w3.org/2000/svg" xml:space="preserve" height="319.73" width="320.3" version="1.1" xmlns:cc="http://creativecommons.org/ns#" xmlns:dc="http://purl.org/dc/elements/1.1/" viewBox="0 0 320.29889 319.73175"><style type="text/css">
	.st0{opacity:0.2;}
	.st1{fill:#205081;}
	.st2{fill:none;stroke:#205081;stroke-width:4;stroke-linejoin:round;stroke-miterlimit:10;}
	.st3{fill:#3572B0;}
	.st4{fill:#FF4E4A;}
	.st5{fill:#FFBD17;}
	.st6{fill:#50C2C3;}
	.st7{fill:#895ECC;}
	.st8{fill:none;stroke:#3572B0;stroke-width:1.9778;stroke-linecap:round;stroke-linejoin:round;stroke-miterlimit:10;}
</style><g transform="translate(-150.4 -45.201)"><g opacity=".2" class="st0"><path fill="#205081" class="st1" d="m452.2 149.7 16.5-8-67.5-3.7-32.8 52.5 16.9-8.2c3.2 6.7 5.4 14 6.5 21.7 3.4 24.5-5.5 47.8-22.1 63.8l51.5 53.5c33.1-31.9 50.9-78.6 44.1-127.5-2-15.8-6.6-30.6-13.1-44.1z"/><path stroke-linejoin="round" d="m452.2 149.7 16.5-8-67.5-3.7-32.8 52.5 16.9-8.2c3.2 6.7 5.4 14 6.5 21.7 3.4 24.5-5.5 47.8-22.1 63.8l51.5 53.5c33.1-31.9 50.9-78.6 44.1-127.5-2-15.8-6.6-30.6-13.1-44.1z" stroke="#205081" stroke-miterlimit="10" stroke-width="4" class="st2" fill="none"/></g><path fill="#50c2c3" class="st3" d="m451 148.5 16.5-8-67.5-3.7-32.8 52.5 16.9-8.2c3.2 6.7 5.4 14 6.5 21.7 3.4 24.5-5.5 47.8-22.1 63.8l51.5 53.5c33.1-31.9 50.9-78.6 44.1-127.5-2-15.8-6.6-30.6-13.1-44.1z"/><path stroke-linejoin="round" style="stroke:#333" d="m451 148.5 16.5-8-67.5-3.7-32.8 52.5 16.9-8.2c3.2 6.7 5.4 14 6.5 21.7 3.4 24.5-5.5 47.8-22.1 63.8l51.5 53.5c33.1-31.9 50.9-78.6 44.1-127.5-2-15.8-6.6-30.6-13.1-44.1z" stroke="#205081" stroke-miterlimit="10" stroke-width="4" class="st2" fill="none"/><g opacity=".2" class="st0"><path fill="#205081" class="st1" d="m434.2 334.6-17.2-65.3-60-15 12.9 13.4c-10.9 10.5-25.1 17.8-41.3 20.1-16.2 2.2-31.8-0.9-45.2-8l-35 65.6c26.7 14.3 58.1 20.6 90.4 16.1s60.8-19.1 82.6-40.1z"/><path stroke-linejoin="round" d="m434.2 334.6-17.2-65.3-60-15 12.9 13.4c-10.9 10.5-25.1 17.8-41.3 20.1-16.2 2.2-31.8-0.9-45.2-8l-35 65.6c26.7 14.3 58.1 20.6 90.4 16.1s60.8-19.1 82.6-40.1z" stroke="#205081" stroke-miterlimit="10" stroke-width="4" class="st2" fill="none"/></g><path fill="#3572b0" class="st4" d="m433 333.4-17.3-65.3-60-15 12.9 13.4c-10.9 10.5-25.1 17.8-41.3 20.1-16.2 2.2-31.8-0.9-45.2-8l-35 65.6c26.7 14.3 58.1 20.6 90.4 16.1s60.8-19.1 82.6-40.1z"/><path stroke-linejoin="round" style="stroke:#333" d="m433 333.4-17.3-65.3-60-15 12.9 13.4c-10.9 10.5-25.1 17.8-41.3 20.1-16.2 2.2-31.8-0.9-45.2-8l-35 65.6c26.7 14.3 58.1 20.6 90.4 16.1s60.8-19.1 82.6-40.1z" stroke="#205081" stroke-miterlimit="10" stroke-width="4" class="st2" fill="none"/><path fill="#895ecc" class="st5" d="m294.4 323.9-4.3-61.8-8.6 16.1c-20-10.9-34.7-30.8-38.1-55-1.1-7.9-0.9-15.8 0.4-23.2l-73.2-13c-2.7 15-3.1 30.6-0.9 46.5 6.8 48.7 36.5 88.6 76.7 110.4l-8.9 16.7z"/><g opacity=".2" class="st0"><path stroke-linejoin="round" d="m295.6 325-4.3-61.8-8.6 16.1c-20-10.9-34.7-30.8-38.1-55-1.1-7.9-0.9-15.8 0.4-23.2l-73.2-13c-2.7 15-3.1 30.6-0.9 46.5 6.8 48.7 36.5 88.6 76.7 110.4l-8.9 16.7z" stroke="#205081" stroke-miterlimit="10" stroke-width="4" class="st2" fill="none"/></g><path stroke-linejoin="round" style="stroke:#333" d="m294.4 323.9-4.3-61.8-8.6 16.1c-20-10.9-34.7-30.8-38.1-55-1.1-7.9-0.9-15.8 0.4-23.2l-73.2-13c-2.7 15-3.1 30.6-0.9 46.5 6.8 48.7 36.5 88.6 76.7 110.4l-8.9 16.7z" stroke="#205081" stroke-miterlimit="10" stroke-width="4" class="st2" fill="none"/><path fill="#ffbd17" class="st6" d="m306.8 139.3-10.2-73.6c-64.1 8.9-112.9 57.5-125.2 117.4l-19-3.4 52.4 42.7 57.4-23.1-17.5-3.1c6.7-29.1 30.8-52.5 62.1-56.9z"/><g opacity=".2" class="st0"><path stroke-linejoin="round" d="m308 140.5-10.2-73.6c-64.1 8.9-112.9 57.5-125.2 117.4l-19-3.4 52.4 42.7 57.4-23.1-17.5-3.1c6.7-29.1 30.8-52.5 62.1-56.9z" stroke="#205081" stroke-miterlimit="10" stroke-width="4" class="st2" fill="none"/></g><path stroke-linejoin="round" style="stroke:#333" d="m306.8 139.3-10.2-73.6c-64.1 8.9-112.9 57.5-125.2 117.4l-19-3.4 52.4 42.7 57.4-23.1-17.5-3.1c6.7-29.1 30.8-52.5 62.1-56.9z" stroke="#205081" stroke-miterlimit="10" stroke-width="4" class="st2" fill="none"/><g opacity=".2" class="st0"><path fill="#205081" class="st1" d="m379.7 172.3 21.5-34.4 46.1 2.5c-28.6-50.1-85.1-80.8-145.6-74.1l-2.5-17.9-24.4 62.9 39.7 47.5-2.6-18.8c27.6-2.2 53.1 10.8 67.8 32.3z"/><path stroke-linejoin="round" d="m379.7 172.3 21.5-34.4 46.1 2.5c-28.6-50.1-85.1-80.8-145.6-74.1l-2.5-17.9-24.4 62.9 39.7 47.5-2.6-18.8c27.6-2.2 53.1 10.8 67.8 32.3z" stroke="#205081" stroke-miterlimit="10" stroke-width="4" class="st2" fill="none"/></g><path fill="#ff4e4a" class="st7" d="m378.5 171.1 21.5-34.4 46.1 2.5c-28.6-50.1-85.1-80.8-145.6-74.1l-2.5-17.9-24.4 62.9 39.7 47.5-2.6-18.8c27.6-2.2 53.1 10.8 67.8 32.3z"/><path stroke-linejoin="round" style="stroke:#333" d="m378.5 171.1 21.5-34.4 46.1 2.5c-28.6-50.1-85.1-80.8-145.6-74.1l-2.5-17.9-24.4 62.9 39.7 47.5-2.6-18.8c27.6-2.2 53.1 10.8 67.8 32.3z" stroke="#205081" stroke-miterlimit="10" stroke-width="4" class="st2" fill="none"/><path fill="#50c2c3" class="st3" d="m464.3 192.5c-2.2-15.7-6.7-30.4-13.3-44l16.5-8-67.5-3.7-32.8 52.5 16.9-8.2c3.2 6.7 5.4 14 6.5 21.7"/><path stroke-linejoin="round" style="stroke:#333" d="m464.3 192.5c-2.2-15.7-6.7-30.4-13.3-44l16.5-8-67.5-3.7-32.8 52.5 16.9-8.2c3.2 6.7 5.4 14 6.5 21.7" stroke="#205081" stroke-miterlimit="10" stroke-width="4" class="st2" fill="none"/></g><g letter-spacing="0px" font-family="Arial" font-weight="bold" word-spacing="0px" font-size="18.667px" stroke-width="1px"><text y="174.31055" x="242.5278" style="font-variant-ligatures:normal;font-feature-settings:normal;line-height:25px;font-variant-caps:normal;font-variant-numeric:normal" xml:space="preserve"><tspan y="174.31055" x="242.5278">Release</tspan></text>
<text y="68.517807" x="165.44806" style="line-height:25px" xml:space="preserve"><tspan y="68.517807" x="165.44806">Develop</tspan></text>
<text y="106.10583" x="59.008564" style="line-height:25px" xml:space="preserve"><tspan y="106.10583" x="59.008564">Build</tspan></text>
<text xml:space="preserve" style="line-height:25px" y="227.48419" x="51.53912"><tspan y="227.48419" x="51.53912">Test</tspan></text>
<text xml:space="preserve" style="line-height:25px" y="275.04776" x="175.90526"><tspan y="275.04776" x="175.90526">Stage</tspan></text>
</g></svg>
