<?xml version="1.0" encoding="UTF-8"?>
<svg width="33.134mm" height="30.176mm" version="1.1" viewBox="0 0 33.13377 30.17573" xmlns="http://www.w3.org/2000/svg"><g transform="translate(149.61 6.8617)" stroke-width=".26458"><path class="cls-1" d="m-133.05-6.8617-0.61648 0.9234-4.4635 6.6887h10.157zm0 2.667 2.3151 3.474h-4.6329z" fill="#008000"/><path class="cls-1" d="m-124.61 15.178v8.1359h8.1333v-8.1359zm1.479 1.479h5.1779v5.1779h-5.1779z" fill="#f00"/><path class="cls-1" d="m-145.18 14.437a4.4371 4.4371 0 1 1 -4.4371 4.4371 4.4476 4.4476 0 0 1 4.4371 -4.4371zm0 1.479a2.958 2.958 0 1 0 2.9528 2.958 2.9475 2.9475 0 0 0 -2.958 -2.958z" fill="#00f"/><g fill="#808080"><path class="cls-1" d="m-135.84 16.281a0.74083 0.74083 0 0 0 -0.508 0.22225l-1.7833 1.7833a0.74083 0.74083 0 0 0 0 1.1748l1.7859 1.7859a0.74835 0.74835 0 0 0 1.0583 -1.0583l-0.59266-0.57415h7.4586a0.74083 0.74083 0 1 0 0.0212 -1.479h-7.4798l0.58473-0.58473a0.74083 0.74083 0 0 0 -0.54504 -1.27z"/><path class="cls-1" d="m-139.83 3.6608c-0.89693 0.17727-1.823 0.46831-2.7305 0.71173-0.96837 0.24606-0.57679 1.6986 0.38365 1.4288l0.79375-0.21431-3.7306 6.4585c-0.52916 0.86254 0.79375 1.6298 1.2806 0.74083l3.7306-6.4585 0.21431 0.79375c0.26459 0.9525 1.6854 0.56885 1.4288-0.38365l-0.65352-2.4421a0.74083 0.74083 0 0 0 -0.71702 -0.635z"/><path class="cls-1" d="m-126.96 3.6608a0.74083 0.74083 0 0 0 -0.60589 1.1192l3.7306 6.4585-0.79375-0.21431c-0.9525-0.26458-1.3229 1.1748-0.38364 1.4288l2.5268 0.67733a0.8255 0.8255 0 0 0 0.90487 -0.52917l0.67734-2.5268a0.74083 0.74083 0 1 0 -1.4288 -0.38365l-0.21432 0.79375-3.7306-6.4585a0.74083 0.74083 0 0 0 -0.68263 -0.36512z"/></g></g></svg>
