<?xml version="1.0" encoding="UTF-8"?>
<svg width="210pt" version="1.1" xmlns="http://www.w3.org/2000/svg" height="181pt" viewBox="0 0 210 181" xmlns:xlink="http://www.w3.org/1999/xlink">
 <defs>
  <clipPath id="Clip0">
   <path d="M0 0 L0 180.353 L209.667 180.353 L209.667 0 L0 0 Z" transform="translate(0, 0.647461)"/>
  </clipPath>
 </defs>
 <g id="Background">
  <g id="Group1" clip-path="url(#Clip0)">
   <path style="fill:#e30938; fill-rule:nonzero;stroke:none;" d="M184.278 57.4687 L142.663 57.4687 L142.663 50.8759 C142.663 45.7607 138.517 41.6152 133.402 41.6152 L50.876 41.6152 C45.7617 41.6152 41.6152 45.7607 41.6152 50.8759 L41.6152 57.4687 L0 57.4687 L0 17.1211 C0 7.7041 7.7041 0 17.1221 0 L167.157 0 C176.574 0 184.278 7.7041 184.278 17.1211 L184.278 57.4687 " transform="translate(0, 0.647461)"/>
   <path style="fill:#e30938; fill-rule:nonzero;stroke:none;" d="M167.157 57.469 L17.1221 57.469 C7.70508 57.469 0 49.764 0 40.347 L0 0 L41.6152 0 L41.6152 6.592 C41.6152 11.707 45.7617 15.853 50.877 15.853 L133.402 15.853 C138.517 15.853 142.663 11.707 142.663 6.592 L142.663 0 L184.278 0 L184.278 40.347 C184.278 49.764 176.574 57.469 167.157 57.469 " transform="translate(0, 123.531)"/>
   <path style="fill:#e30938; fill-rule:nonzero;stroke:none;" d="M41.6152 41.6154 L0 41.6154 L0 0 L41.6152 0 L41.6152 41.6154 " transform="translate(0, 70.0156)"/>
   <path style="fill:#e30938; fill-rule:nonzero;stroke:none;" d="M41.615 41.6154 L0 41.6154 L0 0 L41.615 0 L41.615 41.6154 " transform="translate(142.663, 70.0156)"/>
   <path style="fill:#e30035; fill-rule:nonzero;stroke:none;" d="M9.203 16.145 C5.375 16.145 2.262 13.031 2.262 9.203 C2.262 5.375 5.375 2.261 9.203 2.261 C13.031 2.261 16.145 5.375 16.145 9.203 C16.145 13.031 13.031 16.145 9.203 16.145 Z M18.407 9.203 C18.407 4.128 14.278 0 9.203 0 C4.128 0 0 4.128 0 9.203 C0 14.278 4.128 18.407 9.203 18.407 C14.278 18.407 18.407 14.278 18.407 9.203 Z" transform="translate(191.26, 162.593)"/>
   <path style="fill:#e30035; fill-rule:nonzero;stroke:none;" d="M4.714 3.054 C4.714 3.865 4.199 4.407 3.245 4.407 L1.867 4.407 L1.867 1.687 L3.207 1.687 C4.161 1.687 4.714 2.139 4.714 3.041 L4.714 3.054 Z M6.596 3.002 L6.596 2.951 C6.596 2.061 6.325 1.353 5.835 0.863 C5.268 0.296 4.432 0 3.388 0 L0 0 L0 9.018 L1.867 9.018 L1.867 6.056 L3.039 6.056 L4.701 9.018 L6.84 9.018 L4.92 5.668 C5.913 5.231 6.596 4.367 6.596 3.002 Z" transform="translate(197.32, 167.126)"/>
  </g>
 </g>
</svg>
