<?xml version="1.0" encoding="UTF-8" standalone="no"?>
<svg xmlns:rdf="http://www.w3.org/1999/02/22-rdf-syntax-ns#" xmlns="http://www.w3.org/2000/svg" xml:space="preserve" height="155.4" width="349.33" version="1.1" y="0px" x="0px" xmlns:cc="http://creativecommons.org/ns#" xmlns:dc="http://purl.org/dc/elements/1.1/" viewBox="0 0 349.33468 155.40108"><defs><marker id="a" refY="0.0" refX="0.0" style="overflow:visible" orient="auto"><path style="fill-rule:evenodd;stroke:#008000;stroke-width:1pt;fill:#008000" transform="scale(-.2)" d="m5.77 0l-8.65 5v-10l8.65 5z"/></marker></defs><style type="text/css">
	.Drop_x0020_Shadow{fill:none;}
	.Round_x0020_Corners_x0020_2_x0020_pt{fill:#FFFFFF;stroke:#000000;stroke-miterlimit:10;}
	.Live_x0020_Reflect_x0020_X{fill:none;}
	.Bevel_x0020_Soft{fill:url(#b);}
	.Dusk{fill:#FFFFFF;}
	.Foliage_GS{fill:#FFDD00;}
	.Pompadour_GS{fill-rule:evenodd;clip-rule:evenodd;fill:#44ADE2;}
	.st0{opacity:0.6;}
	.st1{fill:#888888;}
	.st2{fill:none;}
	.st3{fill:#6E90B3;}
	.st4{fill:#F4F4F4;}
	.st5{fill:none;stroke:#888888;stroke-miterlimit:10;}
	.st6{fill:#0E8CCD;}
	.st7{fill:#46BEAA;}
	.st8{fill:#E4E4E4;stroke:#888888;stroke-miterlimit:10;}
	.st9{fill:#F9A039;}
	.st10{fill:#FFFFFF;}
	.st11{fill:#1E8C63;}
	.st12{fill:#C0212A;}
	.st13{fill:#072B41;}
	.st14{fill:none;stroke:#888888;stroke-width:1.5;stroke-miterlimit:10;}
	.st15{fill:#072B41;stroke:#072B41;stroke-miterlimit:10;}
	.st16{fill:#741A48;}
	.st17{fill:#32B8E6;}
	.st18{opacity:0.44;fill:#0E8CCD;stroke:#FFFFFF;stroke-miterlimit:10;}
	.st19{fill:#014A72;}
	.st20{fill:none;stroke:#888888;stroke-width:2;stroke-miterlimit:10;}
	.st21{fill:#60809C;}
	.st22{fill:none;stroke:#60809C;stroke-width:0.5;stroke-miterlimit:10;}
	.st23{fill:#173962;}
	.st24{fill:#005595;}
	.st25{fill:#3B85C6;}
	.st26{fill:#6DA7DA;}
	.st27{fill:#9FC5E6;}
	.st28{opacity:0.9;fill:#072B41;}
	.st29{opacity:0.9;fill:#1D5883;}
	.st30{opacity:0.9;fill:#6DA7DA;}
	.st31{fill:none;stroke:#072B41;stroke-width:0.75;stroke-miterlimit:10;}
	.st32{fill:none;stroke:#000000;stroke-miterlimit:10;}
	.st33{fill:none;stroke:#1D5883;stroke-miterlimit:10;}
</style><linearGradient id="b" y2="-323.16" gradientUnits="userSpaceOnUse" y1="-323.87" x2="-605.29" x1="-606"><stop style="stop-color:#DEDFE3" offset="0"/><stop style="stop-color:#D8D9DD" offset=".1738"/><stop style="stop-color:#C9CACD" offset=".352"/><stop style="stop-color:#B4B5B8" offset=".5323"/><stop style="stop-color:#989A9C" offset=".7139"/><stop style="stop-color:#797C7E" offset=".8949"/><stop style="stop-color:#656B6C" offset="1"/></linearGradient><polygon class="st23" style="fill:#fc0" points="58.9 17.561 48.939 5.724 91.504 5.724 100.96 17.64 91.504 30.12 48.939 30.12" transform="translate(1.9191 97.736)"/><polygon class="st24" style="fill:#fc0" points="104.26 17.561 94.299 5.724 136.86 5.724 146.32 17.64 136.86 30.12 94.299 30.12" transform="translate(1.9191 97.736)"/><polygon class="st25" style="fill:#fc0" points="150.14 17.561 140.18 5.724 182.75 5.724 192.2 17.64 182.75 30.12 140.18 30.12" transform="translate(1.9191 97.736)"/><polygon class="st26" style="fill:#f60" points="195.88 17.561 185.92 5.724 228.48 5.724 237.93 17.64 228.48 30.12 185.92 30.12" transform="translate(1.9191 97.736)"/><polygon class="st27" style="fill:#d40000" points="241.75 17.561 231.27 5.724 276.06 5.724 286 17.64 276.06 30.12 231.27 30.12" transform="translate(1.9191 97.736)"/><text y="118.86861" x="64.730339" style="font-size:7.5px;font-weight:600;letter-spacing:0px;line-height:100%;word-spacing:0px;font-family:FreeSans;fill:#000000" xml:space="preserve"><tspan y="118.86861" x="64.730339">Commit</tspan></text>
<text y="118.86861" x="114.99197" style="font-size:7.5px;font-weight:bold;letter-spacing:0px;line-height:100%;word-spacing:0px;font-stretch:semi-condensed;font-family:&apos;DejaVu Sans&apos;;fill:#000000" xml:space="preserve"><tspan y="118.86861" x="114.99197">Build</tspan></text>
<text y="118.86863" x="160.94315" style="font-size:7.5px;font-weight:bold;letter-spacing:0px;line-height:100%;word-spacing:0px;font-stretch:semi-condensed;font-family:&apos;DejaVu Sans&apos;;fill:#000000" xml:space="preserve"><tspan y="118.86863" x="160.94315">Test</tspan></text>
<text y="118.86861" x="201.52092" style="font-size:7.5px;font-weight:bold;letter-spacing:0px;line-height:100%;word-spacing:0px;font-stretch:semi-condensed;font-family:&apos;DejaVu Sans&apos;;fill:#000000" xml:space="preserve"><tspan y="118.86861" x="201.52092">Staging</tspan></text>
<text y="118.86861" x="243.45766" style="font-size:7.5px;font-weight:bold;letter-spacing:0px;line-height:100%;word-spacing:0px;font-stretch:semi-condensed;font-family:&apos;DejaVu Sans&apos;;fill:#000000" xml:space="preserve"><tspan y="118.86861" x="243.45766">Production</tspan></text>
<path style="stroke-linejoin:round;marker-start:url(#a);stroke:#008000;stroke-width:10;fill:none" d="m64.976 143.23h195.47v-15.378"/><path style="stroke:#008000;stroke-width:10;fill:none" d="m213.47 127.86v12.368"/><path style="stroke:#008000;stroke-width:10;fill:none" d="m167.95 127.86v12.368"/><g transform="matrix(.097656 0 0 .097656 -1.344 135.57)"><polygon style="fill:#666" points="107.14 352.28 91.115 407.6 165.27 407.6 156.83 348.56" transform="translate(7.0432 -318.9)"/><polygon style="fill:#ccc" points="70.019 417.29 164.55 417.29 164.55 402.54 75.445 402.54" transform="translate(7.0432 -318.9)"/><path style="fill:#666" d="m230.39 51.25h-194.59c-12.178 0-22.04-9.875-22.04-22.053v-158.59c0-12.178 9.863-22.04 22.04-22.04h148.77l35.46 156.86 10.358 45.817z"/><path style="fill:#999" d="m148.08-151.43-100.15 202.68h-12.13c-12.178 0-22.04-9.875-22.04-22.053v-158.59c0-12.178 9.863-22.04 22.04-22.04h112.28z"/><path style="fill:#ccc" d="m230.39 51.25h-194.59c-12.178 0-22.04-9.875-22.04-22.053v-23.765h206.27l10.357 45.818z"/><path style="fill:#e6e6e6" d="m70.575 5.433-22.643 45.817h-12.13c-12.178 0-22.04-9.875-22.04-22.053v-23.765h56.813z"/><g transform="translate(7.0432 -318.9)"><path style="fill:#e0b394" d="m146.18 226.06c-14.951-0.663-26.851-12.998-26.851-28.105 0-15.53 12.588-28.129 28.129-28.129 1.399 0 2.773 0.096 4.124 0.301"/><path style="fill:#e0b394" d="m397.96 226.06c14.951-0.663 26.863-12.998 26.863-28.105 0-15.53-12.6-28.129-28.141-28.129-1.399 0-2.785 0.109-4.124 0.301"/></g><path style="fill:#90bc42" d="m335.97 9.071h-113.71c-41.182 0-74.569 33.385-74.569 74.569v109.46h262.85v-109.46c0.002-41.184-33.383-74.569-74.567-74.569z"/><path style="fill:#87aa3c" d="m268.2 9.071h-45.945c-41.182 0-74.569 33.385-74.569 74.569v109.46h45.945v-109.46c0.002-41.184 33.387-74.569 74.569-74.569z"/><path style="fill:#e0b394" d="m339.96-50.525v77.681c0 33.602-27.244 60.846-60.846 60.846-33.612 0-60.846-27.244-60.846-60.846v-77.681h121.69z"/><path style="fill:#87aa3c" d="m279.12 94.03c-36.874 0-66.875-29.999-66.875-66.874v-77.681c0-3.329 2.7-6.029 6.029-6.029h121.69c3.329 0 6.029 2.7 6.029 6.029v77.681c-0.002 36.874-30.001 66.874-66.875 66.874zm-54.818-138.53v71.652c0 30.226 24.592 54.817 54.818 54.817s54.817-24.591 54.817-54.817v-71.652h-109.64z"/><path style="fill:#f7cba4" d="m238.42 28.743-49.493-35.959c-26.154-19.002-40.303-50.425-37.194-82.605l8.585-88.835c5.913-61.184 57.328-107.87 118.8-107.87 61.469 0 112.88 46.687 118.8 107.87l8.585 88.835c3.11 32.179-11.04 63.602-37.194 82.605l-49.493 35.959c-24.268 17.628-57.125 17.628-81.39 0z"/><path style="fill:#e8ba97" d="m182.53-72.314c-0.832 14.071 3.75 27.912 12.817 38.703l51.729 63.565c2.701 3.219 5.763 5.92 9.079 8.078-6.221-2.17-12.202-5.281-17.736-9.296l-49.495-35.954c-26.152-19.002-40.295-50.423-37.184-82.604l8.573-88.837c5.86-60.587 56.331-106.96 117.02-107.84-37.377 0.904-79.701 36.135-81.908 73.657l-12.89 140.53z"/><g transform="translate(7.0432 -318.9)"><path style="fill:#c0e7f9" d="m258.21 188.39v20.678c0 22.475-18.218 40.693-40.693 40.693-5.51 0-10.755-1.097-15.554-3.075-14.758-6.113-25.139-20.654-25.139-37.618v-24.79c8.971 2.713 18.327 4.111 27.792 4.111h53.594z"/><path style="fill:#c0e7f9" d="m367.32 184.27v24.802c0 22.475-18.218 40.693-40.693 40.693-5.691 0-11.105-1.17-16.024-3.28-14.505-6.221-24.669-20.63-24.669-37.413v-20.678h53.534c2.074 0 4.136-0.072 6.185-0.205 7.368-0.471 14.638-1.785 21.667-3.919z"/></g><g transform="translate(7.0432 -318.9)"><path style="fill:#e6f6fc" d="m367.32 184.27v24.802c0 22.475-18.218 40.693-40.693 40.693-5.691 0-11.105-1.17-16.024-3.28l35.05-58.296c7.368-0.471 14.638-1.785 21.667-3.919z"/><path style="fill:#e6f6fc" d="m258.21 188.39v20.678c0 22.475-18.218 40.693-40.693 40.693-5.51 0-10.755-1.097-15.554-3.075l35.062-58.296h21.185z"/></g><path style="fill:#e0b394" d="m292.98-130.51v20.678 26.465c0 7.668-6.209 13.866-13.866 13.866-3.834 0-7.307-1.543-9.815-4.051s-4.051-5.98-4.051-9.815v-26.465-20.678"/><path style="fill:#f76b4f" d="m407.74-158.08c-2.132-2.557-5.932-2.903-8.491-0.772-8.116 6.764-21.746 16.958-26.634 18.443-8.452 2.563-17.233 3.864-26.101 3.864h-134.86c-8.828 0-17.591-1.296-26.046-3.853-4.875-1.476-18.538-11.681-26.682-18.457-2.56-2.129-6.36-1.78-8.489 0.779-2.129 2.56-1.782 6.36 0.778 8.489 3.082 2.566 17.057 14.015 26.62 18.912v20.837c0 25.763 20.959 46.721 46.721 46.721s46.721-20.959 46.721-46.721v-14.649h15.674v14.649c0 25.763 20.959 46.721 46.721 46.721s46.721-20.959 46.721-46.721v-20.85c9.558-4.899 23.501-16.339 26.575-18.901 2.557-2.132 2.903-5.933 0.772-8.491zm-148.52 48.242c0 19.114-15.55 34.664-34.664 34.664s-34.664-15.55-34.664-34.664v-17.007c7.143 1.56 14.432 2.357 21.763 2.357h47.565v14.65zm74.453 34.664c-19.114 0-34.664-15.55-34.664-34.664v-14.649h47.505c7.362 0 14.671-0.799 21.823-2.364v17.014c0.001 19.113-15.549 34.663-34.664 34.663z"/><g transform="translate(7.0432 -318.9)"><path style="fill:#71c5f4" d="m87.502 127.27c-2.996 0-5.426-2.43-5.426-5.426v-32.115l-3.398 3.398c-2.12 2.118-5.554 2.118-7.673 0-2.118-2.118-2.118-5.554 0-7.673l12.66-12.66c1.552-1.552 3.885-2.017 5.913-1.177s3.349 2.818 3.349 5.012v45.214c0.001 2.999-2.429 5.427-5.425 5.427z"/><path style="fill:#71c5f4" d="m499.86 289.97c-2.996 0-5.426-2.43-5.426-5.426v-32.115l-3.398 3.398c-2.12 2.118-5.554 2.118-7.673 0-2.118-2.118-2.118-5.554 0-7.673l12.66-12.66c1.551-1.552 3.885-2.016 5.913-1.177 2.028 0.84 3.349 2.818 3.349 5.012v45.214c0 2.998-2.429 5.427-5.425 5.427z"/><path style="fill:#71c5f4" d="m42.761 127.27c-11.009 0-19.968-8.957-19.968-19.967v-16.131c0-11.009 8.957-19.967 19.968-19.967s19.967 8.957 19.967 19.967v16.131c0 11.01-8.957 19.967-19.967 19.967zm0-45.214c-5.027 0-9.116 4.09-9.116 9.115v16.131c0 5.027 4.09 9.115 9.116 9.115 5.025 0 9.115-4.09 9.115-9.115v-16.13c0.001-5.027-4.089-9.116-9.115-9.116z"/><path style="fill:#71c5f4" d="m52.186 205.59c-1.221 0-2.211-0.99-2.211-2.211v-13.092l-1.385 1.385c-0.864 0.863-2.264 0.863-3.128 0-0.863-0.863-0.863-2.264 0-3.128l5.16-5.16c0.633-0.633 1.583-0.822 2.41-0.48s1.365 1.149 1.365 2.044v18.432c0.002 1.221-0.988 2.21-2.211 2.21z"/><path style="fill:#71c5f4" d="m33.948 205.59c-4.489 0-8.14-3.652-8.14-8.14v-6.576c0-4.489 3.652-8.14 8.14-8.14s8.14 3.651 8.14 8.14v6.576c-0.001 4.49-3.652 8.14-8.14 8.14zm0-18.431c-2.05 0-3.716 1.667-3.716 3.716v6.576c0 2.049 1.668 3.716 3.716 3.716s3.716-1.667 3.716-3.716v-6.576c0-2.049-1.668-3.716-3.716-3.716z"/><path style="fill:#71c5f4" d="m69.416 205.59c-4.489 0-8.14-3.652-8.14-8.14v-6.576c0-4.489 3.652-8.14 8.14-8.14s8.14 3.651 8.14 8.14v6.576c0 4.49-3.651 8.14-8.14 8.14zm0-18.431c-2.05 0-3.716 1.667-3.716 3.716v6.576c0 2.049 1.668 3.716 3.716 3.716 2.049 0 3.716-1.667 3.716-3.716v-6.576c0-2.049-1.667-3.716-3.716-3.716z"/><path style="fill:#71c5f4" d="m35.306 239.65c-1.221 0-2.211-0.99-2.211-2.211v-13.092l-1.385 1.385c-0.864 0.863-2.264 0.863-3.128 0s-0.863-2.264 0-3.128l5.16-5.16c0.633-0.633 1.583-0.822 2.41-0.48s1.365 1.149 1.365 2.044v18.432c0.002 1.22-0.988 2.21-2.211 2.21z"/><path style="fill:#71c5f4" d="m96.142 239.65c-1.221 0-2.211-0.99-2.211-2.211v-13.092l-1.385 1.385c-0.865 0.863-2.264 0.863-3.128 0s-0.863-2.264 0-3.128l5.16-5.16c0.633-0.633 1.583-0.822 2.41-0.48s1.365 1.149 1.365 2.044v18.432c0 1.22-0.99 2.21-2.211 2.21z"/><path style="fill:#71c5f4" d="m34.853 272.4c-1.221 0-2.211-0.99-2.211-2.211v-13.092l-1.385 1.385c-0.864 0.863-2.264 0.863-3.128 0-0.863-0.863-0.863-2.264 0-3.128l5.16-5.16c0.633-0.633 1.583-0.822 2.41-0.48s1.365 1.149 1.365 2.044v18.432c0.002 1.22-0.988 2.21-2.211 2.21z"/><path style="fill:#71c5f4" d="m49.322 272.4c-1.221 0-2.211-0.99-2.211-2.211v-13.092l-1.385 1.385c-0.864 0.863-2.264 0.863-3.128 0-0.863-0.863-0.863-2.264 0-3.128l5.16-5.16c0.633-0.633 1.583-0.822 2.41-0.48s1.365 1.149 1.365 2.044v18.432c0.001 1.22-0.989 2.21-2.211 2.21z"/><path style="fill:#71c5f4" d="m66.202 272.4c-1.221 0-2.211-0.99-2.211-2.211v-13.092l-1.385 1.385c-0.864 0.863-2.264 0.863-3.128 0-0.863-0.863-0.863-2.264 0-3.128l5.16-5.16c0.633-0.633 1.583-0.822 2.41-0.48s1.365 1.149 1.365 2.044v18.432c0.001 1.22-0.989 2.21-2.211 2.21z"/><path style="fill:#71c5f4" d="m52.244 239.65c-4.489 0-8.14-3.652-8.14-8.14v-6.576c0-4.489 3.652-8.14 8.14-8.14s8.14 3.652 8.14 8.14v6.576c0 4.488-3.651 8.14-8.14 8.14zm0-18.432c-2.05 0-3.716 1.667-3.716 3.716v6.576c0 2.049 1.668 3.716 3.716 3.716s3.716-1.667 3.716-3.716v-6.576c0-2.05-1.667-3.716-3.716-3.716z"/><path style="fill:#71c5f4" d="m74.842 239.65c-4.489 0-8.14-3.652-8.14-8.14v-6.576c0-4.489 3.652-8.14 8.14-8.14s8.14 3.652 8.14 8.14v6.576c0 4.488-3.651 8.14-8.14 8.14zm0-18.432c-2.05 0-3.716 1.667-3.716 3.716v6.576c0 2.049 1.668 3.716 3.716 3.716 2.049 0 3.716-1.667 3.716-3.716v-6.576c0-2.05-1.668-3.716-3.716-3.716z"/><path style="fill:#71c5f4" d="m91.623 205.59c-4.489 0-8.14-3.652-8.14-8.14v-6.576c0-4.489 3.652-8.14 8.14-8.14s8.14 3.651 8.14 8.14v6.576c0 4.49-3.651 8.14-8.14 8.14zm0-18.431c-2.05 0-3.716 1.667-3.716 3.716v6.576c0 2.049 1.668 3.716 3.716 3.716s3.716-1.667 3.716-3.716v-6.576c0-2.049-1.668-3.716-3.716-3.716z"/><path style="fill:#71c5f4" d="m70.166 57.269c-2.996 0-5.426-2.43-5.426-5.426v-32.115l-3.398 3.398c-2.12 2.118-5.554 2.118-7.673 0-2.118-2.118-2.118-5.554 0-7.673l12.66-12.66c1.552-1.552 3.886-2.017 5.913-1.177 2.028 0.84 3.349 2.818 3.349 5.012v45.214c0.001 2.998-2.429 5.427-5.425 5.427z"/><path style="fill:#71c5f4" d="m103.92 57.269c-11.009 0-19.967-8.957-19.967-19.967v-16.132c0-11.009 8.957-19.967 19.967-19.967s19.967 8.957 19.967 19.967v16.132c-0.001 11.01-8.958 19.967-19.967 19.967zm0-45.214c-5.025 0-9.115 4.09-9.115 9.115v16.132c0 5.027 4.09 9.115 9.115 9.115s9.115-4.089 9.115-9.115v-16.132c0-5.025-4.089-9.115-9.115-9.115z"/><path style="fill:#71c5f4" d="m455.65 289.97c-11.009 0-19.968-8.957-19.968-19.967v-16.132c0-11.009 8.957-19.967 19.968-19.967s19.967 8.957 19.967 19.967v16.132c-0.001 11.01-8.958 19.967-19.967 19.967zm0-45.214c-5.027 0-9.116 4.09-9.116 9.115v16.132c0 5.027 4.09 9.115 9.116 9.115 5.025 0 9.115-4.089 9.115-9.115v-16.132c0-5.025-4.09-9.115-9.115-9.115z"/></g><path style="fill:#666" d="m442.39-177.84s-53.232-63.505-121.78-35.774c-34.194 13.83-57.874 12.756-75.562 5.016-0.398-0.193-0.808-0.374-1.218-0.567-0.386-0.169-0.76-0.35-1.133-0.531-3.593-1.736-6.933-3.762-10.056-5.98-0.036 0.109-0.084 0.217-0.133 0.326-13.504 34.664-72.391 38.631-72.391 38.631s-26.393-42.116-11.925-74.67c11.466-25.814 41.887-53.136 93.66-63.348 13.528-2.677 28.515-4.172 44.997-4.172 79.578 0 155.54 53.051 155.54 141.07z"/><path style="fill:#4d4d4d" d="m241.86-314.73s-73.371 35.36-9.344 99.387c-13.504 34.664-72.391 38.631-72.391 38.631s-26.393-42.116-11.925-74.67c11.467-25.814 41.887-53.136 93.66-63.348z"/><path style="fill:#fce8ca" d="m488.6 18.997v113.42c0 9.827-7.958 17.784-17.784 17.784h-59.466c-9.827 0-17.784-7.958-17.784-17.784v-113.42c0-9.827 7.958-17.784 17.784-17.784h59.466c9.826 0 17.784 7.957 17.784 17.784z"/><path style="fill:#fcf3e6" d="m488.6 18.997v113.42c0 9.827-7.958 17.784-17.784 17.784h-47.566l44.141-148.99h3.424c9.827 0 17.785 7.957 17.785 17.784z"/><g transform="translate(7.0432 -318.9)"><path style="fill:#666" d="m481.55 443.81v7.512c0 9.827-7.958 17.784-17.784 17.784h-59.466c-9.827 0-17.784-7.958-17.784-17.784v-7.512h95.034z"/><path style="fill:#666" d="m481.55 337.9v7.512h-95.035v-7.512c0-9.827 7.958-17.784 17.784-17.784h59.466c9.827 0 17.785 7.957 17.785 17.784z"/></g><path style="fill:#999" d="m488.6 124.91v7.512c0 9.827-7.958 17.784-17.784 17.784h-47.566l7.487-25.296h57.863z"/><path style="fill:#333" d="m455.65 18.804h-29.149c-1.998 0-3.617-1.619-3.617-3.617s1.619-3.617 3.617-3.617h29.149c1.998 0 3.617 1.619 3.617 3.617s-1.619 3.617-3.617 3.617z"/><g transform="translate(7.0432 -318.9)"><polygon style="fill:#fce8ca" points="233.02 489.59 203.18 459.75 233.02 429.91 242.4 439.29 221.94 459.75 242.4 480.21"/><polygon style="fill:#fce8ca" points="311.12 489.59 301.74 480.21 322.21 459.75 301.74 439.29 311.12 429.91 340.96 459.75"/><rect style="fill:#fce8ca" transform="matrix(-.8994 -.4372 .4372 -.8994 313.95 991.8)" height="58.765" width="13.263" y="430.39" x="264.49"/></g><path style="fill:#999" d="m488.6 18.997v7.512h-28.708l7.5-25.296h3.424c9.826 0 17.784 7.957 17.784 17.784z"/><circle style="fill:#666" cx="441.08" r="6.33" cy="136.36"/><path style="fill:#f2f2f2" d="m326.31-46.449s-0.687 1.688-2.134 4.353c-0.35 0.687-0.76 1.411-1.218 2.194-0.543 0.772-1.17 1.555-1.845 2.436-0.675 0.88-1.447 1.772-2.267 2.761-0.289 0.374-0.603 0.687-0.94 1.013-0.121 0.121-0.253 0.241-0.386 0.362-0.47 0.434-0.953 0.892-1.447 1.35-0.989 0.928-2.062 1.845-3.183 2.809-1.182 0.868-2.448 1.688-3.75 2.58-0.651 0.446-1.326 0.88-2.014 1.314-0.687 0.41-1.423 0.748-2.17 1.121-1.471 0.748-3.002 1.471-4.582 2.194-3.255 1.109-6.643 2.411-10.261 2.954-3.569 0.832-7.295 0.965-11.008 1.145-3.714-0.181-7.439-0.301-11.008-1.133-3.617-0.543-7.005-1.845-10.261-2.954-1.579-0.711-3.111-1.435-4.594-2.182-0.735-0.374-1.471-0.711-2.17-1.121-0.675-0.446-1.35-0.868-2.001-1.314-1.302-0.892-2.58-1.724-3.762-2.58-1.121-0.965-2.182-1.893-3.183-2.809-0.494-0.47-0.965-0.916-1.435-1.362-0.169-0.157-0.338-0.313-0.506-0.47-0.289-0.289-0.567-0.567-0.808-0.892-0.784-0.953-1.543-1.833-2.206-2.701-0.651-0.88-1.29-1.652-1.821-2.423-0.482-0.82-0.928-1.567-1.302-2.255-1.507-2.749-2.134-4.389-2.134-4.389s1.784 0.543 4.533 1.652c0.699 0.265 1.423 0.591 2.231 0.916 0.856 0.253 1.736 0.579 2.677 0.892 0.953 0.313 1.905 0.699 2.918 1.061 1.001 0.386 2.134 0.639 3.255 0.977 1.121 0.326 2.243 0.723 3.412 1.073 1.218 0.265 2.436 0.579 3.689 0.88 0.627 0.145 1.242 0.326 1.869 0.494 0.639 0.145 1.302 0.229 1.953 0.362 1.314 0.229 2.628 0.494 3.943 0.796 2.737 0.253 5.438 0.856 8.259 0.965 2.785 0.362 5.631 0.265 8.452 0.434 2.833-0.169 5.679-0.06 8.464-0.422 2.821-0.096 5.522-0.711 8.259-0.965 1.314-0.289 2.628-0.555 3.943-0.784 0.651-0.133 1.314-0.217 1.953-0.362 0.627-0.181 1.254-0.35 1.869-0.494 1.254-0.301 2.472-0.627 3.689-0.88 1.182-0.35 2.303-0.748 3.424-1.073 1.109-0.338 2.267-0.603 3.231-0.977 0.989-0.338 1.917-0.711 2.858-1.001 0.928-0.313 1.797-0.627 2.653-0.88 0.844-0.362 1.592-0.711 2.303-0.989 2.811-1.17 4.559-1.676 4.559-1.676z"/><path style="fill:#4d4d4d" d="m317.91-33.693c-0.121 0.121-0.253 0.241-0.386 0.362-0.47 0.434-0.953 0.892-1.447 1.35-0.989 0.928-2.062 1.845-3.183 2.809-1.182 0.868-2.448 1.688-3.75 2.58-0.651 0.446-1.326 0.88-2.014 1.314-0.687 0.41-1.423 0.748-2.17 1.121-1.471 0.748-3.002 1.471-4.582 2.194-3.255 1.109-6.643 2.411-10.261 2.954-3.569 0.832-7.295 0.965-11.008 1.145-3.714-0.181-7.439-0.301-11.008-1.133-3.617-0.543-7.005-1.845-10.261-2.954-1.579-0.711-3.111-1.435-4.594-2.182-0.735-0.374-1.471-0.711-2.17-1.121-0.675-0.446-1.35-0.868-2.001-1.314-1.302-0.892-2.58-1.724-3.762-2.58-1.121-0.965-2.182-1.893-3.183-2.809-0.494-0.47-0.965-0.916-1.435-1.362-0.169-0.157-0.338-0.313-0.506-0.47 0.386 0.133 0.772 0.265 1.17 0.398 0.953 0.313 1.905 0.687 2.918 1.049 1.001 0.398 2.134 0.651 3.255 0.989 1.121 0.326 2.243 0.711 3.412 1.073 1.218 0.253 2.436 0.579 3.689 0.88 0.627 0.145 1.242 0.313 1.869 0.482 0.639 0.145 1.302 0.229 1.953 0.362 1.314 0.229 2.628 0.506 3.943 0.796 2.737 0.265 5.438 0.868 8.259 0.965 2.785 0.374 5.631 0.265 8.452 0.446 2.833-0.169 5.679-0.06 8.464-0.434 2.821-0.096 5.522-0.699 8.259-0.953 1.314-0.289 2.628-0.567 3.943-0.796 0.651-0.133 1.314-0.217 1.953-0.362 0.627-0.169 1.254-0.338 1.869-0.482 1.254-0.301 2.472-0.627 3.689-0.88 1.182-0.362 2.303-0.76 3.424-1.073 1.109-0.338 2.267-0.615 3.231-0.977 0.989-0.35 1.917-0.711 2.858-1.013 0.376-0.121 0.75-0.253 1.111-0.374z"/><g transform="translate(7.0432 -318.9)"><path style="fill:#666" d="m305.07 164.92s0.024-0.24 0.105-0.652c0.093-0.399 0.187-1.03 0.389-1.743 0.09-0.369 0.207-0.754 0.341-1.177 0.175-0.429 0.41-0.861 0.66-1.35 0.247-0.492 0.559-0.978 0.887-1.524 0.33-0.555 0.725-0.975 1.129-1.511 0.41-0.515 0.872-1.013 1.354-1.548 0.51-0.484 1.063-0.96 1.652-1.438 1.151-1.014 2.559-1.747 4.025-2.562 1.517-0.641 3.126-1.337 4.851-1.659 1.707-0.444 3.498-0.549 5.283-0.632 1.786 0.082 3.577 0.177 5.286 0.619 1.725 0.318 3.336 1.018 4.854 1.654 1.467 0.814 2.876 1.546 4.028 2.561 0.587 0.48 1.142 0.957 1.653 1.438 0.482 0.537 0.942 1.039 1.354 1.551 0.398 0.533 0.811 0.971 1.114 1.504 0.304 0.531 0.598 1.006 0.837 1.487 0.238 0.482 0.468 0.907 0.641 1.335 0.158 0.446 0.298 0.85 0.402 1.232 0.229 0.739 0.324 1.375 0.412 1.772 0.077 0.411 0.094 0.645 0.094 0.645s-0.25-0.006-0.672-0.047c-0.41-0.053-1.047-0.08-1.749-0.182-0.364-0.037-0.735-0.105-1.144-0.159-0.435-0.021-0.865-0.081-1.331-0.117-0.915-0.096-1.87-0.24-2.92-0.281-0.516-0.034-1.016-0.109-1.54-0.152-0.541-0.007-1.076-0.035-1.606-0.075-1.039-0.135-2.169-0.055-3.218-0.187-1.103 0.04-2.159-0.095-3.253-0.061-1.076-0.081-2.163 0.005-3.242-0.071-1.079 0.074-2.167-0.02-3.245 0.058-1.095-0.039-2.151 0.101-3.257 0.057-1.05 0.13-2.182 0.049-3.222 0.186-0.531 0.04-1.065 0.069-1.607 0.075-0.523 0.043-1.021 0.123-1.54 0.154-1.071 0.058-1.961 0.159-2.854 0.236-0.469 0.036-0.908 0.07-1.314 0.1-0.433 0.078-0.828 0.165-1.204 0.215-0.729 0.129-1.367 0.159-1.772 0.211-0.418 0.038-0.661 0.038-0.661 0.038z"/><path style="fill:#666" d="m197.72 164.92s0.024-0.24 0.105-0.652c0.093-0.399 0.187-1.03 0.389-1.743 0.09-0.369 0.207-0.754 0.341-1.177 0.175-0.429 0.41-0.861 0.66-1.35 0.247-0.492 0.559-0.978 0.887-1.524 0.33-0.555 0.725-0.975 1.129-1.511 0.41-0.515 0.872-1.013 1.354-1.548 0.51-0.484 1.063-0.96 1.652-1.438 1.151-1.014 2.559-1.747 4.025-2.562 1.517-0.641 3.126-1.337 4.851-1.659 1.707-0.444 3.498-0.549 5.283-0.632 1.786 0.082 3.577 0.177 5.286 0.619 1.725 0.318 3.336 1.018 4.854 1.654 1.467 0.814 2.876 1.546 4.028 2.561 0.587 0.48 1.142 0.957 1.653 1.438 0.482 0.537 0.942 1.039 1.354 1.551 0.398 0.533 0.811 0.971 1.114 1.504 0.304 0.531 0.598 1.006 0.837 1.487 0.238 0.482 0.468 0.907 0.641 1.335 0.158 0.446 0.298 0.85 0.401 1.232 0.229 0.739 0.324 1.375 0.412 1.772 0.077 0.411 0.094 0.645 0.094 0.645s-0.25-0.006-0.672-0.047c-0.41-0.053-1.047-0.08-1.749-0.182-0.364-0.037-0.735-0.105-1.144-0.159-0.435-0.021-0.864-0.081-1.331-0.117-0.915-0.096-1.87-0.24-2.92-0.281-0.516-0.034-1.016-0.109-1.54-0.152-0.541-0.007-1.076-0.035-1.606-0.075-1.039-0.135-2.169-0.055-3.218-0.187-1.103 0.04-2.159-0.095-3.253-0.061-1.076-0.081-2.163 0.005-3.242-0.071-1.079 0.074-2.167-0.02-3.245 0.058-1.095-0.039-2.151 0.101-3.257 0.057-1.05 0.13-2.182 0.049-3.222 0.186-0.531 0.04-1.065 0.069-1.607 0.075-0.523 0.043-1.021 0.123-1.54 0.154-1.071 0.058-1.96 0.159-2.854 0.236-0.469 0.036-0.908 0.07-1.314 0.1-0.433 0.078-0.828 0.165-1.205 0.215-0.729 0.129-1.367 0.159-1.772 0.211-0.417 0.038-0.659 0.038-0.659 0.038z"/><circle style="fill:#666" cx="326.63" r="7.434" cy="209.78"/><circle style="fill:#666" cx="217.51" r="7.434" cy="209.78"/></g></g><g transform="matrix(.12594 0 0 .12594 319.32 111.75)"><path style="fill:#694b4b" d="m-185.46 36.595c-82.142 0-73.034 99.89-72.659 172.28 0.014 2.734 1.446 5.198 3.788 6.61 9.102 5.487 34.1 18.316 68.871 18.316s59.769-12.829 68.871-18.316c2.341-1.412 3.774-3.876 3.788-6.61 0.375-72.387 9.483-172.28-72.659-172.28z"/><path style="fill:#5a4146" d="m-190.75 36.801c-76.395 4.283-67.733 101.3-67.367 172.07 0.014 2.734 1.446 5.199 3.788 6.61 9.102 5.487 34.1 18.316 68.871 18.316l20.759-145.31"/><path style="fill:#694b4b" d="m-185.46 36.595c-46.706 0-49.949 56.436-49.949 56.436 26.921-4.541 43.463 6.811 70.708-4.541l-20.759 145.31c34.772 0 59.769-12.829 68.871-18.316 2.341-1.412 3.774-3.876 3.788-6.61 0.375-72.387 9.483-172.28-72.659-172.28z"/><path style="fill:#785550" d="m-112.8 208.87c0.322-62.201 7.037-144.65-43.183-166.64-0.876 4.55-2.463 17.253 1.661 25.498 10.379 20.759 20.759 20.759 31.137 36.327 10.379 57.085-19.831 117.67-29.865 125.92 17.778-4.228 30.522-10.919 36.462-14.499 2.341-1.411 3.774-3.876 3.788-6.61z"/><path style="fill:#e6af78" d="m-106.81 224.62-46.307-19.294c-3.867-1.611-6.387-5.39-6.387-9.581v-12.541h-51.895v12.541c0 4.191-2.52 7.97-6.387 9.581l-46.307 19.294c-5.802 2.418-9.581 8.087-9.581 14.372v20.759c0 5.732 4.647 10.379 10.379 10.379h155.69c5.732 0 10.379-4.647 10.379-10.379v-20.759c0.001-6.285-3.778-11.954-9.58-14.372z"/><path style="fill:#eff2fa" d="m-106.81 224.62-44.773-18.656-33.869 14.618-33.869-14.617-44.772 18.656c-5.802 2.417-9.581 8.086-9.581 14.371v20.759c0 5.732 4.647 10.379 10.379 10.379h155.69c5.732 0 10.379-4.647 10.379-10.379v-20.759c0.001-6.285-3.778-11.954-9.58-14.372z"/><path style="fill:#d29b6e" d="m-159.51 183.2h-51.895v12.541c0 4.191-2.52 7.97-6.387 9.581l-7.232 3.014c55.345 14.112 65.514-25.136 65.514-25.136z"/><g transform="translate(-273.68 -123.04)"><path style="fill:#e4eaf6" d="m25.294 367.73-20.83-16.57c-2.791 2.85-4.464 6.71-4.464 10.86v20.759c0 5.732 4.647 10.379 10.379 10.379h20.759v-13.276c-0.001-4.73-2.15-9.203-5.844-12.158z"/><path style="fill:#e4eaf6" d="m176.44 382.78v-20.759c0-4.119-1.645-7.952-4.397-10.8l-20.898 16.504c-3.693 2.954-5.843 7.427-5.843 12.157v13.275h20.759c5.732 0.002 10.379-4.645 10.379-10.377z"/><path style="fill:#e4eaf6" d="m89.001 382.78h-1.557c-2.436 0-4.411-1.975-4.411-4.411v-34.745h10.379v34.744c0 2.437-1.975 4.412-4.411 4.412z"/><path style="fill:#e4eaf6" d="m88.222 343.62-29.702-22.28c-1.907-1.43-4.623-0.965-5.945 1.018l-5.869 8.803 18.21 25.494c1.384 1.938 4.112 2.317 5.972 0.829l17.334-13.868z"/><path style="fill:#e4eaf6" d="m88.222 343.62 29.702-22.276c1.907-1.43 4.623-0.965 5.945 1.018l5.869 8.803-18.21 25.494c-1.384 1.938-4.112 2.317-5.972 0.829l-17.328-13.87z"/></g><path style="fill:#f0c087" d="m-159.51 83.302c-25.948 25.947-76.87 5.188-76.87 46.704l3.222 30.581c0.622 6.841 4.588 12.931 10.591 16.267l29.548 16.415c4.702 2.612 10.419 2.612 15.121 0l29.548-16.415c6.005-3.336 9.97-9.427 10.591-16.267l3.72-36.32c0.265-2.582 0.321-5.179 0.234-7.769-1.94-13.21-20.516-22.818-25.705-33.196z"/><path style="fill:#e6af78" d="m-236.38 130.01 3.222 30.581c0.622 6.841 4.588 12.931 10.591 16.267l29.548 16.415c3.263 1.813 7.005 2.282 10.567 1.579 0 0-14.897-4.515-23.764-28.516-2.716-7.352-6.487-46.274-3.243-51.031 6.412-9.402 42.165-10.379 52.729-27.822-0.522-0.647-1.004-1.296-1.444-1.945-0.035-0.052-0.078-0.105-0.114-0.158-0.459-0.69-0.875-1.382-1.223-2.077-25.947 25.95-76.869 5.191-76.869 46.707z"/><path style="fill:#e4eaf6" d="m-147.57 259.75h-13.493c-4.872 0-8.822 3.95-8.822 8.822v1.557h31.137v-1.557c0-4.873-3.95-8.822-8.822-8.822z"/><polygon style="fill:#e6af78" points="369.49 295.02 369.49 323.52 406.13 356.1 442.78 323.52 442.78 295.02" transform="translate(-273.68 -123.04)"/><path style="fill:#eff2fa" d="m225.76 213.82-50.385-11.855c-0.761-0.179-1.461-0.483-2.115-0.851l-40.81 23.806-39.218-24.957c-1.016 0.956-2.275 1.666-3.706 2.003l-50.385 11.855c-7.358 1.731-12.557 8.296-12.557 15.855v31.89c0 4.497 3.646 8.144 8.144 8.144h195.45c4.497 0 8.144-3.646 8.144-8.144v-31.89c-0.002-7.56-5.202-14.125-12.559-15.856z"/><path style="fill:#d29b6e" d="m95.808 171.99v30.073c46.165 16.632 73.293-24.995 73.293-24.995v-5.078h-73.293z"/><path style="fill:#f0c087" d="m79.521 78.333 3.549 78.063c0.332 7.293 3.907 14.055 9.747 18.435l16.836 12.627c4.229 3.172 9.373 4.886 14.658 4.886h16.287c5.286 0 10.43-1.715 14.658-4.886l16.836-12.627c5.84-4.38 9.416-11.143 9.747-18.435l3.549-78.063h-105.87z"/><path style="fill:#e6af78" d="m120.24 94.62c16.287 0 40.718-4.071 46.513-16.287h-87.231l3.548 78.063c0.332 7.293 3.907 14.055 9.747 18.435l16.836 12.627c4.229 3.172 9.373 4.886 14.658 4.886h8.144c-8.144 0-24.431-16.287-24.431-36.647v-48.862c0-4.071 4.072-12.215 12.216-12.215z"/><path style="fill:#e4eaf6" d="m208.43 243.28 26.385-23.702c2.211 2.8 3.508 6.322 3.508 10.094v31.89c0 4.497-3.646 8.144-8.144 8.144h-28.502v-11.28c0-5.778 2.454-11.284 6.753-15.146z"/><polygon style="fill:#5b5d6e" points="398.5 356.1 413.77 356.1 416.31 392.74 395.95 392.74" transform="translate(-273.68 -123.04)"/><path style="fill:#515262" d="m142.63 224.92h-20.36v2.352c0 5.448 4.416 9.863 9.863 9.863h0.632c5.448 0 9.863-4.416 9.863-9.863v-2.352h0.002z"/><g transform="translate(-273.68 -123.04)"><path style="fill:#e4eaf6" d="m368.91 314.46 37.218 33.496s-10.423 5.261-23.286 15.867c-2.653 2.188-6.667 1.301-8.09-1.829l-17.486-38.468 5.532-8.297c1.378-2.067 4.267-2.43 6.112-0.769z"/><path style="fill:#e4eaf6" d="m443.35 314.46-37.218 33.496s10.423 5.261 23.286 15.867c2.653 2.188 6.667 1.301 8.09-1.829l17.486-38.468-5.532-8.297c-1.377-2.067-4.266-2.43-6.112-0.769z"/></g><path style="fill:#785550" d="m157.14 51.357 3.818 26.976c17.425 3.485 19.936 30.83 20.298 38.641 0.066 1.417 0.518 2.787 1.287 3.979l6.649 10.313s-2.276-17.051 8.144-28.502c-0.001 0 3.576-67.694-40.196-51.407z"/><path style="fill:#f0c087" d="m193.28 129.53-4.599 18.393c-0.545 2.179-2.503 3.708-4.749 3.708-2.469 0-4.551-1.838-4.858-4.288l-2.351-18.812c-0.629-5.031 3.294-9.474 8.363-9.474h0.017c5.484-0.001 9.507 5.153 8.177 10.473z"/><path style="fill:#694b4b" d="m83.422 44.062 6.023 4.114c-27.23 20.105-22.141 54.588-22.141 54.588 8.144 8.144 8.144 28.502 8.144 28.502l8.144-8.144s-3.143-23.525 12.216-32.574c14.251-8.398 26.721-4.071 39.445-4.071 34.101 0 43.645-12.852 41.991-28.502-0.856-8.099-13.238-24.967-44.789-24.431-12.735 0.216-36.647 4.072-49.033 10.518z"/><path style="fill:#5a4146" d="m81.047 82.914s-4.326-17.051 8.398-34.738c-27.23 20.105-22.141 54.588-22.141 54.588 8.144 8.144 8.144 28.502 8.144 28.502l8.144-8.144s-3.143-23.525 12.215-32.574c14.251-8.398 26.721-4.071 39.445-4.071 5.546 0 10.379-0.372 14.684-1.008-26.262 0.881-41.743-19.011-68.889-2.555z"/><path style="fill:#e6af78" d="m71.632 129.53 4.599 18.393c0.545 2.179 2.503 3.708 4.75 3.708 2.469 0 4.551-1.838 4.858-4.288l2.351-18.812c0.629-5.031-3.294-9.474-8.364-9.474h-0.017c-5.482-0.001-9.507 5.153-8.177 10.473z"/><path style="fill:#e4eaf6" d="m181.32 261.57h-20.36c-4.497 0-8.144 3.646-8.144 8.144h36.646c0.001-4.498-3.645-8.144-8.142-8.144z"/><path style="fill:#694b4b" d="m-17.524-65.537c-139.64 0-124.16 169.81-123.52 292.87 0.024 4.647 2.458 8.838 6.439 11.237 15.474 9.328 57.97 31.137 117.08 31.137 59.111 0 101.61-21.809 117.08-31.137 3.98-2.4 6.415-6.59 6.439-11.237 0.638-123.06 16.122-292.87-123.52-292.87z"/><path style="fill:#5a4146" d="m-26.522-65.188c-129.87 7.281-115.15 172.2-114.52 292.52 0.024 4.647 2.458 8.838 6.439 11.237 15.474 9.328 57.97 31.137 117.08 31.137l35.289-247.02"/><path style="fill:#694b4b" d="m-17.524-65.537c-79.4 0-84.914 95.942-84.914 95.942 45.765-7.719 73.886 11.579 120.2-7.719l-35.289 247.02c59.111 0 101.61-21.809 117.08-31.137 3.98-2.4 6.415-6.59 6.439-11.237 0.638-123.06 16.122-292.87-123.52-292.87z"/><path style="fill:#785550" d="m106 227.34c0.548-105.74 11.962-245.91-73.41-283.29-1.489 7.736-4.185 29.331 2.823 43.348 17.645 35.289 35.289 35.289 52.933 61.756 17.644 97.045-33.714 200.05-50.771 214.07 30.222-7.188 51.887-18.562 61.985-24.649 3.981-2.4 6.416-6.59 6.44-11.237z"/><path style="fill:#e6af78" d="m116.17 254.1-78.722-32.801c-6.575-2.739-10.858-9.164-10.858-16.288v-21.32h-88.222v21.32c0 7.123-4.283 13.548-10.858 16.288l-78.722 32.801c-9.862 4.109-16.287 13.746-16.287 24.431v35.289c0 9.744 7.9 17.645 17.644 17.645h264.67c9.744 0 17.644-7.9 17.644-17.645v-35.289c0.001-10.686-6.424-20.322-16.286-24.431z"/><path style="fill:#b4e1fa" d="m116.17 254.1-76.114-31.714-57.577 24.849-57.577-24.849-76.114 31.714c-9.862 4.109-16.287 13.746-16.287 24.431v35.289c0 9.744 7.9 17.645 17.644 17.645h264.67c9.744 0 17.644-7.9 17.644-17.645v-35.289c0.001-10.686-6.424-20.322-16.286-24.431z"/><path style="fill:#d29b6e" d="m26.587 183.69h-88.222v21.32c0 7.123-4.283 13.548-10.858 16.288l-12.295 5.124c94.087 23.989 111.38-42.732 111.38-42.732z"/><g transform="translate(-273.68 -123.04)"><path style="fill:#a0d2f0" d="m149.18 411.26-35.411-28.167c-4.744 4.852-7.588 11.413-7.588 18.469v35.289c0 9.744 7.9 17.644 17.644 17.644h35.289v-22.568c-0.002-8.04-3.656-15.644-9.934-20.667z"/><path style="fill:#a0d2f0" d="m406.13 436.86v-35.289c0-7.002-2.797-13.518-7.475-18.359l-35.526 28.057c-6.278 5.023-9.933 12.627-9.933 20.667v22.568h35.289c9.745 0.001 17.645-7.899 17.645-17.644z"/><path style="fill:#a0d2f0" d="m256.16 436.86c-4.872 0-8.822-3.95-8.822-8.822v-57.742h17.644v57.743c0 4.872-3.95 8.821-8.822 8.821z"/><path style="fill:#a0d2f0" d="m256.16 370.27-50.494-37.871c-3.241-2.431-7.86-1.64-10.107 1.731l-9.977 14.966 30.957 43.339c2.353 3.295 6.991 3.938 10.152 1.409l29.469-23.574z"/><path style="fill:#a0d2f0" d="m256.16 370.27 50.494-37.871c3.241-2.431 7.86-1.64 10.107 1.731l9.977 14.966-30.957 43.339c-2.353 3.295-6.991 3.938-10.152 1.409l-29.469-23.574z"/></g><path style="fill:#f0c087" d="m26.587 13.863c-44.111 44.111-130.68 8.822-130.68 79.4l5.479 51.989c1.056 11.629 7.799 21.983 18.006 27.653l50.231 27.906c7.994 4.441 17.713 4.441 25.707 0l50.231-27.906c10.207-5.672 16.949-16.025 18.006-27.653l6.324-61.745c0.45-4.388 0.546-8.803 0.397-13.208-3.303-22.457-34.88-38.792-43.702-56.436z"/><path style="fill:#e6af78" d="m-104.09 93.263 5.479 51.989c1.056 11.629 7.799 21.983 18.006 27.653l50.231 27.906c5.547 3.081 11.908 3.88 17.963 2.685 0 0-25.326-7.674-40.398-48.477-4.617-12.5-11.028-78.665-5.514-86.752 10.899-15.985 71.681-17.645 89.641-47.298-0.888-1.101-1.707-2.203-2.455-3.308-0.061-0.089-0.133-0.179-0.193-0.268-0.78-1.172-1.488-2.348-2.079-3.53-44.113 44.111-130.68 8.822-130.68 79.4z"/><path style="fill:#a0d2f0" d="m53.054 313.82h-35.289c-4.872 0-8.822 3.95-8.822 8.822v8.822h52.933v-8.822c0-4.872-3.95-8.822-8.822-8.822z"/></g><text y="145.8083" x="147.72089" style="font-size:7.5px;font-weight:bold;letter-spacing:0px;line-height:100%;word-spacing:0px;font-stretch:semi-condensed;font-family:&apos;DejaVu Sans&apos;;fill:#000000" xml:space="preserve"><tspan y="145.8083" x="147.72089">Feedback</tspan></text>
<g transform="matrix(-0.177 0 0 0.177 177.17 48.968)"><path style="fill:#ef7954" d="m182.46-56.524h-8.135v-11.756h8.135c17.53 0 31.792-14.262 31.792-31.792s-14.262-31.792-31.792-31.792h-125.84c-18.267 0-33.129-14.862-33.129-33.129s14.862-33.129 33.129-33.129h9.617c12.669 0 22.976-10.307 22.976-22.976h11.756c0 19.151-15.581 34.732-34.732 34.732h-9.617c-11.785 0-21.373 9.588-21.373 21.373s9.588 21.373 21.373 21.373h125.84c24.013 0 43.548 19.536 43.548 43.548s-19.535 43.548-43.548 43.548z"/><rect style="fill:#b3b3b3" height="48.815" width="28.561" y="-41.563" x="103.58"/><rect style="fill:#999" height="45.947" width="14.174" y="-13.772" x="103.58"/><path style="fill:#ccc" d="m157.41 32.174c0 4.072-1.208 7.919-3.612 11.318-3.773 5.365-10.516 9.597-20.135 11.841-2.073 0.481-4.275 0.876-6.615 1.165-3.163 0.395-6.573 0.598-10.228 0.598-5.995 0-11.499-2.116-15.796-5.643-5.568-4.574-9.116-11.51-9.116-19.28 0-0.192 0-0.385 0.011-0.566 0.011-0.705 0.053-1.411 0.128-2.095 1.336-12.515 11.905-22.261 24.773-22.261 3.762 0 7.235 0.192 10.431 0.556 3.537 0.395 6.744 1.015 9.608 1.806 13.744 3.815 20.006 11.852 20.519 21.278 0.021 0.428 0.032 0.856 0.032 1.283z"/><polygon style="fill:#999" points="268.68 354.13 285.24 419.54 267.43 419.54 243.52 345.96 312.4 295.91 381.29 345.96 375.19 419.54 337.02 412.93 356.13 354.13 312.4 322.37" transform="translate(-197.72 -280.84)"/><polygon style="fill:#ccc" points="286.5 354.13 305.6 412.93 285.24 419.54 261.33 345.96 330.22 295.91 399.1 345.96 375.19 419.54 354.84 412.93 373.94 354.13 330.22 322.37" transform="translate(-197.72 -280.84)"/><path style="fill:#808080" d="m-109.44-13.772h168.09c24.852 0 44.998-20.146 44.998-44.998v-6.184c0-24.852-20.146-44.998-44.998-44.998h-168.09c-24.852 0-44.998 20.146-44.998 44.998v6.184c0 24.851 20.146 44.998 44.998 44.998z"/><path style="fill:#999" d="m-27.007-13.772h168.09c24.852 0 44.998-20.146 44.998-44.998v-6.184c0-24.852-20.146-44.998-44.998-44.998h-168.09c-24.852 0-44.998 20.146-44.998 44.998v6.184c0 24.851 20.146 44.998 44.998 44.998z"/><path style="fill:#ccc" d="m-23.916-41.559c-11.194 0-20.302-9.108-20.302-20.303s9.108-20.303 20.302-20.303h161.9c11.194 0 20.302 9.108 20.302 20.303s-9.108 20.303-20.302 20.303h-161.9z"/><rect style="fill:#ccc" height="34.464" width="286.12" y="-255.56" x="-125.58"/><rect style="fill:#b3b3b3" height="34.464" width="72.135" y="-255.56" x="-197.72"/><rect style="fill:#999" height="166.71" width="107.13" y="-221.1" x="-166.99"/><path style="fill:#b3b3b3" d="m12.272-276.65h-72.135v222.27h45.602c14.654 0 26.533-11.879 26.533-26.533v-195.73z"/><path style="fill:#74a3af" d="m-41.69 31.641h-37.949c-25.041 0-45.413-20.372-45.413-45.413v-40.615h11.756v40.615c0 18.559 15.099 33.657 33.657 33.657h37.949c18.558 0 33.657-15.098 33.657-33.657h11.756c0 25.041-20.372 45.413-45.413 45.413z"/><rect style="fill:#999" height="21.089" width="32.06" y="-276.65" x="-91.923"/><rect style="fill:#999" height="21.089" width="32.06" y="-276.65" x="-166.99"/><rect style="fill:#b3b3b3" height="21.089" width="32.06" y="-276.65" x="-134.93"/><rect style="fill:#999" height="69.281" width="13.965" y="-276.65" x="-73.828"/><path style="fill:#808080" d="m-3.2929-89.103c0 9.052-7.331 16.394-16.383 16.394-1.475 0-2.918-0.192-4.275-0.566-6.979-1.881-12.119-8.261-12.119-15.828 0-7.566 5.14-13.936 12.119-15.817 1.357-0.374 2.8-0.566 4.275-0.566 9.052-0.001 16.383 7.331 16.383 16.383z"/><path style="fill:#999" d="m-11.842-89.103c0 7.567-5.13 13.947-12.109 15.828-6.979-1.881-12.119-8.261-12.119-15.828 0-7.566 5.14-13.936 12.119-15.817 6.979 1.881 12.109 8.25 12.109 15.817z"/><rect style="fill:#808080" height="123.97" width="76.947" y="-206.66" x="-151.9"/><rect style="fill:#b3b3b3" height="123.97" width="18.938" y="-206.66" x="-151.9"/><rect style="fill:#ef7954" height="10.687" width="58.009" y="-189.2" x="-132.96"/><rect style="fill:#ef7954" height="10.687" width="58.009" y="-122.23" x="-132.96"/><path style="fill:#74a3af" d="m-112.66-82.688h-10.687v-49.873c0-11.589 9.428-21.018 21.017-21.018 5.696 0 10.331-4.634 10.331-10.331v-42.749h10.687v42.749c0 11.589-9.428 21.018-21.018 21.018-5.696 0-10.33 4.634-10.33 10.331v49.873z"/><path style="fill:#ccc" d="m138.86 8.0748-1.998 1.539-14.406 11.104-14.876 11.457h-15.667l0.032-0.577 0.107-2.084c1.336-12.515 11.905-22.261 24.773-22.261h15.678c2.2-0.001 4.326 0.288 6.357 0.822z"/><path style="fill:#808080" d="m157.41 32.174c0 4.264-1.069 8.283-2.96 11.799-3.708 6.893-10.57 11.841-18.66 12.899-1.069 0.15-2.17 0.224-3.292 0.224-1.87 0-3.698-0.203-5.451-0.598-6.989-1.56-12.867-6.049-16.277-12.119-2.041-3.602-3.195-7.77-3.195-12.205 0-6.295 2.34-12.044 6.199-16.437 3.452-3.944 8.154-6.786 13.476-7.93 1.689-0.363 3.452-0.556 5.247-0.556 2.201 0 4.328 0.289 6.359 0.823 10.281 2.704 17.965 11.82 18.521 22.817 0.022 0.428 0.033 0.856 0.033 1.283z"/><path style="fill:#ccc" d="m142.54 32.174c0 5.547-4.499 10.046-10.046 10.046-1.614 0-3.131-0.374-4.478-1.058-3.302-1.646-5.568-5.055-5.568-8.988s2.266-7.342 5.568-8.988c1.347-0.684 2.864-1.058 4.478-1.058 5.547 0.001 10.046 4.5 10.046 10.046z"/><path style="fill:#999" d="m133.58 32.174c0 3.933-2.266 7.342-5.557 8.988-3.302-1.646-5.568-5.055-5.568-8.988s2.266-7.342 5.568-8.988c3.291 1.646 5.557 5.056 5.557 8.988z"/></g><text y="97.307411" x="7.4246235" style="font-size:7.5px;font-weight:bold;letter-spacing:0px;line-height:125%;word-spacing:0px;font-stretch:semi-condensed;font-family:&apos;DejaVu Sans&apos;;fill:#cccccc" xml:space="preserve"><tspan y="97.307411" x="7.4246235">Developer</tspan></text>
<text y="97.608727" x="298.10391" style="font-size:7.5px;font-weight:bold;letter-spacing:0px;line-height:125%;word-spacing:0px;font-stretch:semi-condensed;font-family:&apos;DejaVu Sans&apos;;fill:#cccccc" xml:space="preserve"><tspan y="97.608727" x="298.10391">Customers</tspan></text>
</svg>
