<?xml version="1.0" encoding="UTF-8" standalone="no"?>
<svg
   xmlns:dc="http://purl.org/dc/elements/1.1/"
   xmlns:cc="http://creativecommons.org/ns#"
   xmlns:rdf="http://www.w3.org/1999/02/22-rdf-syntax-ns#"
   xmlns:svg="http://www.w3.org/2000/svg"
   xmlns="http://www.w3.org/2000/svg"
   height="155.40108"
   width="349.33469"
   xml:space="preserve"
   viewBox="0 0 349.33468 155.40108"
   y="0px"
   x="0px"
   id="Layer_1"
   version="1.1"><metadata
     id="metadata10976"><rdf:RDF><cc:Work
         rdf:about=""><dc:format>image/svg+xml</dc:format><dc:type
           rdf:resource="http://purl.org/dc/dcmitype/StillImage" /><dc:title></dc:title></cc:Work></rdf:RDF></metadata><defs
     id="defs10974"><marker
       style="overflow:visible"
       id="TriangleInS"
       refX="0"
       refY="0"
       orient="auto"><path
         transform="scale(-0.2,-0.2)"
         style="fill:#0000ff;fill-opacity:1;fill-rule:evenodd;stroke:#0000ff;stroke-width:1pt;stroke-opacity:1"
         d="m 5.77,0 -8.65,5 0,-10 8.65,5 z"
         id="path11177" /></marker><marker
       style="overflow:visible"
       id="marker11355"
       refX="0"
       refY="0"
       orient="auto"><path
         transform="matrix(0.2,0,0,0.2,1.2,0)"
         style="fill:#000000;fill-opacity:1;fill-rule:evenodd;stroke:#000000;stroke-width:1pt;stroke-opacity:1"
         d="M 0,0 5,-5 -12.5,0 5,5 0,0 Z"
         id="path11357" /></marker><marker
       style="overflow:visible"
       id="Arrow2Sstart"
       refX="0"
       refY="0"
       orient="auto"><path
         transform="matrix(0.3,0,0,0.3,-0.69,0)"
         d="M 8.7185878,4.0337352 -2.2072895,0.01601326 8.7185884,-4.0017078 c -1.7454984,2.3720609 -1.7354408,5.6174519 -6e-7,8.035443 z"
         style="fill:#000000;fill-opacity:1;fill-rule:evenodd;stroke:#000000;stroke-width:0.625;stroke-linejoin:round;stroke-opacity:1"
         id="path11068" /></marker><marker
       style="overflow:visible"
       id="DiamondSend"
       refX="0"
       refY="0"
       orient="auto"><path
         transform="matrix(0.2,0,0,0.2,-1.2,0)"
         style="fill:#000000;fill-opacity:1;fill-rule:evenodd;stroke:#000000;stroke-width:1pt;stroke-opacity:1"
         d="M 0,-7.0710768 -7.0710894,0 0,7.0710589 7.0710462,0 0,-7.0710768 Z"
         id="path11141" /></marker><marker
       style="overflow:visible"
       id="EmptyTriangleInS"
       refX="0"
       refY="0"
       orient="auto"><path
         transform="matrix(-0.2,0,0,-0.2,0.6,0)"
         style="fill:#ffffff;fill-rule:evenodd;stroke:#000000;stroke-width:1pt;stroke-opacity:1"
         d="m 5.77,0 -8.65,5 0,-10 8.65,5 z"
         id="path11195" /></marker><marker
       orient="auto"
       refY="0"
       refX="0"
       id="InfiniteLineEnd"
       style="overflow:visible"><g
         style="fill:#000000;fill-opacity:1;stroke:#000000;stroke-opacity:1"
         id="g11273"><circle
           style="fill:#000000;fill-opacity:1;stroke:#000000;stroke-opacity:1"
           cx="3"
           cy="0"
           r="0.80000001"
           id="circle11275" /><circle
           style="fill:#000000;fill-opacity:1;stroke:#000000;stroke-opacity:1"
           cx="6.5"
           cy="0"
           r="0.80000001"
           id="circle11277" /><circle
           style="fill:#000000;fill-opacity:1;stroke:#000000;stroke-opacity:1"
           cx="10"
           cy="0"
           r="0.80000001"
           id="circle11279" /></g></marker><marker
       style="overflow:visible"
       id="Arrow1Sstart"
       refX="0"
       refY="0"
       orient="auto"><path
         transform="matrix(0.2,0,0,0.2,1.2,0)"
         style="fill:#000000;fill-opacity:1;fill-rule:evenodd;stroke:#000000;stroke-width:1pt;stroke-opacity:1"
         d="M 0,0 5,-5 -12.5,0 5,5 0,0 Z"
         id="path11050" /></marker><marker
       style="overflow:visible"
       id="Arrow1Mstart"
       refX="0"
       refY="0"
       orient="auto"><path
         transform="matrix(0.4,0,0,0.4,4,0)"
         style="fill:#000000;fill-opacity:1;fill-rule:evenodd;stroke:#000000;stroke-width:1pt;stroke-opacity:1"
         d="M 0,0 5,-5 -12.5,0 5,5 0,0 Z"
         id="path11044" /></marker><marker
       style="overflow:visible"
       id="marker11336"
       refX="0"
       refY="0"
       orient="auto"><path
         transform="scale(-0.8,-0.8)"
         style="fill:#000000;fill-opacity:1;fill-rule:evenodd;stroke:#000000;stroke-width:1pt;stroke-opacity:1"
         d="m 5.77,0 -8.65,5 0,-10 8.65,5 z"
         id="path11338" /></marker><marker
       style="overflow:visible"
       id="marker11332"
       refX="0"
       refY="0"
       orient="auto"><path
         transform="scale(-0.8,-0.8)"
         style="fill:#000000;fill-opacity:1;fill-rule:evenodd;stroke:#000000;stroke-width:1pt;stroke-opacity:1"
         d="m 5.77,0 -8.65,5 0,-10 8.65,5 z"
         id="path11334" /></marker><marker
       style="overflow:visible"
       id="TriangleInL"
       refX="0"
       refY="0"
       orient="auto"><path
         transform="scale(-0.8,-0.8)"
         style="fill:#000000;fill-opacity:1;fill-rule:evenodd;stroke:#000000;stroke-width:1pt;stroke-opacity:1"
         d="m 5.77,0 -8.65,5 0,-10 8.65,5 z"
         id="path11171" /></marker><marker
       style="overflow:visible"
       id="Arrow2Lstart"
       refX="0"
       refY="0"
       orient="auto"><path
         transform="matrix(1.1,0,0,1.1,1.1,0)"
         d="M 8.7185878,4.0337352 -2.2072895,0.01601326 8.7185884,-4.0017078 c -1.7454984,2.3720609 -1.7354408,5.6174519 -6e-7,8.035443 z"
         style="fill:#000000;fill-opacity:1;fill-rule:evenodd;stroke:#000000;stroke-width:0.625;stroke-linejoin:round;stroke-opacity:1"
         id="path11056" /></marker><linearGradient
       gradientTransform="matrix(0.9138,-0.4062,0.4062,0.9138,-56.6658,215.7002)"
       y2="398.85181"
       x2="787.73462"
       y1="335.69629"
       x1="724.5791"
       gradientUnits="userSpaceOnUse"
       id="tube_3_"><stop
         id="stop15"
         style="stop-color:#919191"
         offset="0" /><stop
         id="stop17"
         style="stop-color:#FFFFFF"
         offset="1" /></linearGradient><linearGradient
       gradientTransform="matrix(0.9138,-0.4062,0.4062,0.9138,-56.6658,215.7002)"
       y2="422.10919"
       x2="739.06622"
       y1="383.875"
       x1="700.83197"
       gradientUnits="userSpaceOnUse"
       id="liquid_2_"><stop
         id="stop21"
         style="stop-color:#990000"
         offset="0" /><stop
         id="stop23"
         style="stop-color:#E80000"
         offset="1" /></linearGradient><linearGradient
       y2="134.1638"
       x2="411.25879"
       y1="399.63571"
       x1="411.25879"
       gradientUnits="userSpaceOnUse"
       id="SVGID_1_-9"><stop
         id="stop53"
         style="stop-color:#919191"
         offset="0" /><stop
         id="stop55"
         style="stop-color:#FFFFFF"
         offset="1" /></linearGradient></defs><style
     id="style8899"
     type="text/css">
	.Drop_x0020_Shadow{fill:none;}
	.Round_x0020_Corners_x0020_2_x0020_pt{fill:#FFFFFF;stroke:#000000;stroke-miterlimit:10;}
	.Live_x0020_Reflect_x0020_X{fill:none;}
	.Bevel_x0020_Soft{fill:url(#SVGID_1_);}
	.Dusk{fill:#FFFFFF;}
	.Foliage_GS{fill:#FFDD00;}
	.Pompadour_GS{fill-rule:evenodd;clip-rule:evenodd;fill:#44ADE2;}
	.st0{opacity:0.6;}
	.st1{fill:#888888;}
	.st2{fill:none;}
	.st3{fill:#6E90B3;}
	.st4{fill:#F4F4F4;}
	.st5{fill:none;stroke:#888888;stroke-miterlimit:10;}
	.st6{fill:#0E8CCD;}
	.st7{fill:#46BEAA;}
	.st8{fill:#E4E4E4;stroke:#888888;stroke-miterlimit:10;}
	.st9{fill:#F9A039;}
	.st10{fill:#FFFFFF;}
	.st11{fill:#1E8C63;}
	.st12{fill:#C0212A;}
	.st13{fill:#072B41;}
	.st14{fill:none;stroke:#888888;stroke-width:1.5;stroke-miterlimit:10;}
	.st15{fill:#072B41;stroke:#072B41;stroke-miterlimit:10;}
	.st16{fill:#741A48;}
	.st17{fill:#32B8E6;}
	.st18{opacity:0.44;fill:#0E8CCD;stroke:#FFFFFF;stroke-miterlimit:10;}
	.st19{fill:#014A72;}
	.st20{fill:none;stroke:#888888;stroke-width:2;stroke-miterlimit:10;}
	.st21{fill:#60809C;}
	.st22{fill:none;stroke:#60809C;stroke-width:0.5;stroke-miterlimit:10;}
	.st23{fill:#173962;}
	.st24{fill:#005595;}
	.st25{fill:#3B85C6;}
	.st26{fill:#6DA7DA;}
	.st27{fill:#9FC5E6;}
	.st28{opacity:0.9;fill:#072B41;}
	.st29{opacity:0.9;fill:#1D5883;}
	.st30{opacity:0.9;fill:#6DA7DA;}
	.st31{fill:none;stroke:#072B41;stroke-width:0.75;stroke-miterlimit:10;}
	.st32{fill:none;stroke:#000000;stroke-miterlimit:10;}
	.st33{fill:none;stroke:#1D5883;stroke-miterlimit:10;}
</style><linearGradient
     y2="-323.15799"
     x2="-605.29291"
     y1="-323.86511"
     x1="-606"
     gradientUnits="userSpaceOnUse"
     id="SVGID_1_"><stop
       id="stop8902"
       style="stop-color:#DEDFE3"
       offset="0" /><stop
       id="stop8904"
       style="stop-color:#D8D9DD"
       offset="0.1738" /><stop
       id="stop8906"
       style="stop-color:#C9CACD"
       offset="0.352" /><stop
       id="stop8908"
       style="stop-color:#B4B5B8"
       offset="0.5323" /><stop
       id="stop8910"
       style="stop-color:#989A9C"
       offset="0.7139" /><stop
       id="stop8912"
       style="stop-color:#797C7E"
       offset="0.8949" /><stop
       id="stop8914"
       style="stop-color:#656B6C"
       offset="1" /></linearGradient><polygon
     transform="translate(1.9191071,97.736057)"
     style="fill:#ffcc00"
     id="polygon8918"
     points="58.9,17.561 48.939,5.724 91.504,5.724 100.955,17.64 91.504,30.12 48.939,30.12 "
     class="st23" /><polygon
     transform="translate(1.9191071,97.736057)"
     style="fill:#ffcc00"
     id="polygon8920"
     points="104.259,17.561 94.299,5.724 136.864,5.724 146.315,17.64 136.864,30.12 94.299,30.12 "
     class="st24" /><polygon
     transform="translate(1.9191071,97.736057)"
     style="fill:#ffcc00"
     id="polygon8922"
     points="150.141,17.561 140.18,5.724 182.746,5.724 192.197,17.64 182.746,30.12 140.18,30.12 "
     class="st25" /><polygon
     transform="translate(1.9191071,97.736057)"
     style="fill:#ff6600"
     id="polygon8924"
     points="195.876,17.561 185.915,5.724 228.481,5.724 237.932,17.64 228.481,30.12 185.915,30.12 "
     class="st26" /><polygon
     transform="translate(1.9191071,97.736057)"
     style="fill:#d40000"
     id="polygon10452"
     points="241.748,17.561 231.267,5.724 276.056,5.724 286,17.64 276.056,30.12 231.267,30.12 "
     class="st27" /><text
     id="text10978"
     y="118.86861"
     x="64.730339"
     style="font-style:normal;font-variant:normal;font-weight:600;font-stretch:normal;font-size:7.5px;line-height:100%;font-family:FreeSans;-inkscape-font-specification:'FreeSans, Semi-Bold';text-align:start;letter-spacing:0px;word-spacing:0px;writing-mode:lr-tb;text-anchor:start;fill:#000000;fill-opacity:1;stroke:none;stroke-width:1px;stroke-linecap:butt;stroke-linejoin:miter;stroke-opacity:1"
     xml:space="preserve"><tspan
       y="118.86861"
       x="64.730339"
       id="tspan11306">Commit</tspan></text>
<text
     id="text10978-0"
     y="118.86861"
     x="114.99197"
     style="font-style:normal;font-variant:normal;font-weight:bold;font-stretch:semi-condensed;font-size:7.5px;line-height:100%;font-family:'DejaVu Sans';-inkscape-font-specification:'DejaVu Sans, Bold Semi-Condensed';text-align:start;letter-spacing:0px;word-spacing:0px;writing-mode:lr-tb;text-anchor:start;fill:#000000;fill-opacity:1;stroke:none;stroke-width:1px;stroke-linecap:butt;stroke-linejoin:miter;stroke-opacity:1"
     xml:space="preserve"><tspan
       y="118.86861"
       x="114.99197"
       id="tspan10980-4">Build</tspan></text>
<text
     id="text10978-8"
     y="118.86863"
     x="160.94315"
     style="font-style:normal;font-variant:normal;font-weight:bold;font-stretch:semi-condensed;font-size:7.5px;line-height:100%;font-family:'DejaVu Sans';-inkscape-font-specification:'DejaVu Sans, Bold Semi-Condensed';text-align:start;letter-spacing:0px;word-spacing:0px;writing-mode:lr-tb;text-anchor:start;fill:#000000;fill-opacity:1;stroke:none;stroke-width:1px;stroke-linecap:butt;stroke-linejoin:miter;stroke-opacity:1"
     xml:space="preserve"><tspan
       y="118.86863"
       x="160.94315"
       id="tspan11028">Test</tspan></text>
<text
     id="text10978-1"
     y="118.86861"
     x="201.52092"
     style="font-style:normal;font-variant:normal;font-weight:bold;font-stretch:semi-condensed;font-size:7.5px;line-height:100%;font-family:'DejaVu Sans';-inkscape-font-specification:'DejaVu Sans, Bold Semi-Condensed';text-align:start;letter-spacing:0px;word-spacing:0px;writing-mode:lr-tb;text-anchor:start;fill:#000000;fill-opacity:1;stroke:none;stroke-width:1px;stroke-linecap:butt;stroke-linejoin:miter;stroke-opacity:1"
     xml:space="preserve"><tspan
       y="118.86861"
       x="201.52092"
       id="tspan11026">Staging</tspan></text>
<text
     id="text10978-7"
     y="118.86861"
     x="243.45766"
     style="font-style:normal;font-variant:normal;font-weight:bold;font-stretch:semi-condensed;font-size:7.5px;line-height:100%;font-family:'DejaVu Sans';-inkscape-font-specification:'DejaVu Sans, Bold Semi-Condensed';text-align:start;letter-spacing:0px;word-spacing:0px;writing-mode:lr-tb;text-anchor:start;fill:#000000;fill-opacity:1;stroke:none;stroke-width:1px;stroke-linecap:butt;stroke-linejoin:miter;stroke-opacity:1"
     xml:space="preserve"><tspan
       y="118.86861"
       x="243.45766"
       id="tspan11024">Production</tspan></text>
<path
     id="path11328"
     d="m 64.976108,143.23473 195.473512,0 0,-15.37837"
     style="fill:none;fill-rule:evenodd;stroke:#0000ff;stroke-width:10;stroke-linecap:butt;stroke-linejoin:round;stroke-miterlimit:4;stroke-dasharray:none;stroke-opacity:1;marker-start:url(#TriangleInS)" /><path
     id="path11378"
     d="m 213.47381,127.85636 0,12.36836"
     style="fill:none;fill-rule:evenodd;stroke:#0000ff;stroke-width:10;stroke-linecap:butt;stroke-linejoin:miter;stroke-miterlimit:4;stroke-dasharray:none;stroke-opacity:1" /><path
     id="path11378-7"
     d="m 167.94869,127.856 0,12.36836"
     style="fill:none;fill-rule:evenodd;stroke:#0000ff;stroke-width:10;stroke-linecap:butt;stroke-linejoin:miter;stroke-miterlimit:4;stroke-dasharray:none;stroke-opacity:1" /><g
     transform="matrix(0.09765606,0,0,0.09765606,-1.3439645,135.57064)"
     id="g13093"><polygon
       transform="translate(7.0432228,-318.90496)"
       style="fill:#666666"
       points="107.145,352.28 91.115,407.601 165.271,407.601 156.83,348.56 "
       id="polygon12065" /><polygon
       transform="translate(7.0432228,-318.90496)"
       style="fill:#cccccc"
       points="70.019,417.286 164.548,417.286 164.548,402.544 75.445,402.544 "
       id="polygon12067" /><path
       style="fill:#666666"
       d="m 230.39322,51.250042 -194.590997,0 c -12.178,0 -22.04,-9.875 -22.04,-22.053 l 0,-158.588002 c 0,-12.178 9.863,-22.04 22.04,-22.04 l 148.772997,0 35.46,156.8640016 10.358,45.8170004 z"
       id="path12069" /><path
       style="fill:#999999"
       d="M 148.07922,-151.43096 47.932223,51.250042 l -12.13,0 c -12.178,0 -22.04,-9.875 -22.04,-22.053 l 0,-158.588002 c 0,-12.178 9.863,-22.04 22.04,-22.04 l 112.276997,0 z"
       id="path12071" /><path
       style="fill:#cccccc"
       d="m 230.39322,51.250042 -194.590997,0 c -12.178,0 -22.04,-9.875 -22.04,-22.053 l 0,-23.7650004 206.273997,0 10.357,45.8180004 z"
       id="path12073" /><path
       style="fill:#e6e6e6"
       d="m 70.575223,5.4330416 -22.643,45.8170004 -12.13,0 c -12.178,0 -22.04,-9.875 -22.04,-22.053 l 0,-23.7650004 56.813,0 z"
       id="path12075" /><g
       transform="translate(7.0432228,-318.90496)"
       id="g12077"><path
         style="fill:#e0b394"
         d="m 146.18,226.057 c -14.951,-0.663 -26.851,-12.998 -26.851,-28.105 0,-15.53 12.588,-28.129 28.129,-28.129 1.399,0 2.773,0.096 4.124,0.301"
         id="path12079" /><path
         style="fill:#e0b394"
         d="m 397.958,226.057 c 14.951,-0.663 26.863,-12.998 26.863,-28.105 0,-15.53 -12.6,-28.129 -28.141,-28.129 -1.399,0 -2.785,0.109 -4.124,0.301"
         id="path12081" /></g><path
       style="fill:#90bc42"
       d="m 335.96922,9.0710416 -113.71,0 c -41.182,0 -74.569,33.3850004 -74.569,74.5690004 l 0,109.455998 262.846,0 0,-109.455998 c 0.002,-41.184 -33.383,-74.5690004 -74.567,-74.5690004 z"
       id="path12083" /><path
       style="fill:#87aa3c"
       d="m 268.20422,9.0710416 -45.945,0 c -41.182,0 -74.569,33.3850004 -74.569,74.5690004 l 0,109.455998 45.945,0 0,-109.455998 c 0.002,-41.184 33.387,-74.5690004 74.569,-74.5690004 z"
       id="path12085" /><path
       style="fill:#e0b394"
       d="m 339.96022,-50.524958 0,77.681 c 0,33.602 -27.244,60.846 -60.846,60.846 -33.612,0 -60.846,-27.244 -60.846,-60.846 l 0,-77.681 121.692,0 z"
       id="path12087" /><path
       style="fill:#87aa3c"
       d="m 279.11522,94.030042 c -36.874,0 -66.875,-29.999 -66.875,-66.874 l 0,-77.681 c 0,-3.329 2.7,-6.029 6.029,-6.029 l 121.692,0 c 3.329,0 6.029,2.7 6.029,6.029 l 0,77.681 c -0.002,36.874 -30.001,66.874 -66.875,66.874 z m -54.818,-138.526 0,71.652 c 0,30.226 24.592,54.817 54.818,54.817 30.226,0 54.817,-24.591 54.817,-54.817 l 0,-71.652 -109.635,0 z"
       id="path12089" /><path
       style="fill:#f7cba4"
       d="m 238.41722,28.743042 -49.493,-35.9590004 c -26.154,-19.0019996 -40.303,-50.4249996 -37.194,-82.6049996 l 8.585,-88.835002 c 5.913,-61.184 57.328,-107.871 118.797,-107.871 l 0,0 c 61.469,0 112.884,46.687 118.797,107.871 l 8.585,88.835002 c 3.11,32.179 -11.04,63.602 -37.194,82.6049996 l -49.493,35.9590004 c -24.268,17.628 -57.125,17.628 -81.39,0 z"
       id="path12091" /><path
       style="fill:#e8ba97"
       d="m 182.53022,-72.313958 c -0.832,14.071 3.75,27.912 12.817,38.703 l 51.729,63.565 c 2.701,3.219 5.763,5.92 9.079,8.078 -6.221,-2.17 -12.202,-5.281 -17.736,-9.296 l -49.495,-35.9540004 c -26.152,-19.0019996 -40.295,-50.4229996 -37.184,-82.6039996 l 8.573,-88.837002 c 5.86,-60.587 56.331,-106.959 117.015,-107.839 -37.377,0.904 -79.701,36.135 -81.908,73.657 l -12.89,140.527002 z"
       id="path12093" /><g
       transform="translate(7.0432228,-318.90496)"
       id="g12095"><path
         style="fill:#c0e7f9"
         d="m 258.207,188.393 0,20.678 c 0,22.475 -18.218,40.693 -40.693,40.693 -5.51,0 -10.755,-1.097 -15.554,-3.075 -14.758,-6.113 -25.139,-20.654 -25.139,-37.618 l 0,-24.79 c 8.971,2.713 18.327,4.111 27.792,4.111 l 53.594,0 z"
         id="path12097" /><path
         style="fill:#c0e7f9"
         d="m 367.324,184.27 0,24.802 c 0,22.475 -18.218,40.693 -40.693,40.693 -5.691,0 -11.105,-1.17 -16.024,-3.28 -14.505,-6.221 -24.669,-20.63 -24.669,-37.413 l 0,-20.678 53.534,0 c 2.074,0 4.136,-0.072 6.185,-0.205 7.368,-0.471 14.638,-1.785 21.667,-3.919 z"
         id="path12099" /></g><g
       transform="translate(7.0432228,-318.90496)"
       id="g12101"><path
         style="fill:#e6f6fc"
         d="m 367.324,184.27 0,24.802 c 0,22.475 -18.218,40.693 -40.693,40.693 -5.691,0 -11.105,-1.17 -16.024,-3.28 l 35.05,-58.296 c 7.368,-0.471 14.638,-1.785 21.667,-3.919 z"
         id="path12103" /><path
         style="fill:#e6f6fc"
         d="m 258.207,188.393 0,20.678 c 0,22.475 -18.218,40.693 -40.693,40.693 -5.51,0 -10.755,-1.097 -15.554,-3.075 l 35.062,-58.296 21.185,0 z"
         id="path12105" /></g><path
       style="fill:#e0b394"
       d="m 292.98222,-130.51196 0,20.678 0,26.465002 c 0,7.668 -6.209,13.866 -13.866,13.866 -3.834,0 -7.307,-1.543 -9.815,-4.051 -2.508,-2.508 -4.051,-5.98 -4.051,-9.815 l 0,-26.465002 0,-20.678"
       id="path12107" /><path
       style="fill:#f76b4f"
       d="m 407.74322,-158.07596 c -2.132,-2.557 -5.932,-2.903 -8.491,-0.772 -8.116,6.764 -21.746,16.958 -26.634,18.443 -8.452,2.563 -17.233,3.864 -26.101,3.864 l -134.86,0 c -8.828,0 -17.591,-1.296 -26.046,-3.853 -4.875,-1.476 -18.538,-11.681 -26.682,-18.457 -2.56,-2.129 -6.36,-1.78 -8.489,0.779 -2.129,2.56 -1.782,6.36 0.778,8.489 3.082,2.566 17.057,14.015 26.62,18.912 l 0,20.837 c 0,25.763002 20.959,46.721002 46.721,46.721002 25.762,0 46.721,-20.959 46.721,-46.721002 l 0,-14.649 15.674,0 0,14.649 c 0,25.763002 20.959,46.721002 46.721,46.721002 25.762,0 46.721,-20.959 46.721,-46.721002 l 0,-20.85 c 9.558,-4.899 23.501,-16.339 26.575,-18.901 2.557,-2.132 2.903,-5.933 0.772,-8.491 z m -148.522,48.242 c 0,19.114002 -15.55,34.664002 -34.664,34.664002 -19.114,0 -34.664,-15.55 -34.664,-34.664002 l 0,-17.007 c 7.143,1.56 14.432,2.357 21.763,2.357 l 47.565,0 0,14.65 z m 74.453,34.664002 c -19.114,0 -34.664,-15.55 -34.664,-34.664002 l 0,-14.649 47.505,0 c 7.362,0 14.671,-0.799 21.823,-2.364 l 0,17.014 c 0.001,19.113002 -15.549,34.663002 -34.664,34.663002 z"
       id="path12109" /><g
       transform="translate(7.0432228,-318.90496)"
       id="g12111"><path
         style="fill:#71c5f4"
         d="m 87.502,127.273 c -2.996,0 -5.426,-2.43 -5.426,-5.426 l 0,-32.115 -3.398,3.398 c -2.12,2.118 -5.554,2.118 -7.673,0 -2.118,-2.118 -2.118,-5.554 0,-7.673 l 12.66,-12.66 c 1.552,-1.552 3.885,-2.017 5.913,-1.177 2.028,0.84 3.349,2.818 3.349,5.012 l 0,45.214 c 10e-4,2.999 -2.429,5.427 -5.425,5.427 z"
         id="path12113" /><path
         style="fill:#71c5f4"
         d="m 499.857,289.972 c -2.996,0 -5.426,-2.43 -5.426,-5.426 l 0,-32.115 -3.398,3.398 c -2.12,2.118 -5.554,2.118 -7.673,0 -2.118,-2.118 -2.118,-5.554 0,-7.673 l 12.66,-12.66 c 1.551,-1.552 3.885,-2.016 5.913,-1.177 2.028,0.84 3.349,2.818 3.349,5.012 l 0,45.214 c 0,2.998 -2.429,5.427 -5.425,5.427 z"
         id="path12115" /><path
         style="fill:#71c5f4"
         d="m 42.761,127.273 c -11.009,0 -19.968,-8.957 -19.968,-19.967 l 0,-16.131 c 0,-11.009 8.957,-19.967 19.968,-19.967 11.011,0 19.967,8.957 19.967,19.967 l 0,16.131 c 0,11.01 -8.957,19.967 -19.967,19.967 z m 0,-45.214 c -5.027,0 -9.116,4.09 -9.116,9.115 l 0,16.131 c 0,5.027 4.09,9.115 9.116,9.115 5.025,0 9.115,-4.09 9.115,-9.115 l 0,-16.13 c 0.001,-5.027 -4.089,-9.116 -9.115,-9.116 z"
         id="path12117" /><path
         style="fill:#71c5f4"
         d="m 52.186,205.591 c -1.221,0 -2.211,-0.99 -2.211,-2.211 l 0,-13.092 -1.385,1.385 c -0.864,0.863 -2.264,0.863 -3.128,0 -0.863,-0.863 -0.863,-2.264 0,-3.128 l 5.16,-5.16 c 0.633,-0.633 1.583,-0.822 2.41,-0.48 0.827,0.342 1.365,1.149 1.365,2.044 l 0,18.432 c 0.002,1.221 -0.988,2.21 -2.211,2.21 z"
         id="path12119" /><path
         style="fill:#71c5f4"
         d="m 33.948,205.591 c -4.489,0 -8.14,-3.652 -8.14,-8.14 l 0,-6.576 c 0,-4.489 3.652,-8.14 8.14,-8.14 4.488,0 8.14,3.651 8.14,8.14 l 0,6.576 c -10e-4,4.49 -3.652,8.14 -8.14,8.14 z m 0,-18.431 c -2.05,0 -3.716,1.667 -3.716,3.716 l 0,6.576 c 0,2.049 1.668,3.716 3.716,3.716 2.048,0 3.716,-1.667 3.716,-3.716 l 0,-6.576 c 0,-2.049 -1.668,-3.716 -3.716,-3.716 z"
         id="path12121" /><path
         style="fill:#71c5f4"
         d="m 69.416,205.591 c -4.489,0 -8.14,-3.652 -8.14,-8.14 l 0,-6.576 c 0,-4.489 3.652,-8.14 8.14,-8.14 4.488,0 8.14,3.651 8.14,8.14 l 0,6.576 c 0,4.49 -3.651,8.14 -8.14,8.14 z m 0,-18.431 c -2.05,0 -3.716,1.667 -3.716,3.716 l 0,6.576 c 0,2.049 1.668,3.716 3.716,3.716 2.049,0 3.716,-1.667 3.716,-3.716 l 0,-6.576 c 0,-2.049 -1.667,-3.716 -3.716,-3.716 z"
         id="path12123" /><path
         style="fill:#71c5f4"
         d="m 35.306,239.647 c -1.221,0 -2.211,-0.99 -2.211,-2.211 l 0,-13.092 -1.385,1.385 c -0.864,0.863 -2.264,0.863 -3.128,0 -0.864,-0.863 -0.863,-2.264 0,-3.128 l 5.16,-5.16 c 0.633,-0.633 1.583,-0.822 2.41,-0.48 0.827,0.342 1.365,1.149 1.365,2.044 l 0,18.432 c 0.002,1.22 -0.988,2.21 -2.211,2.21 z"
         id="path12125" /><path
         style="fill:#71c5f4"
         d="m 96.142,239.647 c -1.221,0 -2.211,-0.99 -2.211,-2.211 l 0,-13.092 -1.385,1.385 c -0.865,0.863 -2.264,0.863 -3.128,0 -0.864,-0.863 -0.863,-2.264 0,-3.128 l 5.16,-5.16 c 0.633,-0.633 1.583,-0.822 2.41,-0.48 0.827,0.342 1.365,1.149 1.365,2.044 l 0,18.432 c 0,1.22 -0.99,2.21 -2.211,2.21 z"
         id="path12127" /><path
         style="fill:#71c5f4"
         d="m 34.853,272.4 c -1.221,0 -2.211,-0.99 -2.211,-2.211 l 0,-13.092 -1.385,1.385 c -0.864,0.863 -2.264,0.863 -3.128,0 -0.863,-0.863 -0.863,-2.264 0,-3.128 l 5.16,-5.16 c 0.633,-0.633 1.583,-0.822 2.41,-0.48 0.827,0.342 1.365,1.149 1.365,2.044 l 0,18.432 c 0.002,1.22 -0.988,2.21 -2.211,2.21 z"
         id="path12129" /><path
         style="fill:#71c5f4"
         d="m 49.322,272.4 c -1.221,0 -2.211,-0.99 -2.211,-2.211 l 0,-13.092 -1.385,1.385 c -0.864,0.863 -2.264,0.863 -3.128,0 -0.863,-0.863 -0.863,-2.264 0,-3.128 l 5.16,-5.16 c 0.633,-0.633 1.583,-0.822 2.41,-0.48 0.827,0.342 1.365,1.149 1.365,2.044 l 0,18.432 c 10e-4,1.22 -0.989,2.21 -2.211,2.21 z"
         id="path12131" /><path
         style="fill:#71c5f4"
         d="m 66.202,272.4 c -1.221,0 -2.211,-0.99 -2.211,-2.211 l 0,-13.092 -1.385,1.385 c -0.864,0.863 -2.264,0.863 -3.128,0 -0.863,-0.863 -0.863,-2.264 0,-3.128 l 5.16,-5.16 c 0.633,-0.633 1.583,-0.822 2.41,-0.48 0.827,0.342 1.365,1.149 1.365,2.044 l 0,18.432 c 0.001,1.22 -0.989,2.21 -2.211,2.21 z"
         id="path12133" /><path
         style="fill:#71c5f4"
         d="m 52.244,239.647 c -4.489,0 -8.14,-3.652 -8.14,-8.14 l 0,-6.576 c 0,-4.489 3.652,-8.14 8.14,-8.14 4.488,0 8.14,3.652 8.14,8.14 l 0,6.576 c 0,4.488 -3.651,8.14 -8.14,8.14 z m 0,-18.432 c -2.05,0 -3.716,1.667 -3.716,3.716 l 0,6.576 c 0,2.049 1.668,3.716 3.716,3.716 2.048,0 3.716,-1.667 3.716,-3.716 l 0,-6.576 c 0,-2.05 -1.667,-3.716 -3.716,-3.716 z"
         id="path12135" /><path
         style="fill:#71c5f4"
         d="m 74.842,239.647 c -4.489,0 -8.14,-3.652 -8.14,-8.14 l 0,-6.576 c 0,-4.489 3.652,-8.14 8.14,-8.14 4.488,0 8.14,3.652 8.14,8.14 l 0,6.576 c 0,4.488 -3.651,8.14 -8.14,8.14 z m 0,-18.432 c -2.05,0 -3.716,1.667 -3.716,3.716 l 0,6.576 c 0,2.049 1.668,3.716 3.716,3.716 2.049,0 3.716,-1.667 3.716,-3.716 l 0,-6.576 c 0,-2.05 -1.668,-3.716 -3.716,-3.716 z"
         id="path12137" /><path
         style="fill:#71c5f4"
         d="m 91.623,205.591 c -4.489,0 -8.14,-3.652 -8.14,-8.14 l 0,-6.576 c 0,-4.489 3.652,-8.14 8.14,-8.14 4.488,0 8.14,3.651 8.14,8.14 l 0,6.576 c 0,4.49 -3.651,8.14 -8.14,8.14 z m 0,-18.431 c -2.05,0 -3.716,1.667 -3.716,3.716 l 0,6.576 c 0,2.049 1.668,3.716 3.716,3.716 2.048,0 3.716,-1.667 3.716,-3.716 l 0,-6.576 c 0,-2.049 -1.668,-3.716 -3.716,-3.716 z"
         id="path12139" /><path
         style="fill:#71c5f4"
         d="m 70.166,57.269 c -2.996,0 -5.426,-2.43 -5.426,-5.426 l 0,-32.115 -3.398,3.398 c -2.12,2.118 -5.554,2.118 -7.673,0 -2.118,-2.118 -2.118,-5.554 0,-7.673 l 12.66,-12.66 c 1.552,-1.552 3.886,-2.017 5.913,-1.177 2.028,0.84 3.349,2.818 3.349,5.012 l 0,45.214 c 0.001,2.998 -2.429,5.427 -5.425,5.427 z"
         id="path12141" /><path
         style="fill:#71c5f4"
         d="m 103.924,57.269 c -11.009,0 -19.967,-8.957 -19.967,-19.967 l 0,-16.132 c 0,-11.009 8.957,-19.967 19.967,-19.967 11.01,0 19.967,8.957 19.967,19.967 l 0,16.132 c -0.001,11.01 -8.958,19.967 -19.967,19.967 z m 0,-45.214 c -5.025,0 -9.115,4.09 -9.115,9.115 l 0,16.132 c 0,5.027 4.09,9.115 9.115,9.115 5.025,0 9.115,-4.089 9.115,-9.115 l 0,-16.132 c 0,-5.025 -4.089,-9.115 -9.115,-9.115 z"
         id="path12143" /><path
         style="fill:#71c5f4"
         d="m 455.647,289.972 c -11.009,0 -19.968,-8.957 -19.968,-19.967 l 0,-16.132 c 0,-11.009 8.957,-19.967 19.968,-19.967 11.011,0 19.967,8.957 19.967,19.967 l 0,16.132 c -10e-4,11.01 -8.958,19.967 -19.967,19.967 z m 0,-45.214 c -5.027,0 -9.116,4.09 -9.116,9.115 l 0,16.132 c 0,5.027 4.09,9.115 9.116,9.115 5.025,0 9.115,-4.089 9.115,-9.115 l 0,-16.132 c 0,-5.025 -4.09,-9.115 -9.115,-9.115 z"
         id="path12145" /></g><path
       style="fill:#666666"
       d="m 442.39422,-177.83596 c 0,0 -53.232,-63.505 -121.777,-35.774 -34.194,13.83 -57.874,12.756 -75.562,5.016 -0.398,-0.193 -0.808,-0.374 -1.218,-0.567 -0.386,-0.169 -0.76,-0.35 -1.133,-0.531 -3.593,-1.736 -6.933,-3.762 -10.056,-5.98 -0.036,0.109 -0.084,0.217 -0.133,0.326 -13.504,34.664 -72.391,38.631 -72.391,38.631 0,0 -26.393,-42.116 -11.925,-74.67 11.466,-25.814 41.887,-53.136 93.66,-63.348 13.528,-2.677 28.515,-4.172 44.997,-4.172 79.578,0 155.538,53.051 155.538,141.069 z"
       id="path12147" /><path
       style="fill:#4d4d4d"
       d="m 241.85922,-314.73296 c 0,0 -73.371,35.36 -9.344,99.387 -13.504,34.664 -72.391,38.631 -72.391,38.631 0,0 -26.393,-42.116 -11.925,-74.67 11.467,-25.814 41.887,-53.136 93.66,-63.348 z"
       id="path12149" /><path
       style="fill:#fce8ca"
       d="m 488.59722,18.997042 0,113.421998 c 0,9.827 -7.958,17.784 -17.784,17.784 l -59.466,0 c -9.827,0 -17.784,-7.958 -17.784,-17.784 l 0,-113.421998 c 0,-9.8270004 7.958,-17.7840004 17.784,-17.7840004 l 59.466,0 c 9.826,0 17.784,7.957 17.784,17.7840004 z"
       id="path12151" /><path
       style="fill:#fcf3e6"
       d="m 488.59722,18.997042 0,113.421998 c 0,9.827 -7.958,17.784 -17.784,17.784 l -47.566,0 44.141,-148.9899984 3.424,0 c 9.827,0 17.785,7.957 17.785,17.7840004 z"
       id="path12153" /><g
       transform="translate(7.0432228,-318.90496)"
       id="g12155"><path
         style="fill:#666666"
         d="m 481.554,443.812 0,7.512 c 0,9.827 -7.958,17.784 -17.784,17.784 l -59.466,0 c -9.827,0 -17.784,-7.958 -17.784,-17.784 l 0,-7.512 95.034,0 z"
         id="path12157" /><path
         style="fill:#666666"
         d="m 481.554,337.902 0,7.512 -95.035,0 0,-7.512 c 0,-9.827 7.958,-17.784 17.784,-17.784 l 59.466,0 c 9.827,0 17.785,7.957 17.785,17.784 z"
         id="path12159" /></g><path
       style="fill:#999999"
       d="m 488.59722,124.90704 0,7.512 c 0,9.827 -7.958,17.784 -17.784,17.784 l -47.566,0 7.487,-25.296 57.863,0 z"
       id="path12161" /><path
       style="fill:#333333"
       d="m 455.65322,18.804042 -29.149,0 c -1.998,0 -3.617,-1.619 -3.617,-3.617 0,-1.998 1.619,-3.617 3.617,-3.617 l 29.149,0 c 1.998,0 3.617,1.619 3.617,3.617 0,1.998 -1.619,3.617 -3.617,3.617 z"
       id="path12163" /><g
       transform="translate(7.0432228,-318.90496)"
       id="g12165"><polygon
         style="fill:#fce8ca"
         points="233.018,489.586 203.179,459.747 233.018,429.908 242.397,439.286 221.937,459.747 242.397,480.208 "
         id="polygon12167" /><polygon
         style="fill:#fce8ca"
         points="311.125,489.586 301.745,480.208 322.206,459.747 301.745,439.286 311.125,429.908 340.964,459.747 "
         id="polygon12169" /><rect
         x="264.48901"
         y="430.38501"
         transform="matrix(-0.8994,-0.4372,0.4372,-0.8994,313.9542,991.7991)"
         style="fill:#fce8ca"
         width="13.263"
         height="58.764999"
         id="rect12171" /></g><path
       style="fill:#999999"
       d="m 488.59722,18.997042 0,7.512 -28.708,0 7.5,-25.2960004 3.424,0 c 9.826,0 17.784,7.957 17.784,17.7840004 z"
       id="path12173" /><circle
       style="fill:#666666"
       cx="441.07724"
       cy="136.36104"
       r="6.3299999"
       id="circle12175" /><path
       style="fill:#f2f2f2"
       d="m 326.31122,-46.448958 c 0,0 -0.687,1.688 -2.134,4.353 -0.35,0.687 -0.76,1.411 -1.218,2.194 -0.543,0.772 -1.17,1.555 -1.845,2.436 -0.675,0.88 -1.447,1.772 -2.267,2.761 -0.289,0.374 -0.603,0.687 -0.94,1.013 -0.121,0.121 -0.253,0.241 -0.386,0.362 -0.47,0.434 -0.953,0.892 -1.447,1.35 -0.989,0.928 -2.062,1.845 -3.183,2.809 -1.182,0.868 -2.448,1.688 -3.75,2.58 -0.651,0.446 -1.326,0.88 -2.014,1.314 -0.687,0.41 -1.423,0.748 -2.17,1.121 -1.471,0.748 -3.002,1.471 -4.582,2.194 -3.255,1.109 -6.643,2.411 -10.261,2.954 -3.569,0.832 -7.295,0.965 -11.008,1.145 -3.714,-0.181 -7.439,-0.301 -11.008,-1.133 -3.617,-0.543 -7.005,-1.845 -10.261,-2.954 -1.579,-0.711 -3.111,-1.435 -4.594,-2.182 -0.735,-0.374 -1.471,-0.711 -2.17,-1.121 -0.675,-0.446 -1.35,-0.868 -2.001,-1.314 -1.302,-0.892 -2.58,-1.724 -3.762,-2.58 -1.121,-0.965 -2.182,-1.893 -3.183,-2.809 -0.494,-0.47 -0.965,-0.916 -1.435,-1.362 -0.169,-0.157 -0.338,-0.313 -0.506,-0.47 -0.289,-0.289 -0.567,-0.567 -0.808,-0.892 -0.784,-0.953 -1.543,-1.833 -2.206,-2.701 -0.651,-0.88 -1.29,-1.652 -1.821,-2.423 -0.482,-0.82 -0.928,-1.567 -1.302,-2.255 -1.507,-2.749 -2.134,-4.389 -2.134,-4.389 0,0 1.784,0.543 4.533,1.652 0.699,0.265 1.423,0.591 2.231,0.916 0.856,0.253 1.736,0.579 2.677,0.892 0.953,0.313 1.905,0.699 2.918,1.061 1.001,0.386 2.134,0.639 3.255,0.977 1.121,0.326 2.243,0.723 3.412,1.073 1.218,0.265 2.436,0.579 3.689,0.88 0.627,0.145 1.242,0.326 1.869,0.494 0.639,0.145 1.302,0.229 1.953,0.362 1.314,0.229 2.628,0.494 3.943,0.796 2.737,0.253 5.438,0.856 8.259,0.965 2.785,0.362 5.631,0.265 8.452,0.434 2.833,-0.169 5.679,-0.06 8.464,-0.422 2.821,-0.096 5.522,-0.711 8.259,-0.965 1.314,-0.289 2.628,-0.555 3.943,-0.784 0.651,-0.133 1.314,-0.217 1.953,-0.362 0.627,-0.181 1.254,-0.35 1.869,-0.494 1.254,-0.301 2.472,-0.627 3.689,-0.88 1.182,-0.35 2.303,-0.748 3.424,-1.073 1.109,-0.338 2.267,-0.603 3.231,-0.977 0.989,-0.338 1.917,-0.711 2.858,-1.001 0.928,-0.313 1.797,-0.627 2.653,-0.88 0.844,-0.362 1.592,-0.711 2.303,-0.989 2.811,-1.17 4.559,-1.676 4.559,-1.676 z"
       id="path12177" /><path
       style="fill:#4d4d4d"
       d="m 317.90722,-33.692958 c -0.121,0.121 -0.253,0.241 -0.386,0.362 -0.47,0.434 -0.953,0.892 -1.447,1.35 -0.989,0.928 -2.062,1.845 -3.183,2.809 -1.182,0.868 -2.448,1.688 -3.75,2.58 -0.651,0.446 -1.326,0.88 -2.014,1.314 -0.687,0.41 -1.423,0.748 -2.17,1.121 -1.471,0.748 -3.002,1.471 -4.582,2.194 -3.255,1.109 -6.643,2.411 -10.261,2.954 -3.569,0.832 -7.295,0.965 -11.008,1.145 -3.714,-0.181 -7.439,-0.301 -11.008,-1.133 -3.617,-0.543 -7.005,-1.845 -10.261,-2.954 -1.579,-0.711 -3.111,-1.435 -4.594,-2.182 -0.735,-0.374 -1.471,-0.711 -2.17,-1.121 -0.675,-0.446 -1.35,-0.868 -2.001,-1.314 -1.302,-0.892 -2.58,-1.724 -3.762,-2.58 -1.121,-0.965 -2.182,-1.893 -3.183,-2.809 -0.494,-0.47 -0.965,-0.916 -1.435,-1.362 -0.169,-0.157 -0.338,-0.313 -0.506,-0.47 0.386,0.133 0.772,0.265 1.17,0.398 0.953,0.313 1.905,0.687 2.918,1.049 1.001,0.398 2.134,0.651 3.255,0.989 1.121,0.326 2.243,0.711 3.412,1.073 1.218,0.253 2.436,0.579 3.689,0.88 0.627,0.145 1.242,0.313 1.869,0.482 0.639,0.145 1.302,0.229 1.953,0.362 1.314,0.229 2.628,0.506 3.943,0.796 2.737,0.265 5.438,0.868 8.259,0.965 2.785,0.374 5.631,0.265 8.452,0.446 2.833,-0.169 5.679,-0.06 8.464,-0.434 2.821,-0.096 5.522,-0.699 8.259,-0.953 1.314,-0.289 2.628,-0.567 3.943,-0.796 0.651,-0.133 1.314,-0.217 1.953,-0.362 0.627,-0.169 1.254,-0.338 1.869,-0.482 1.254,-0.301 2.472,-0.627 3.689,-0.88 1.182,-0.362 2.303,-0.76 3.424,-1.073 1.109,-0.338 2.267,-0.615 3.231,-0.977 0.989,-0.35 1.917,-0.711 2.858,-1.013 0.376,-0.121 0.75,-0.253 1.111,-0.374 z"
       id="path12179" /><g
       transform="translate(7.0432228,-318.90496)"
       id="g12181"><path
         style="fill:#666666"
         d="m 305.067,164.923 c 0,0 0.024,-0.24 0.105,-0.652 0.093,-0.399 0.187,-1.03 0.389,-1.743 0.09,-0.369 0.207,-0.754 0.341,-1.177 0.175,-0.429 0.41,-0.861 0.66,-1.35 0.247,-0.492 0.559,-0.978 0.887,-1.524 0.33,-0.555 0.725,-0.975 1.129,-1.511 0.41,-0.515 0.872,-1.013 1.354,-1.548 0.51,-0.484 1.063,-0.96 1.652,-1.438 1.151,-1.014 2.559,-1.747 4.025,-2.562 1.517,-0.641 3.126,-1.337 4.851,-1.659 1.707,-0.444 3.498,-0.549 5.283,-0.632 1.786,0.082 3.577,0.177 5.286,0.619 1.725,0.318 3.336,1.018 4.854,1.654 1.467,0.814 2.876,1.546 4.028,2.561 0.587,0.48 1.142,0.957 1.653,1.438 0.482,0.537 0.942,1.039 1.354,1.551 0.398,0.533 0.811,0.971 1.114,1.504 0.304,0.531 0.598,1.006 0.837,1.487 0.238,0.482 0.468,0.907 0.641,1.335 0.158,0.446 0.298,0.85 0.402,1.232 0.229,0.739 0.324,1.375 0.412,1.772 0.077,0.411 0.094,0.645 0.094,0.645 0,0 -0.25,-0.006 -0.672,-0.047 -0.41,-0.053 -1.047,-0.08 -1.749,-0.182 -0.364,-0.037 -0.735,-0.105 -1.144,-0.159 -0.435,-0.021 -0.865,-0.081 -1.331,-0.117 -0.915,-0.096 -1.87,-0.24 -2.92,-0.281 -0.516,-0.034 -1.016,-0.109 -1.54,-0.152 -0.541,-0.007 -1.076,-0.035 -1.606,-0.075 -1.039,-0.135 -2.169,-0.055 -3.218,-0.187 -1.103,0.04 -2.159,-0.095 -3.253,-0.061 -1.076,-0.081 -2.163,0.005 -3.242,-0.071 -1.079,0.074 -2.167,-0.02 -3.245,0.058 -1.095,-0.039 -2.151,0.101 -3.257,0.057 -1.05,0.13 -2.182,0.049 -3.222,0.186 -0.531,0.04 -1.065,0.069 -1.607,0.075 -0.523,0.043 -1.021,0.123 -1.54,0.154 -1.071,0.058 -1.961,0.159 -2.854,0.236 -0.469,0.036 -0.908,0.07 -1.314,0.1 -0.433,0.078 -0.828,0.165 -1.204,0.215 -0.729,0.129 -1.367,0.159 -1.772,0.211 -0.418,0.038 -0.661,0.038 -0.661,0.038 z"
         id="path12183" /><path
         style="fill:#666666"
         d="m 197.718,164.923 c 0,0 0.024,-0.24 0.105,-0.652 0.093,-0.399 0.187,-1.03 0.389,-1.743 0.09,-0.369 0.207,-0.754 0.341,-1.177 0.175,-0.429 0.41,-0.861 0.66,-1.35 0.247,-0.492 0.559,-0.978 0.887,-1.524 0.33,-0.555 0.725,-0.975 1.129,-1.511 0.41,-0.515 0.872,-1.013 1.354,-1.548 0.51,-0.484 1.063,-0.96 1.652,-1.438 1.151,-1.014 2.559,-1.747 4.025,-2.562 1.517,-0.641 3.126,-1.337 4.851,-1.659 1.707,-0.444 3.498,-0.549 5.283,-0.632 1.786,0.082 3.577,0.177 5.286,0.619 1.725,0.318 3.336,1.018 4.854,1.654 1.467,0.814 2.876,1.546 4.028,2.561 0.587,0.48 1.142,0.957 1.653,1.438 0.482,0.537 0.942,1.039 1.354,1.551 0.398,0.533 0.811,0.971 1.114,1.504 0.304,0.531 0.598,1.006 0.837,1.487 0.238,0.482 0.468,0.907 0.641,1.335 0.158,0.446 0.298,0.85 0.401,1.232 0.229,0.739 0.324,1.375 0.412,1.772 0.077,0.411 0.094,0.645 0.094,0.645 0,0 -0.25,-0.006 -0.672,-0.047 -0.41,-0.053 -1.047,-0.08 -1.749,-0.182 -0.364,-0.037 -0.735,-0.105 -1.144,-0.159 -0.435,-0.021 -0.864,-0.081 -1.331,-0.117 -0.915,-0.096 -1.87,-0.24 -2.92,-0.281 -0.516,-0.034 -1.016,-0.109 -1.54,-0.152 -0.541,-0.007 -1.076,-0.035 -1.606,-0.075 -1.039,-0.135 -2.169,-0.055 -3.218,-0.187 -1.103,0.04 -2.159,-0.095 -3.253,-0.061 -1.076,-0.081 -2.163,0.005 -3.242,-0.071 -1.079,0.074 -2.167,-0.02 -3.245,0.058 -1.095,-0.039 -2.151,0.101 -3.257,0.057 -1.05,0.13 -2.182,0.049 -3.222,0.186 -0.531,0.04 -1.065,0.069 -1.607,0.075 -0.523,0.043 -1.021,0.123 -1.54,0.154 -1.071,0.058 -1.96,0.159 -2.854,0.236 -0.469,0.036 -0.908,0.07 -1.314,0.1 -0.433,0.078 -0.828,0.165 -1.205,0.215 -0.729,0.129 -1.367,0.159 -1.772,0.211 -0.417,0.038 -0.659,0.038 -0.659,0.038 z"
         id="path12185" /><circle
         style="fill:#666666"
         cx="326.629"
         cy="209.783"
         r="7.434"
         id="circle12187" /><circle
         style="fill:#666666"
         cx="217.51199"
         cy="209.783"
         r="7.434"
         id="circle12189" /></g><g
       transform="translate(7.0432228,-318.90496)"
       id="g12191" /><g
       transform="translate(7.0432228,-318.90496)"
       id="g12193" /><g
       transform="translate(7.0432228,-318.90496)"
       id="g12195" /><g
       transform="translate(7.0432228,-318.90496)"
       id="g12197" /><g
       transform="translate(7.0432228,-318.90496)"
       id="g12199" /><g
       transform="translate(7.0432228,-318.90496)"
       id="g12201" /><g
       transform="translate(7.0432228,-318.90496)"
       id="g12203" /><g
       transform="translate(7.0432228,-318.90496)"
       id="g12205" /><g
       transform="translate(7.0432228,-318.90496)"
       id="g12207" /><g
       transform="translate(7.0432228,-318.90496)"
       id="g12209" /><g
       transform="translate(7.0432228,-318.90496)"
       id="g12211" /><g
       transform="translate(7.0432228,-318.90496)"
       id="g12213" /><g
       transform="translate(7.0432228,-318.90496)"
       id="g12215" /><g
       transform="translate(7.0432228,-318.90496)"
       id="g12217" /><g
       transform="translate(7.0432228,-318.90496)"
       id="g12219" /></g><g
     transform="matrix(0.12594395,0,0,0.12594395,319.31931,111.75065)"
     id="g14225"><path
       style="fill:#694b4b"
       d="m -185.45667,36.59512 c -82.142,0 -73.034,99.89 -72.659,172.277 0.014,2.734 1.446,5.198 3.788,6.61 9.102,5.487 34.1,18.316 68.871,18.316 34.771,0 59.769,-12.829 68.871,-18.316 2.341,-1.412 3.774,-3.876 3.788,-6.61 0.375,-72.387 9.483,-172.277 -72.659,-172.277 z"
       id="path13347" /><path
       style="fill:#5a4146"
       d="m -190.74867,36.80112 c -76.395,4.283 -67.733,101.295 -67.367,172.071 0.014,2.734 1.446,5.199 3.788,6.61 9.102,5.487 34.1,18.316 68.871,18.316 l 20.759,-145.308"
       id="path13349" /><path
       style="fill:#694b4b"
       d="m -185.45667,36.59512 c -46.706,0 -49.949,56.436 -49.949,56.436 26.921,-4.541 43.463,6.811 70.708,-4.541 l -20.759,145.308 c 34.772,0 59.769,-12.829 68.871,-18.316 2.341,-1.412 3.774,-3.876 3.788,-6.61 0.375,-72.387 9.483,-172.277 -72.659,-172.277 z"
       id="path13351" /><path
       style="fill:#785550"
       d="m -112.79767,208.87212 c 0.322,-62.201 7.037,-144.651 -43.183,-166.639 -0.876,4.55 -2.463,17.253 1.661,25.498 10.379,20.759 20.759,20.759 31.137,36.327 10.379,57.085 -19.831,117.674 -29.865,125.923 l 0,0 c 17.778,-4.228 30.522,-10.919 36.462,-14.499 2.341,-1.411 3.774,-3.876 3.788,-6.61 z"
       id="path13353" /><path
       style="fill:#e6af78"
       d="m -106.81467,224.61612 -46.307,-19.294 c -3.867,-1.611 -6.387,-5.39 -6.387,-9.581 l 0,-12.541 -51.895,0 0,12.541 c 0,4.191 -2.52,7.97 -6.387,9.581 l -46.307,19.294 c -5.802,2.418 -9.581,8.087 -9.581,14.372 l 0,20.759 c 0,5.732 4.647,10.379 10.379,10.379 l 155.686,0 c 5.732,0 10.379,-4.647 10.379,-10.379 l 0,-20.759 c 10e-4,-6.285 -3.778,-11.954 -9.58,-14.372 z"
       id="path13355" /><path
       style="fill:#eff2fa"
       d="m -106.81467,224.61612 -44.773,-18.656 -33.869,14.618 -33.869,-14.617 -44.772,18.656 c -5.802,2.417 -9.581,8.086 -9.581,14.371 l 0,20.759 c 0,5.732 4.647,10.379 10.379,10.379 l 155.686,0 c 5.732,0 10.379,-4.647 10.379,-10.379 l 0,-20.759 c 10e-4,-6.285 -3.778,-11.954 -9.58,-14.372 z"
       id="path13357" /><path
       style="fill:#d29b6e"
       d="m -159.50867,183.20012 -51.895,0 0,12.541 c 0,4.191 -2.52,7.97 -6.387,9.581 l -7.232,3.014 c 55.345,14.112 65.514,-25.136 65.514,-25.136 z"
       id="path13359" /><g
       transform="translate(-273.67867,-123.03688)"
       id="g13361"><path
         style="fill:#e4eaf6"
         d="M 25.294,367.729 4.464,351.16 C 1.673,354.014 0,357.874 0,362.025 l 0,20.759 c 0,5.732 4.647,10.379 10.379,10.379 l 20.759,0 0,-13.276 c -0.001,-4.73 -2.15,-9.203 -5.844,-12.158 z"
         id="path13363" /><path
         style="fill:#e4eaf6"
         d="m 176.445,382.783 0,-20.759 c 0,-4.119 -1.645,-7.952 -4.397,-10.8 l -20.898,16.504 c -3.693,2.954 -5.843,7.427 -5.843,12.157 l 0,13.275 20.759,0 c 5.732,0.002 10.379,-4.645 10.379,-10.377 z"
         id="path13365" /><path
         style="fill:#e4eaf6"
         d="m 89.001,382.783 -1.557,0 c -2.436,0 -4.411,-1.975 -4.411,-4.411 l 0,-34.745 10.379,0 0,34.744 c 0,2.437 -1.975,4.412 -4.411,4.412 z"
         id="path13367" /><path
         style="fill:#e4eaf6"
         d="M 88.222,343.616 58.52,321.34 c -1.907,-1.43 -4.623,-0.965 -5.945,1.018 l -5.869,8.803 18.21,25.494 c 1.384,1.938 4.112,2.317 5.972,0.829 l 17.334,-13.868 z"
         id="path13369" /><path
         style="fill:#e4eaf6"
         d="m 88.222,343.616 29.702,-22.276 c 1.907,-1.43 4.623,-0.965 5.945,1.018 l 5.869,8.803 -18.21,25.494 c -1.384,1.938 -4.112,2.317 -5.972,0.829 L 88.222,343.616 Z"
         id="path13371" /></g><path
       style="fill:#f0c087"
       d="m -159.50867,83.30212 c -25.948,25.947 -76.87,5.188 -76.87,46.704 l 3.222,30.581 c 0.622,6.841 4.588,12.931 10.591,16.267 l 29.548,16.415 c 4.702,2.612 10.419,2.612 15.121,0 l 29.548,-16.415 c 6.005,-3.336 9.97,-9.427 10.591,-16.267 l 3.72,-36.32 c 0.265,-2.582 0.321,-5.179 0.234,-7.769 -1.94,-13.21 -20.516,-22.818 -25.705,-33.196 z"
       id="path13373" /><path
       style="fill:#e6af78"
       d="m -236.37867,130.00612 3.222,30.581 c 0.622,6.841 4.588,12.931 10.591,16.267 l 29.548,16.415 c 3.263,1.813 7.005,2.282 10.567,1.579 l 0,0 c 0,0 -14.897,-4.515 -23.764,-28.516 -2.716,-7.352 -6.487,-46.274 -3.243,-51.031 6.412,-9.402 42.165,-10.379 52.729,-27.822 -0.522,-0.647 -1.004,-1.296 -1.444,-1.945 -0.035,-0.052 -0.078,-0.105 -0.114,-0.158 -0.459,-0.69 -0.875,-1.382 -1.223,-2.077 -25.947,25.95 -76.869,5.191 -76.869,46.707 z"
       id="path13375" /><path
       style="fill:#e4eaf6"
       d="m -147.57267,259.74612 -13.493,0 c -4.872,0 -8.822,3.95 -8.822,8.822 l 0,1.557 31.137,0 0,-1.557 c 0,-4.873 -3.95,-8.822 -8.822,-8.822 z"
       id="path13377" /><polygon
       transform="translate(-273.67867,-123.03688)"
       style="fill:#e6af78"
       points="369.487,295.022 369.487,323.524 406.133,356.099 442.78,323.524 442.78,295.022 "
       id="polygon13379" /><path
       style="fill:#eff2fa"
       d="m 225.76433,213.82012 -50.385,-11.855 c -0.761,-0.179 -1.461,-0.483 -2.115,-0.851 l -40.81,23.806 -39.218,-24.957 c -1.016,0.956 -2.275,1.666 -3.706,2.003 l -50.385,11.855 c -7.358,1.731 -12.557,8.296 -12.557,15.855 l 0,31.89 c 0,4.497 3.646,8.144 8.144,8.144 l 195.447,0 c 4.497,0 8.144,-3.646 8.144,-8.144 l 0,-31.89 c -0.002,-7.56 -5.202,-14.125 -12.559,-15.856 z"
       id="path13381" /><path
       style="fill:#d29b6e"
       d="m 95.80833,171.98512 0,30.073 c 46.165,16.632 73.293,-24.995 73.293,-24.995 l 0,-5.078 -73.293,0 0,0 z"
       id="path13383" /><path
       style="fill:#f0c087"
       d="m 79.52133,78.33312 3.549,78.063 c 0.332,7.293 3.907,14.055 9.747,18.435 l 16.836,12.627 c 4.229,3.172 9.373,4.886 14.658,4.886 l 16.287,0 c 5.286,0 10.43,-1.715 14.658,-4.886 l 16.836,-12.627 c 5.84,-4.38 9.416,-11.143 9.747,-18.435 l 3.549,-78.063 -105.867,0 0,0 z"
       id="path13385" /><path
       style="fill:#e6af78"
       d="m 120.23933,94.62012 c 16.287,0 40.718,-4.071 46.513,-16.287 l -87.231,0 3.548,78.063 c 0.332,7.293 3.907,14.055 9.747,18.435 l 16.836,12.627 c 4.229,3.172 9.373,4.886 14.658,4.886 l 8.144,0 c -8.144,0 -24.431,-16.287 -24.431,-36.647 0,-9.957 0,-36.646 0,-48.862 0,-4.071 4.072,-12.215 12.216,-12.215 z"
       id="path13387" /><path
       style="fill:#e4eaf6"
       d="m 208.42833,243.28212 26.385,-23.702 c 2.211,2.8 3.508,6.322 3.508,10.094 l 0,31.89 c 0,4.497 -3.646,8.144 -8.144,8.144 l -28.502,0 0,-11.28 c 0,-5.778 2.454,-11.284 6.753,-15.146 z"
       id="path13389" /><polygon
       transform="translate(-273.67867,-123.03688)"
       style="fill:#5b5d6e"
       points="398.499,356.099 413.768,356.099 416.313,392.745 395.953,392.745 "
       id="polygon13391" /><path
       style="fill:#515262"
       d="m 142.63433,224.91812 -20.36,0 0,2.352 c 0,5.448 4.416,9.863 9.863,9.863 l 0.632,0 c 5.448,0 9.863,-4.416 9.863,-9.863 l 0,-2.352 0.002,0 z"
       id="path13393" /><g
       transform="translate(-273.67867,-123.03688)"
       id="g13395"><path
         style="fill:#e4eaf6"
         d="m 368.914,314.46 37.218,33.496 c 0,0 -10.423,5.261 -23.286,15.867 -2.653,2.188 -6.667,1.301 -8.09,-1.829 l -17.486,-38.468 5.532,-8.297 c 1.378,-2.067 4.267,-2.43 6.112,-0.769 z"
         id="path13397" /><path
         style="fill:#e4eaf6"
         d="m 443.351,314.46 -37.218,33.496 c 0,0 10.423,5.261 23.286,15.867 2.653,2.188 6.667,1.301 8.09,-1.829 l 17.486,-38.468 -5.532,-8.297 c -1.377,-2.067 -4.266,-2.43 -6.112,-0.769 z"
         id="path13399" /></g><path
       style="fill:#785550"
       d="m 157.13933,51.35712 3.818,26.976 c 17.425,3.485 19.936,30.83 20.298,38.641 0.066,1.417 0.518,2.787 1.287,3.979 l 6.649,10.313 c 0,0 -2.276,-17.051 8.144,-28.502 -0.001,0 3.576,-67.694 -40.196,-51.407 z"
       id="path13401" /><path
       style="fill:#f0c087"
       d="m 193.27533,129.52512 -4.599,18.393 c -0.545,2.179 -2.503,3.708 -4.749,3.708 l 0,0 c -2.469,0 -4.551,-1.838 -4.858,-4.288 l -2.351,-18.812 c -0.629,-5.031 3.294,-9.474 8.363,-9.474 l 0.017,0 c 5.484,-0.001 9.507,5.153 8.177,10.473 z"
       id="path13403" /><path
       style="fill:#694b4b"
       d="m 83.42233,44.06212 6.023,4.114 c -27.23,20.105 -22.141,54.588 -22.141,54.588 8.144,8.144 8.144,28.502 8.144,28.502 l 8.144,-8.144 c 0,0 -3.143,-23.525 12.216,-32.574 14.251,-8.398 26.721,-4.071 39.445,-4.071 34.101,0 43.645,-12.852 41.991,-28.502 -0.856,-8.099 -13.238,-24.967 -44.789,-24.431 -12.735,0.216 -36.647,4.072 -49.033,10.518 z"
       id="path13405" /><path
       style="fill:#5a4146"
       d="m 81.04733,82.91412 c 0,0 -4.326,-17.051 8.398,-34.738 -27.23,20.105 -22.141,54.588 -22.141,54.588 8.144,8.144 8.144,28.502 8.144,28.502 l 8.144,-8.144 c 0,0 -3.143,-23.525 12.215,-32.574 14.251,-8.398 26.721,-4.071 39.445,-4.071 5.546,0 10.379,-0.372 14.684,-1.008 -26.262,0.881 -41.743,-19.011 -68.889,-2.555 z"
       id="path13407" /><path
       style="fill:#e6af78"
       d="m 71.63233,129.52512 4.599,18.393 c 0.545,2.179 2.503,3.708 4.75,3.708 l 0,0 c 2.469,0 4.551,-1.838 4.858,-4.288 l 2.351,-18.812 c 0.629,-5.031 -3.294,-9.474 -8.364,-9.474 l -0.017,0 c -5.482,-0.001 -9.507,5.153 -8.177,10.473 z"
       id="path13409" /><path
       style="fill:#e4eaf6"
       d="m 181.31633,261.56512 -20.36,0 c -4.497,0 -8.144,3.646 -8.144,8.144 l 0,0 36.646,0 0,0 c 0.001,-4.498 -3.645,-8.144 -8.142,-8.144 z"
       id="path13411" /><path
       style="fill:#694b4b"
       d="m -17.52367,-65.53688 c -139.642,0 -124.158,169.814 -123.52,292.871 0.024,4.647 2.458,8.838 6.439,11.237 15.474,9.328 57.97,31.137 117.081,31.137 59.111,0 101.607,-21.809 117.081,-31.137 3.98,-2.4 6.415,-6.59 6.439,-11.237 0.638,-123.058 16.122,-292.871 -123.52,-292.871 z"
       id="path13413" /><path
       style="fill:#5a4146"
       d="m -26.52167,-65.18788 c -129.871,7.281 -115.146,172.202 -114.522,292.521 0.024,4.647 2.458,8.838 6.439,11.237 15.474,9.328 57.97,31.137 117.081,31.137 l 35.289,-247.023"
       id="path13415" /><path
       style="fill:#694b4b"
       d="m -17.52367,-65.53688 c -79.4,0 -84.914,95.942 -84.914,95.942 45.765,-7.719 73.886,11.579 120.203,-7.719 l -35.289,247.023 c 59.111,0 101.607,-21.809 117.081,-31.137 3.98,-2.4 6.415,-6.59 6.439,-11.237 0.638,-123.059 16.122,-292.872 -123.52,-292.872 z"
       id="path13417" /><path
       style="fill:#785550"
       d="m 105.99633,227.33512 c 0.548,-105.742 11.962,-245.906 -73.41,-283.286 -1.489,7.736 -4.185,29.331 2.823,43.348 17.645,35.289 35.289,35.289 52.933,61.756 17.644,97.045 -33.714,200.047 -50.771,214.068 l 0,0 c 30.222,-7.188 51.887,-18.562 61.985,-24.649 3.981,-2.4 6.416,-6.59 6.44,-11.237 z"
       id="path13419" /><path
       style="fill:#e6af78"
       d="m 116.16733,254.10012 -78.722,-32.801 c -6.575,-2.739 -10.858,-9.164 -10.858,-16.288 l 0,-21.32 -88.222,0 0,21.32 c 0,7.123 -4.283,13.548 -10.858,16.288 l -78.722,32.801 c -9.862,4.109 -16.287,13.746 -16.287,24.431 l 0,35.289 c 0,9.744 7.9,17.645 17.644,17.645 l 264.667,0 c 9.744,0 17.644,-7.9 17.644,-17.645 l 0,-35.289 c 0.001,-10.686 -6.424,-20.322 -16.286,-24.431 z"
       id="path13421" /><path
       style="fill:#b4e1fa"
       d="m 116.16733,254.10012 -76.114,-31.714 -57.577,24.849 -57.577,-24.849 -76.114,31.714 c -9.862,4.109 -16.287,13.746 -16.287,24.431 l 0,35.289 c 0,9.744 7.9,17.645 17.644,17.645 l 264.667,0 c 9.744,0 17.644,-7.9 17.644,-17.645 l 0,-35.289 c 0.001,-10.686 -6.424,-20.322 -16.286,-24.431 z"
       id="path13423" /><path
       style="fill:#d29b6e"
       d="m 26.58733,183.69112 -88.222,0 0,21.32 c 0,7.123 -4.283,13.548 -10.858,16.288 l -12.295,5.124 c 94.0870005,23.989 111.375,-42.732 111.375,-42.732 z"
       id="path13425" /><g
       transform="translate(-273.67867,-123.03688)"
       id="g13427"><path
         style="fill:#a0d2f0"
         d="m 149.178,411.265 -35.411,-28.167 c -4.744,4.852 -7.588,11.413 -7.588,18.469 l 0,35.289 c 0,9.744 7.9,17.644 17.644,17.644 l 35.289,0 0,-22.568 c -0.002,-8.04 -3.656,-15.644 -9.934,-20.667 z"
         id="path13429" /><path
         style="fill:#a0d2f0"
         d="m 406.133,436.856 0,-35.289 c 0,-7.002 -2.797,-13.518 -7.475,-18.359 l -35.526,28.057 c -6.278,5.023 -9.933,12.627 -9.933,20.667 l 0,22.568 35.289,0 c 9.745,10e-4 17.645,-7.899 17.645,-17.644 z"
         id="path13431" /><path
         style="fill:#a0d2f0"
         d="m 256.155,436.856 0,0 c -4.872,0 -8.822,-3.95 -8.822,-8.822 l 0,-57.742 17.644,0 0,57.743 c 0,4.872 -3.95,8.821 -8.822,8.821 z"
         id="path13433" /><path
         style="fill:#a0d2f0"
         d="m 256.155,370.272 -50.494,-37.871 c -3.241,-2.431 -7.86,-1.64 -10.107,1.731 l -9.977,14.966 30.957,43.339 c 2.353,3.295 6.991,3.938 10.152,1.409 l 29.469,-23.574 z"
         id="path13435" /><path
         style="fill:#a0d2f0"
         d="m 256.155,370.272 50.494,-37.871 c 3.241,-2.431 7.86,-1.64 10.107,1.731 l 9.977,14.966 -30.957,43.339 c -2.353,3.295 -6.991,3.938 -10.152,1.409 l -29.469,-23.574 z"
         id="path13437" /></g><path
       style="fill:#f0c087"
       d="m 26.58733,13.86312 c -44.111,44.111 -130.679,8.822 -130.679,79.4 l 5.479,51.989 c 1.056,11.629 7.799,21.983 18.006,27.653 l 50.231,27.906 c 7.994,4.441 17.713,4.441 25.7070005,0 l 50.2309995,-27.906 c 10.207,-5.672 16.949,-16.025 18.006,-27.653 l 6.324,-61.745 c 0.45,-4.388 0.546,-8.803 0.397,-13.208 -3.303,-22.457 -34.88,-38.792 -43.702,-56.436 z"
       id="path13439" /><path
       style="fill:#e6af78"
       d="m -104.09167,93.26312 5.479,51.989 c 1.056,11.629 7.799,21.983 18.006,27.653 l 50.231,27.906 c 5.547,3.081 11.908,3.88 17.963,2.685 l 0,0 c 0,0 -25.326,-7.674 -40.398,-48.477 -4.617,-12.5 -11.028,-78.665 -5.514,-86.752 10.899,-15.985 71.681,-17.645 89.641,-47.298 -0.888,-1.101 -1.707,-2.203 -2.455,-3.308 -0.061,-0.089 -0.133,-0.179 -0.193,-0.268 -0.78,-1.172 -1.488,-2.348 -2.079,-3.53 -44.113,44.111 -130.681,8.822 -130.681,79.4 z"
       id="path13441" /><path
       style="fill:#a0d2f0"
       d="m 53.05433,313.81912 -35.289,0 c -4.872,0 -8.8219995,3.95 -8.8219995,8.822 l 0,8.822 52.9329995,0 0,-8.822 c 0,-4.872 -3.95,-8.822 -8.822,-8.822 z"
       id="path13443" /><g
       transform="translate(-273.67867,-123.03688)"
       id="g13445" /><g
       transform="translate(-273.67867,-123.03688)"
       id="g13447" /><g
       transform="translate(-273.67867,-123.03688)"
       id="g13449" /><g
       transform="translate(-273.67867,-123.03688)"
       id="g13451" /><g
       transform="translate(-273.67867,-123.03688)"
       id="g13453" /><g
       transform="translate(-273.67867,-123.03688)"
       id="g13455" /><g
       transform="translate(-273.67867,-123.03688)"
       id="g13457" /><g
       transform="translate(-273.67867,-123.03688)"
       id="g13459" /><g
       transform="translate(-273.67867,-123.03688)"
       id="g13461" /><g
       transform="translate(-273.67867,-123.03688)"
       id="g13463" /><g
       transform="translate(-273.67867,-123.03688)"
       id="g13465" /><g
       transform="translate(-273.67867,-123.03688)"
       id="g13467" /><g
       transform="translate(-273.67867,-123.03688)"
       id="g13469" /><g
       transform="translate(-273.67867,-123.03688)"
       id="g13471" /><g
       transform="translate(-273.67867,-123.03688)"
       id="g13473" /></g><text
     id="text10978-1-0"
     y="145.8083"
     x="147.72089"
     style="font-style:normal;font-variant:normal;font-weight:bold;font-stretch:semi-condensed;font-size:7.5px;line-height:100%;font-family:'DejaVu Sans';-inkscape-font-specification:'DejaVu Sans, Bold Semi-Condensed';text-align:start;letter-spacing:0px;word-spacing:0px;writing-mode:lr-tb;text-anchor:start;fill:#000000;fill-opacity:1;stroke:none;stroke-width:1px;stroke-linecap:butt;stroke-linejoin:miter;stroke-opacity:1"
     xml:space="preserve"><tspan
       y="145.8083"
       x="147.72089"
       id="tspan11326">Feedback</tspan></text>
<g
     transform="matrix(-0.17700201,0,0,0.17700201,177.17053,48.968005)"
     id="g15162"><path
       style="fill:#ef7954"
       d="m 182.45614,-56.524239 -8.135,0 0,-11.756 8.135,0 c 17.53,0 31.792,-14.262 31.792,-31.792001 0,-17.53 -14.262,-31.792 -31.792,-31.792 l -125.835004,0 c -18.267,0 -33.129,-14.862 -33.129,-33.129 0,-18.267 14.862,-33.129 33.129,-33.129 l 9.617,0 c 12.669,0 22.976,-10.307 22.976,-22.976 l 11.756004,0 c 0,19.151 -15.581004,34.732 -34.732004,34.732 l -9.617,0 c -11.785,0 -21.373,9.588 -21.373,21.373 0,11.785 9.588,21.373 21.373,21.373 l 125.835004,0 c 24.013,0 43.548,19.536 43.548,43.548 0,24.012001 -19.535,43.548001 -43.548,43.548001 z"
       id="path14429" /><rect
       x="103.57915"
       y="-41.563248"
       style="fill:#b3b3b3"
       width="28.561001"
       height="48.814999"
       id="rect14431" /><rect
       x="103.57915"
       y="-13.772234"
       style="fill:#999999"
       width="14.174"
       height="45.946999"
       id="rect14433" /><path
       style="fill:#cccccc"
       d="m 157.41014,32.173761 c 0,4.072 -1.208,7.919 -3.612,11.318 -3.773,5.365 -10.516,9.597 -20.135,11.841 -2.073,0.481 -4.275,0.876 -6.615,1.165 -3.163,0.395 -6.573,0.598 -10.228,0.598 -5.995,0 -11.499,-2.116 -15.796,-5.643 -5.568004,-4.574 -9.116004,-11.51 -9.116004,-19.28 0,-0.192 0,-0.385 0.011,-0.566 0.011,-0.705 0.053,-1.411 0.128,-2.095 1.336,-12.515 11.905004,-22.2609997 24.773004,-22.2609997 3.762,0 7.235,0.192 10.431,0.556 3.537,0.395 6.744,1.015 9.608,1.806 13.744,3.8149997 20.006,11.8519997 20.519,21.2779997 0.021,0.428 0.032,0.856 0.032,1.283 z"
       id="path14435" /><polygon
       transform="translate(-197.71986,-280.83624)"
       style="fill:#999999"
       points="268.683,354.133 285.242,419.54 267.43,419.54 243.522,345.958 312.405,295.911 381.288,345.958 375.191,419.54 337.023,412.926 356.126,354.133 312.405,322.368 "
       id="polygon14437" /><polygon
       transform="translate(-197.71986,-280.83624)"
       style="fill:#cccccc"
       points="286.495,354.133 305.598,412.926 285.242,419.54 261.333,345.958 330.216,295.911 399.099,345.958 375.191,419.54 354.835,412.926 373.938,354.133 330.216,322.368 "
       id="polygon14439" /><path
       style="fill:#808080"
       d="m -109.44086,-13.772239 168.085996,0 c 24.852,0 44.998004,-20.146 44.998004,-44.998 l 0,-6.184 c 0,-24.852 -20.146004,-44.998001 -44.998004,-44.998001 l -168.085996,0 c -24.852,0 -44.998,20.146001 -44.998,44.998001 l 0,6.184 c 0,24.851 20.146,44.998 44.998,44.998 z"
       id="path14441" /><path
       style="fill:#999999"
       d="m -27.006864,-13.772239 168.086004,0 c 24.852,0 44.998,-20.146 44.998,-44.998 l 0,-6.184 c 0,-24.852 -20.146,-44.998001 -44.998,-44.998001 l -168.086004,0 c -24.852,0 -44.998,20.146001 -44.998,44.998001 l 0,6.184 c 0,24.851 20.146,44.998 44.998,44.998 z"
       id="path14443" /><path
       style="fill:#cccccc"
       d="m -23.915864,-41.559239 c -11.194,0 -20.302,-9.108 -20.302,-20.303 0,-11.195 9.108,-20.303 20.302,-20.303 l 161.903004,0 c 11.194,0 20.302,9.108 20.302,20.303 0,11.195 -9.108,20.303 -20.302,20.303 l -161.903004,0 z"
       id="path14445" /><rect
       x="-125.58486"
       y="-255.56224"
       style="fill:#cccccc"
       width="286.12201"
       height="34.464001"
       id="rect14447" /><rect
       x="-197.71986"
       y="-255.56224"
       style="fill:#b3b3b3"
       width="72.135002"
       height="34.464001"
       id="rect14449" /><rect
       x="-166.99286"
       y="-221.09824"
       style="fill:#999999"
       width="107.131"
       height="166.711"
       id="rect14451" /><path
       style="fill:#b3b3b3"
       d="m 12.272136,-276.65224 -72.135,0 0,222.265001 45.602,0 c 14.65399963,0 26.533,-11.879 26.533,-26.533 l 0,-195.732001 z"
       id="path14453" /><path
       style="fill:#74a3af"
       d="m -41.689864,31.640761 -37.949,0 c -25.040996,0 -45.412996,-20.372 -45.412996,-45.413 l 0,-40.615 11.756,0 0,40.615 c 0,18.5590003 15.098996,33.657 33.656996,33.657 l 37.949,0 c 18.558,0 33.6569996,-15.0979997 33.6569996,-33.657 l 11.756,0 c 0,25.041 -20.3719996,45.413 -45.4129996,45.413 z"
       id="path14455" /><rect
       x="-91.922867"
       y="-276.65225"
       style="fill:#999999"
       width="32.060001"
       height="21.089001"
       id="rect14457" /><rect
       x="-166.99286"
       y="-276.65225"
       style="fill:#999999"
       width="32.060001"
       height="21.089001"
       id="rect14459" /><rect
       x="-134.93387"
       y="-276.65225"
       style="fill:#b3b3b3"
       width="32.060001"
       height="21.089001"
       id="rect14461" /><rect
       x="-73.827866"
       y="-276.65225"
       style="fill:#999999"
       width="13.965"
       height="69.280998"
       id="rect14463" /><path
       style="fill:#808080"
       d="m -3.2928644,-89.103239 c 0,9.052 -7.3309996,16.394 -16.3829996,16.394 -1.475,0 -2.918,-0.192 -4.275,-0.566 -6.979,-1.881 -12.119,-8.261 -12.119,-15.828 0,-7.566 5.14,-13.936001 12.119,-15.817001 1.357,-0.374 2.8,-0.566 4.275,-0.566 9.052,-0.001 16.3829996,7.331001 16.3829996,16.383001 z"
       id="path14465" /><path
       style="fill:#999999"
       d="m -11.841864,-89.103239 c 0,7.567 -5.13,13.947 -12.109,15.828 -6.979,-1.881 -12.119,-8.261 -12.119,-15.828 0,-7.566 5.14,-13.936001 12.119,-15.817001 6.979,1.881 12.109,8.250001 12.109,15.817001 z"
       id="path14467" /><rect
       x="-151.90187"
       y="-206.65823"
       style="fill:#808080"
       width="76.946999"
       height="123.971"
       id="rect14469" /><rect
       x="-151.90187"
       y="-206.65823"
       style="fill:#b3b3b3"
       width="18.938"
       height="123.971"
       id="rect14471" /><rect
       x="-132.96286"
       y="-189.20323"
       style="fill:#ef7954"
       width="58.008999"
       height="10.687"
       id="rect14473" /><rect
       x="-132.96286"
       y="-122.23024"
       style="fill:#ef7954"
       width="58.008999"
       height="10.687"
       id="rect14475" /><path
       style="fill:#74a3af"
       d="m -112.65786,-82.688239 -10.687,0 0,-49.873001 c 0,-11.589 9.428,-21.018 21.017,-21.018 5.695996,0 10.330996,-4.634 10.330996,-10.331 l 0,-42.749 10.687,0 0,42.749 c 0,11.589 -9.428,21.018 -21.017996,21.018 -5.696,0 -10.33,4.634 -10.33,10.331 l 0,49.873001 z"
       id="path14477" /><path
       style="fill:#cccccc"
       d="m 138.85714,8.0747613 -1.998,1.539 -14.406,11.1039997 -14.876,11.457 -15.667004,0 0.032,-0.577 0.107,-2.084 c 1.336,-12.515 11.905004,-22.2609997 24.773004,-22.2609997 3.762,0 13.883,0 15.678,0 2.2,-0.001 4.326,0.288 6.357,0.822 z"
       id="path14479" /><path
       style="fill:#808080"
       d="m 157.41014,32.173761 c 0,4.264 -1.069,8.283 -2.96,11.799 -3.708,6.893 -10.57,11.841 -18.66,12.899 -1.069,0.15 -2.17,0.224 -3.292,0.224 -1.87,0 -3.698,-0.203 -5.451,-0.598 -6.989,-1.56 -12.867,-6.049 -16.277,-12.119 -2.041,-3.602 -3.195,-7.77 -3.195,-12.205 0,-6.295 2.34,-12.044 6.199,-16.437 3.452,-3.944 8.154,-6.7859997 13.476,-7.9299997 1.689,-0.363 3.452,-0.556 5.247,-0.556 2.201,0 4.328,0.289 6.359,0.823 10.281,2.7039997 17.965,11.8199997 18.521,22.8169997 0.022,0.428 0.033,0.856 0.033,1.283 z"
       id="path14481" /><path
       style="fill:#cccccc"
       d="m 142.54414,32.173761 c 0,5.547 -4.499,10.046 -10.046,10.046 -1.614,0 -3.131,-0.374 -4.478,-1.058 -3.302,-1.646 -5.568,-5.055 -5.568,-8.988 0,-3.933 2.266,-7.342 5.568,-8.988 1.347,-0.684 2.864,-1.058 4.478,-1.058 5.547,0.001 10.046,4.5 10.046,10.046 z"
       id="path14483" /><path
       style="fill:#999999"
       d="m 133.57814,32.173761 c 0,3.933 -2.266,7.342 -5.557,8.988 -3.302,-1.646 -5.568,-5.055 -5.568,-8.988 0,-3.933 2.266,-7.342 5.568,-8.988 3.291,1.646 5.557,5.056 5.557,8.988 z"
       id="path14485" /></g><text
     id="text15193"
     y="97.307411"
     x="7.4246235"
     style="font-style:normal;font-variant:normal;font-weight:bold;font-stretch:semi-condensed;font-size:7.5px;line-height:125%;font-family:'DejaVu Sans';-inkscape-font-specification:'DejaVu Sans, Bold Semi-Condensed';text-align:start;letter-spacing:0px;word-spacing:0px;writing-mode:lr-tb;text-anchor:start;fill:#cccccc;fill-opacity:1;stroke:none;stroke-width:1px;stroke-linecap:butt;stroke-linejoin:miter;stroke-opacity:1"
     xml:space="preserve"><tspan
       id="tspan15197"
       y="97.307411"
       x="7.4246235">Developer</tspan></text>
<text
     id="text15193-9"
     y="97.608727"
     x="298.10391"
     style="font-style:normal;font-variant:normal;font-weight:bold;font-stretch:semi-condensed;font-size:7.5px;line-height:125%;font-family:'DejaVu Sans';-inkscape-font-specification:'DejaVu Sans, Bold Semi-Condensed';text-align:start;letter-spacing:0px;word-spacing:0px;writing-mode:lr-tb;text-anchor:start;fill:#cccccc;fill-opacity:1;stroke:none;stroke-width:1px;stroke-linecap:butt;stroke-linejoin:miter;stroke-opacity:1"
     xml:space="preserve"><tspan
       y="97.608727"
       x="298.10391"
       id="tspan15281">Customers</tspan></text>
</svg>