<?xml version="1.0" encoding="UTF-8" standalone="no"?>
<svg xmlns:rdf="http://www.w3.org/1999/02/22-rdf-syntax-ns#" xmlns="http://www.w3.org/2000/svg" xml:space="preserve" height="155.4" width="349.33" version="1.1" y="0px" x="0px" xmlns:cc="http://creativecommons.org/ns#" xmlns:dc="http://purl.org/dc/elements/1.1/" viewBox="0 0 349.33468 155.40108"><defs><marker id="d" refY="0.0" refX="0.0" style="overflow:visible" orient="auto"><path style="fill-rule:evenodd;stroke:#008000;stroke-width:1pt;fill:#008000" transform="scale(-.2)" d="m5.77 0l-8.65 5v-10l8.65 5z"/></marker></defs><style type="text/css">
	.Drop_x0020_Shadow{fill:none;}
	.Round_x0020_Corners_x0020_2_x0020_pt{fill:#FFFFFF;stroke:#000000;stroke-miterlimit:10;}
	.Live_x0020_Reflect_x0020_X{fill:none;}
	.Bevel_x0020_Soft{fill:url(#c);}
	.Dusk{fill:#FFFFFF;}
	.Foliage_GS{fill:#FFDD00;}
	.Pompadour_GS{fill-rule:evenodd;clip-rule:evenodd;fill:#44ADE2;}
	.st0{opacity:0.6;}
	.st1{fill:#888888;}
	.st2{fill:none;}
	.st3{fill:#6E90B3;}
	.st4{fill:#F4F4F4;}
	.st5{fill:none;stroke:#888888;stroke-miterlimit:10;}
	.st6{fill:#0E8CCD;}
	.st7{fill:#46BEAA;}
	.st8{fill:#E4E4E4;stroke:#888888;stroke-miterlimit:10;}
	.st9{fill:#F9A039;}
	.st10{fill:#FFFFFF;}
	.st11{fill:#1E8C63;}
	.st12{fill:#C0212A;}
	.st13{fill:#072B41;}
	.st14{fill:none;stroke:#888888;stroke-width:1.5;stroke-miterlimit:10;}
	.st15{fill:#072B41;stroke:#072B41;stroke-miterlimit:10;}
	.st16{fill:#741A48;}
	.st17{fill:#32B8E6;}
	.st18{opacity:0.44;fill:#0E8CCD;stroke:#FFFFFF;stroke-miterlimit:10;}
	.st19{fill:#014A72;}
	.st20{fill:none;stroke:#888888;stroke-width:2;stroke-miterlimit:10;}
	.st21{fill:#60809C;}
	.st22{fill:none;stroke:#60809C;stroke-width:0.5;stroke-miterlimit:10;}
	.st23{fill:#173962;}
	.st24{fill:#005595;}
	.st25{fill:#3B85C6;}
	.st26{fill:#6DA7DA;}
	.st27{fill:#9FC5E6;}
	.st28{opacity:0.9;fill:#072B41;}
	.st29{opacity:0.9;fill:#1D5883;}
	.st30{opacity:0.9;fill:#6DA7DA;}
	.st31{fill:none;stroke:#072B41;stroke-width:0.75;stroke-miterlimit:10;}
	.st32{fill:none;stroke:#000000;stroke-miterlimit:10;}
	.st33{fill:none;stroke:#1D5883;stroke-miterlimit:10;}
</style><linearGradient id="c" y2="-323.16" gradientUnits="userSpaceOnUse" x2="-605.29" y1="-323.87" x1="-606"><stop style="stop-color:#DEDFE3" offset="0"/><stop style="stop-color:#D8D9DD" offset=".1738"/><stop style="stop-color:#C9CACD" offset=".352"/><stop style="stop-color:#B4B5B8" offset=".5323"/><stop style="stop-color:#989A9C" offset=".7139"/><stop style="stop-color:#797C7E" offset=".8949"/><stop style="stop-color:#656B6C" offset="1"/></linearGradient><polygon style="fill:#fc0" points="58.9 17.561 48.939 5.724 91.504 5.724 100.96 17.64 91.504 30.12 48.939 30.12" class="st23" transform="translate(1.9191 97.736)"/><polygon style="fill:#fc0" points="104.26 17.561 94.299 5.724 136.86 5.724 146.32 17.64 136.86 30.12 94.299 30.12" class="st24" transform="translate(1.9191 97.736)"/><polygon style="fill:#fc0" points="150.14 17.561 140.18 5.724 182.75 5.724 192.2 17.64 182.75 30.12 140.18 30.12" class="st25" transform="translate(1.9191 97.736)"/><polygon style="fill:#f60" points="195.88 17.561 185.92 5.724 228.48 5.724 237.93 17.64 228.48 30.12 185.92 30.12" class="st26" transform="translate(1.9191 97.736)"/><polygon style="fill:#d40000" points="241.75 17.561 231.27 5.724 276.06 5.724 286 17.64 276.06 30.12 231.27 30.12" class="st27" transform="translate(1.9191 97.736)"/><g><path style="" d="m68.743 115.25q-0.21-0.9825-1.17-0.9825-0.6675 0-1.0425 0.51t-0.375 1.4175q0 0.8925 0.36 1.395 0.3675 0.5025 1.02 0.5025 0.525 0 0.84-0.285t0.3675-0.81h1.095q-0.0525 0.9375-0.6825 1.4925-0.63 0.5475-1.65 0.5475-1.14 0-1.8075-0.765-0.6675-0.7725-0.6675-2.0925 0-1.3275 0.675-2.1t1.83-0.7725q0.9675 0 1.5825 0.5175 0.6225 0.5175 0.6975 1.425h-1.0725z"/><path style="" d="m72.431 114.75q0.9525 0 1.4775 0.5775 0.5325 0.57 0.5325 1.5975 0 0.975-0.54 1.545t-1.4625 0.57q-0.9375 0-1.47-0.57-0.5325-0.5775-0.5325-1.575t0.5325-1.5675q0.5325-0.5775 1.4625-0.5775zm0.0075 0.8475q-0.4275 0-0.69 0.36t-0.2625 0.9375 0.2625 0.9375 0.69 0.36q0.42 0 0.6825-0.3525 0.27-0.36 0.27-0.93 0-0.6-0.2625-0.9525-0.255-0.36-0.69-0.36z"/><path style="" d="m75.223 114.82h1.0425v0.5025q0.2625-0.3075 0.51-0.435 0.255-0.135 0.6-0.135 0.795 0 1.1025 0.6 0.45-0.6 1.185-0.6 0.6075 0 0.945 0.33 0.345 0.33 0.345 0.9225v2.865h-1.05v-2.7q0-0.24-0.1575-0.3825-0.15-0.1425-0.4125-0.1425-0.3375 0-0.5325 0.21-0.1875 0.21-0.1875 0.585v2.43h-1.05v-2.7q0-0.24-0.1575-0.3825-0.15-0.1425-0.4125-0.1425-0.3375 0-0.5325 0.21-0.1875 0.21-0.1875 0.585v2.43h-1.05v-4.05z"/><path style="" d="m81.917 114.82h1.0425v0.5025q0.2625-0.3075 0.51-0.435 0.255-0.135 0.6-0.135 0.795 0 1.1025 0.6 0.45-0.6 1.185-0.6 0.6075 0 0.945 0.33 0.345 0.33 0.345 0.9225v2.865h-1.05v-2.7q0-0.24-0.1575-0.3825-0.15-0.1425-0.4125-0.1425-0.3375 0-0.5325 0.21-0.1875 0.21-0.1875 0.585v2.43h-1.05v-2.7q0-0.24-0.1575-0.3825-0.15-0.1425-0.4125-0.1425-0.3375 0-0.5325 0.21-0.1875 0.21-0.1875 0.585v2.43h-1.05v-4.05z"/><path style="" d="m89.699 114.82v4.05h-1.05v-4.05h1.05zm0-1.4175v0.9375h-1.05v-0.9375h1.05z"/><path style="" d="m92.543 114.9v0.6975h-0.585v2.205q0 0.27 0.0675 0.36 0.0675 0.0825 0.2775 0.0825 0.0825 0 0.24-0.0225v0.735q-0.255 0.0825-0.6075 0.0825-1.0275 0-1.0275-0.9525v-2.49h-0.5175v-0.6975h0.5175v-1.0875h1.05v1.0875h0.585z"/></g><g><path style="" d="m117.58 115.52q0.30029 0 0.4541-0.14649 0.15747-0.14648 0.15747-0.43213 0-0.28198-0.15747-0.42846-0.15381-0.15015-0.4541-0.15015h-0.69947v1.1572h0.69947zm0.0439 2.3914q0.38452 0 0.57495-0.17944 0.1941-0.17944 0.1941-0.54199 0-0.35523-0.1941-0.53101-0.19043-0.17944-0.57495-0.17944h-0.74341v1.4319h0.74341zm1.1792-1.9666q0.41016 0.13184 0.63355 0.48706 0.22339 0.35523 0.22339 0.87158 0 0.79102-0.4834 1.1792-0.47974 0.38819-1.4612 0.38819h-2.1057v-5.4675h1.9043q1.0254 0 1.4832 0.34424 0.46143 0.34423 0.46143 1.1023 0 0.39917-0.16846 0.68115-0.16479 0.27832-0.48706 0.41382z"/><path style="" d="m120.66 117.27v-2.5049h1.1865v0.41016q0 0.33325-0.004 0.83862-0.004 0.50171-0.004 0.67017 0 0.49438 0.022 0.71411 0.0256 0.21607 0.0806 0.31494 0.0732 0.12818 0.19043 0.19776 0.11719 0.0696 0.26733 0.0696 0.36988 0 0.57862-0.31495 0.2124-0.31494 0.2124-0.87524v-2.0252h1.1792v4.1016h-1.1792v-0.59327q-0.26733 0.35889-0.56763 0.53101-0.29663 0.16846-0.65552 0.16846-0.6372 0-0.97412-0.43579-0.33325-0.43579-0.33325-1.2671z"/><path style="" d="m125.51 114.77h1.1792v4.1016h-1.1792v-4.1016zm0-1.5967h1.1792v1.0693h-1.1792v-1.0693z"/><path style="" d="m127.83 113.17h1.1792v5.6982h-1.1792v-5.6982z"/><path style="" d="m132.68 115.37v-2.1973h1.1865v5.6982h-1.1865v-0.59327q-0.24536 0.36255-0.53833 0.53101t-0.68115 0.16846q-0.68115 0-1.1206-0.60059-0.43579-0.60425-0.43579-1.5527 0-0.94849 0.43579-1.5491 0.43946-0.60425 1.1206-0.60425 0.38452 0 0.67749 0.17212 0.29663 0.16845 0.54199 0.52734zm-0.78003 2.655q0.38086 0 0.57862-0.30762 0.20141-0.30762 0.20141-0.89355 0-0.58594-0.20141-0.89356-0.19776-0.30761-0.57862-0.30761-0.37353 0-0.57495 0.30761-0.19775 0.30762-0.19775 0.89356 0 0.58593 0.19775 0.89355 0.20142 0.30762 0.57495 0.30762z"/></g><g><path style="" d="m160.98 113.4h4.5337v1.0657h-1.6296v4.4019h-1.2708v-4.4019h-1.6333v-1.0657z"/><path style="" d="m168.81 116.81v0.37354h-2.7576q0.0403 0.46142 0.29663 0.69214 0.26001 0.23071 0.72144 0.23071 0.37353 0 0.76172-0.12085 0.39184-0.12451 0.802-0.37354v1.0108q-0.41748 0.17578-0.83863 0.26367-0.41748 0.0915-0.83496 0.0915-1.0034 0-1.5601-0.56396-0.55297-0.56763-0.55297-1.5894 0-1.0034 0.54565-1.5784 0.54566-0.57495 1.5015-0.57495 0.87158 0 1.3916 0.58228 0.52368 0.58227 0.52368 1.5564zm-1.2122-0.43579q0-0.37353-0.19775-0.60059-0.1941-0.23071-0.5127-0.23071-0.34057 0-0.55664 0.21607-0.2124 0.2124-0.26733 0.61523h1.5344z"/><path style="" d="m172.6 114.9v0.99609q-0.3772-0.17578-0.73242-0.26367-0.35157-0.0879-0.66285-0.0879-0.33691 0-0.5017 0.0952-0.16114 0.0915-0.16114 0.28564 0 0.15747 0.12085 0.2417 0.12451 0.0842 0.44678 0.12451l0.20508 0.033q0.9082 0.12818 1.2195 0.42114 0.31494 0.29297 0.31494 0.91919 0 0.65552-0.43579 0.98511t-1.3 0.32959q-0.36621 0-0.75806-0.0659-0.38818-0.0623-0.79834-0.19043v-0.99609q0.35157 0.19043 0.72144 0.28564 0.37354 0.0952 0.75439 0.0952 0.34424 0 0.52002-0.1062 0.17579-0.1062 0.17579-0.31494 0-0.17579-0.12085-0.26001-0.12085-0.0879-0.47974-0.1355l-0.20874-0.0293q-0.78735-0.10986-1.106-0.40649-0.31494-0.29663-0.31494-0.90088 0-0.65186 0.40283-0.9668 0.40284-0.31494 1.2341-0.31494 0.32593 0 0.68482 0.0549t0.78003 0.17212z"/><path style="" d="m175.03 113.6v1.1646h1.2158v0.9375h-1.2158v1.7395q0 0.28564 0.0989 0.38818 0.10254 0.0989 0.40649 0.0989h0.60791v0.9375h-1.0107q-0.69946 0-0.99243-0.32227-0.29297-0.32592-0.29297-1.1023v-1.7395h-0.58594v-0.9375h0.58594v-1.1646h1.1829z"/></g><g><path style="" d="m205.56 113.57v1.1572q-0.40283-0.20141-0.79102-0.30395-0.38452-0.10254-0.72876-0.10254-0.4541 0-0.67382 0.13916-0.21607 0.13916-0.21607 0.43213 0 0.21972 0.14648 0.34424 0.14649 0.12085 0.53467 0.20874l0.53833 0.12085q0.82398 0.1831 1.1682 0.55664 0.34423 0.37353 0.34423 1.062 0 0.90454-0.48339 1.3476-0.47974 0.43946-1.4722 0.43946-0.46875 0-0.94116-0.0989-0.46875-0.0989-0.94117-0.29297v-1.1902q0.47242 0.27832 0.91187 0.42114 0.43945 0.13916 0.84961 0.13916 0.41382 0 0.63354-0.15381 0.22339-0.15381 0.22339-0.43945 0-0.25635-0.15014-0.39551-0.15015-0.13916-0.60059-0.24902l-0.49072-0.12085q-0.73609-0.17578-1.0803-0.56031-0.34057-0.38452-0.34057-1.0364 0-0.81665 0.47607-1.2561 0.47608-0.43945 1.3623-0.43945 0.40649 0 0.83496 0.0696 0.42846 0.0659 0.88623 0.20142z"/><path style="" d="m208.24 113.6v1.1646h1.2158v0.9375h-1.2158v1.7395q0 0.28564 0.0989 0.38818 0.10254 0.0989 0.40649 0.0989h0.60791v0.9375h-1.0107q-0.69946 0-0.99243-0.32227-0.29297-0.32593-0.29297-1.1023v-1.7395h-0.58594v-0.9375h0.58594v-1.1646h1.1829z"/><path style="" d="m211.84 117.02q-0.36988 0-0.55664 0.13916-0.18677 0.13916-0.18677 0.41016 0 0.24902 0.15014 0.39185 0.15015 0.13916 0.41748 0.13916 0.33326 0 0.56031-0.26368 0.22705-0.26733 0.22705-0.6665v-0.15015h-0.61157zm1.8018-0.49438v2.3401h-1.1902v-0.60791q-0.23804 0.37353-0.53467 0.54565-0.29663 0.16846-0.72144 0.16846-0.57495 0-0.93383-0.36988-0.35523-0.37353-0.35523-0.96679 0-0.72144 0.44678-1.0584 0.44678-0.33692 1.4026-0.33692h0.6958v-0.10253q0-0.31128-0.22339-0.45411-0.21973-0.14648-0.68481-0.14648-0.38086 0-0.70679 0.0842t-0.60791 0.25268v-0.99975q0.38086-0.10254 0.76172-0.15381 0.38452-0.0549 0.76538-0.0549 0.99975 0 1.4429 0.43945 0.44311 0.43579 0.44311 1.4209z"/><path style="" d="m217.26 118.17q-0.24536 0.35888-0.53833 0.52734t-0.68115 0.16846q-0.67383 0-1.1169-0.5896-0.43946-0.59326-0.43946-1.5088 0-0.91919 0.43946-1.5051 0.44311-0.5896 1.1169-0.5896 0.38818 0 0.68115 0.16846t0.53833 0.531v-0.60791h1.1865v3.6878q0 0.98877-0.56397 1.5088-0.5603 0.52368-1.6296 0.52368-0.34423 0-0.67016-0.0586-0.32227-0.0586-0.6482-0.17945v-1.0217q0.31128 0.19776 0.60791 0.29297 0.29664 0.0989 0.59693 0.0989 0.57861 0 0.84961-0.28198 0.27099-0.28199 0.27099-0.88257v-0.28198zm-0.78003-2.5525q-0.36621 0-0.57128 0.30029-0.20142 0.30029-0.20142 0.84961 0 0.56396 0.19775 0.85693 0.19776 0.28931 0.57495 0.28931 0.36988 0 0.57496-0.30029 0.20507-0.3003 0.20507-0.84595 0-0.54932-0.20507-0.84961-0.20508-0.30029-0.57496-0.30029z"/><path style="" d="m219.59 114.77h1.1792v4.1016h-1.1792v-4.1016zm0-1.5967h1.1792v1.0693h-1.1792v-1.0693z"/><path style="" d="m225.63 116.37v2.4976h-1.1865v-0.4065-1.5051q0-0.53101-0.022-0.73243-0.022-0.20141-0.0732-0.29663-0.0696-0.12817-0.19043-0.19775-0.11719-0.0732-0.26733-0.0732-0.36988 0-0.58228 0.3186-0.20874 0.31494-0.20874 0.87524v2.0178h-1.1792v-4.1016h1.1792v0.60059q0.26733-0.35889 0.56763-0.52734 0.30029-0.17212 0.66284-0.17212 0.63721 0 0.9668 0.43579 0.33325 0.43579 0.33325 1.2671z"/><path style="" d="m229.24 118.17q-0.24537 0.35888-0.53833 0.52734-0.29297 0.16846-0.68116 0.16846-0.67382 0-1.1169-0.5896-0.43945-0.59326-0.43945-1.5088 0-0.91919 0.43945-1.5051 0.44312-0.5896 1.1169-0.5896 0.38819 0 0.68116 0.16846 0.29296 0.16846 0.53833 0.531v-0.60791h1.1865v3.6878q0 0.98877-0.56397 1.5088-0.5603 0.52368-1.6296 0.52368-0.34424 0-0.67017-0.0586-0.32227-0.0586-0.64819-0.17945v-1.0217q0.31128 0.19776 0.60791 0.29297 0.29663 0.0989 0.59692 0.0989 0.57861 0 0.84961-0.28198 0.271-0.28199 0.271-0.88257v-0.28198zm-0.78003-2.5525q-0.36621 0-0.57129 0.30029-0.20142 0.30029-0.20142 0.84961 0 0.56396 0.19776 0.85693 0.19775 0.28931 0.57495 0.28931 0.36987 0 0.57495-0.30029 0.20508-0.3003 0.20508-0.84595 0-0.54932-0.20508-0.84961t-0.57495-0.30029z"/></g><g><path style="" d="m244.08 113.4h2.1057q0.94116 0 1.4429 0.46509 0.50171 0.46142 0.50171 1.3184 0 0.8606-0.50171 1.3257-0.50171 0.46142-1.4429 0.46142h-0.83496v1.897h-1.2708v-5.4675zm1.2708 1.0217v1.5271h0.69946q0.36987 0 0.57129-0.19776 0.20141-0.20141 0.20141-0.56763 0-0.36621-0.20141-0.56396-0.20142-0.19775-0.57129-0.19775h-0.69946z"/><path style="" d="m251.7 115.88q-0.15747-0.0806-0.31128-0.11719-0.15015-0.0403-0.30762-0.0403-0.4541 0-0.69946 0.32592-0.24536 0.32227-0.24536 0.92652v1.8896h-1.1792v-4.1016h1.1792v0.67383q0.22705-0.40283 0.52002-0.58594 0.29663-0.18676 0.71045-0.18676 0.0586 0 0.12817 0.007 0.0696 0.004 0.20142 0.022l0.004 1.1865z"/><path style="" d="m254.06 115.61q-0.39184 0-0.59692 0.31494-0.20508 0.31128-0.20508 0.90088t0.20508 0.90454q0.20508 0.31128 0.59692 0.31128 0.38818 0 0.5896-0.31128 0.20508-0.31494 0.20508-0.90454t-0.20508-0.90088q-0.20142-0.31494-0.5896-0.31494zm0-0.9375q0.95581 0 1.4905 0.57129 0.53467 0.57129 0.53467 1.582t-0.53467 1.582q-0.53467 0.57129-1.4905 0.57129-0.95215 0-1.4941-0.57129-0.53833-0.57129-0.53833-1.582t0.53833-1.582q0.54199-0.57129 1.4941-0.57129z"/><path style="" d="m259.46 115.37v-2.1973h1.1865v5.6982h-1.1865v-0.59327q-0.24536 0.36255-0.53833 0.53101t-0.68115 0.16846q-0.68115 0-1.1206-0.60059-0.43579-0.60425-0.43579-1.5527 0-0.94849 0.43579-1.5491 0.43946-0.60425 1.1206-0.60425 0.38452 0 0.67749 0.17212 0.29663 0.16845 0.54199 0.52734zm-0.78003 2.655q0.38086 0 0.57862-0.30762 0.20141-0.30762 0.20141-0.89355 0-0.58594-0.20141-0.89356-0.19776-0.30761-0.57862-0.30761-0.37353 0-0.57495 0.30761-0.19775 0.30762-0.19775 0.89356 0 0.58593 0.19775 0.89355 0.20142 0.30762 0.57495 0.30762z"/><path style="" d="m261.75 117.27v-2.5049h1.1865v0.41016q0 0.33325-0.004 0.83862-0.004 0.50171-0.004 0.67017 0 0.49438 0.022 0.71411 0.0256 0.21607 0.0806 0.31494 0.0733 0.12818 0.19043 0.19776 0.11719 0.0696 0.26734 0.0696 0.36987 0 0.57861-0.31495 0.2124-0.31494 0.2124-0.87524v-2.0252h1.1792v4.1016h-1.1792v-0.59327q-0.26733 0.35889-0.56762 0.53101-0.29663 0.16846-0.65552 0.16846-0.63721 0-0.97412-0.43579-0.33325-0.43579-0.33325-1.2671z"/><path style="" d="m269.58 114.9v1.0693q-0.23803-0.1831-0.4834-0.27099-0.24169-0.0879-0.5017-0.0879-0.49439 0-0.76905 0.32226-0.27466 0.31861-0.27466 0.89356t0.27466 0.89721q0.27466 0.31861 0.76905 0.31861 0.27832 0 0.52734-0.0915 0.24902-0.0916 0.45776-0.271v1.073q-0.27466 0.11352-0.5603 0.16845-0.28564 0.0586-0.57129 0.0586-0.99975 0-1.5637-0.56763-0.56396-0.57129-0.56396-1.5857t0.56396-1.582q0.56397-0.57129 1.5637-0.57129 0.28931 0 0.57129 0.0586 0.28198 0.0549 0.5603 0.16846z"/><path style="" d="m271.89 113.6v1.1646h1.2158v0.9375h-1.2158v1.7395q0 0.28564 0.0989 0.38818 0.10254 0.0989 0.40649 0.0989h0.60791v0.9375h-1.0107q-0.69946 0-0.99243-0.32227-0.29297-0.32593-0.29297-1.1023v-1.7395h-0.58594v-0.9375h0.58594v-1.1646h1.1829z"/><path style="" d="m273.83 114.77h1.1792v4.1016h-1.1792v-4.1016zm0-1.5967h1.1792v1.0693h-1.1792v-1.0693z"/><path style="" d="m277.92 115.61q-0.39185 0-0.59693 0.31494-0.20508 0.31128-0.20508 0.90088t0.20508 0.90454q0.20508 0.31128 0.59693 0.31128 0.38818 0 0.5896-0.31128 0.20507-0.31494 0.20507-0.90454t-0.20507-0.90088q-0.20142-0.31494-0.5896-0.31494zm0-0.9375q0.95581 0 1.4905 0.57129 0.53467 0.57129 0.53467 1.582t-0.53467 1.582q-0.53466 0.57129-1.4905 0.57129-0.95215 0-1.4941-0.57129-0.53833-0.57129-0.53833-1.582t0.53833-1.582q0.54199-0.57129 1.4941-0.57129z"/><path style="" d="m284.52 116.37v2.4976h-1.1865v-0.4065-1.5051q0-0.53101-0.022-0.73243-0.022-0.20141-0.0732-0.29663-0.0696-0.12817-0.19043-0.19775-0.11719-0.0732-0.26733-0.0732-0.36988 0-0.58228 0.3186-0.20874 0.31494-0.20874 0.87524v2.0178h-1.1792v-4.1016h1.1792v0.60059q0.26733-0.35889 0.56763-0.52734 0.30029-0.17212 0.66284-0.17212 0.63721 0 0.9668 0.43579 0.33325 0.43579 0.33325 1.2671z"/></g><path style="stroke-linejoin:round;marker-start:url(#d);stroke:#008000;stroke-width:10;fill:none" d="m64.976 143.23h195.47v-15.378"/><path style="stroke:#008000;stroke-width:10;fill:none" d="m213.47 127.86v12.368"/><path style="stroke:#008000;stroke-width:10;fill:none" d="m167.95 127.86v12.368"/><g transform="matrix(.097656 0 0 .097656 -1.344 135.57)"><polygon style="fill:#666" points="107.14 352.28 91.115 407.6 165.27 407.6 156.83 348.56" transform="translate(7.0432 -318.9)"/><polygon style="fill:#ccc" points="70.019 417.29 164.55 417.29 164.55 402.54 75.445 402.54" transform="translate(7.0432 -318.9)"/><path style="fill:#666" d="m230.39 51.25h-194.59c-12.178 0-22.04-9.875-22.04-22.053v-158.59c0-12.178 9.863-22.04 22.04-22.04h148.77l35.46 156.86 10.358 45.817z"/><path style="fill:#999" d="m148.08-151.43-100.15 202.68h-12.13c-12.178 0-22.04-9.875-22.04-22.053v-158.59c0-12.178 9.863-22.04 22.04-22.04h112.28z"/><path style="fill:#ccc" d="m230.39 51.25h-194.59c-12.178 0-22.04-9.875-22.04-22.053v-23.765h206.27l10.357 45.818z"/><path style="fill:#e6e6e6" d="m70.575 5.433-22.643 45.817h-12.13c-12.178 0-22.04-9.875-22.04-22.053v-23.765h56.813z"/><g transform="translate(7.0432 -318.9)"><path style="fill:#e0b394" d="m146.18 226.06c-14.951-0.663-26.851-12.998-26.851-28.105 0-15.53 12.588-28.129 28.129-28.129 1.399 0 2.773 0.096 4.124 0.301"/><path style="fill:#e0b394" d="m397.96 226.06c14.951-0.663 26.863-12.998 26.863-28.105 0-15.53-12.6-28.129-28.141-28.129-1.399 0-2.785 0.109-4.124 0.301"/></g><path style="fill:#90bc42" d="m335.97 9.071h-113.71c-41.182 0-74.569 33.385-74.569 74.569v109.46h262.85v-109.46c0.002-41.184-33.383-74.569-74.567-74.569z"/><path style="fill:#87aa3c" d="m268.2 9.071h-45.945c-41.182 0-74.569 33.385-74.569 74.569v109.46h45.945v-109.46c0.002-41.184 33.387-74.569 74.569-74.569z"/><path style="fill:#e0b394" d="m339.96-50.525v77.681c0 33.602-27.244 60.846-60.846 60.846-33.612 0-60.846-27.244-60.846-60.846v-77.681h121.69z"/><path style="fill:#87aa3c" d="m279.12 94.03c-36.874 0-66.875-29.999-66.875-66.874v-77.681c0-3.329 2.7-6.029 6.029-6.029h121.69c3.329 0 6.029 2.7 6.029 6.029v77.681c-0.002 36.874-30.001 66.874-66.875 66.874zm-54.818-138.53v71.652c0 30.226 24.592 54.817 54.818 54.817s54.817-24.591 54.817-54.817v-71.652h-109.64z"/><path style="fill:#f7cba4" d="m238.42 28.743-49.493-35.959c-26.154-19.002-40.303-50.425-37.194-82.605l8.585-88.835c5.913-61.184 57.328-107.87 118.8-107.87 61.469 0 112.88 46.687 118.8 107.87l8.585 88.835c3.11 32.179-11.04 63.602-37.194 82.605l-49.493 35.959c-24.268 17.628-57.125 17.628-81.39 0z"/><path style="fill:#e8ba97" d="m182.53-72.314c-0.832 14.071 3.75 27.912 12.817 38.703l51.729 63.565c2.701 3.219 5.763 5.92 9.079 8.078-6.221-2.17-12.202-5.281-17.736-9.296l-49.495-35.954c-26.152-19.002-40.295-50.423-37.184-82.604l8.573-88.837c5.86-60.587 56.331-106.96 117.02-107.84-37.377 0.904-79.701 36.135-81.908 73.657l-12.89 140.53z"/><g transform="translate(7.0432 -318.9)"><path style="fill:#c0e7f9" d="m258.21 188.39v20.678c0 22.475-18.218 40.693-40.693 40.693-5.51 0-10.755-1.097-15.554-3.075-14.758-6.113-25.139-20.654-25.139-37.618v-24.79c8.971 2.713 18.327 4.111 27.792 4.111h53.594z"/><path style="fill:#c0e7f9" d="m367.32 184.27v24.802c0 22.475-18.218 40.693-40.693 40.693-5.691 0-11.105-1.17-16.024-3.28-14.505-6.221-24.669-20.63-24.669-37.413v-20.678h53.534c2.074 0 4.136-0.072 6.185-0.205 7.368-0.471 14.638-1.785 21.667-3.919z"/></g><g transform="translate(7.0432 -318.9)"><path style="fill:#e6f6fc" d="m367.32 184.27v24.802c0 22.475-18.218 40.693-40.693 40.693-5.691 0-11.105-1.17-16.024-3.28l35.05-58.296c7.368-0.471 14.638-1.785 21.667-3.919z"/><path style="fill:#e6f6fc" d="m258.21 188.39v20.678c0 22.475-18.218 40.693-40.693 40.693-5.51 0-10.755-1.097-15.554-3.075l35.062-58.296h21.185z"/></g><path style="fill:#e0b394" d="m292.98-130.51v47.143c0 7.668-6.209 13.866-13.866 13.866-3.834 0-7.307-1.543-9.815-4.051s-4.051-5.98-4.051-9.815v-47.143"/><path style="fill:#f76b4f" d="m407.74-158.08c-2.132-2.557-5.932-2.903-8.491-0.772-8.116 6.764-21.746 16.958-26.634 18.443-8.452 2.563-17.233 3.864-26.101 3.864h-134.86c-8.828 0-17.591-1.296-26.046-3.853-4.875-1.476-18.538-11.681-26.682-18.457-2.56-2.129-6.36-1.78-8.489 0.779-2.129 2.56-1.782 6.36 0.778 8.489 3.082 2.566 17.057 14.015 26.62 18.912v20.837c0 25.763 20.959 46.721 46.721 46.721s46.721-20.959 46.721-46.721v-14.649h15.674v14.649c0 25.763 20.959 46.721 46.721 46.721s46.721-20.959 46.721-46.721v-20.85c9.558-4.899 23.501-16.339 26.575-18.901 2.557-2.132 2.903-5.933 0.772-8.491zm-148.52 48.242c0 19.114-15.55 34.664-34.664 34.664s-34.664-15.55-34.664-34.664v-17.007c7.143 1.56 14.432 2.357 21.763 2.357h47.565v14.65zm74.453 34.664c-19.114 0-34.664-15.55-34.664-34.664v-14.649h47.505c7.362 0 14.671-0.799 21.823-2.364v17.014c0.001 19.113-15.549 34.663-34.664 34.663z"/><g transform="translate(7.0432 -318.9)"><path style="fill:#71c5f4" d="m87.502 127.27c-2.996 0-5.426-2.43-5.426-5.426v-32.115l-3.398 3.398c-2.12 2.118-5.554 2.118-7.673 0-2.118-2.118-2.118-5.554 0-7.673l12.66-12.66c1.552-1.552 3.885-2.017 5.913-1.177s3.349 2.818 3.349 5.012v45.214c0.001 2.999-2.429 5.427-5.425 5.427z"/><path style="fill:#71c5f4" d="m499.86 289.97c-2.996 0-5.426-2.43-5.426-5.426v-32.115l-3.398 3.398c-2.12 2.118-5.554 2.118-7.673 0-2.118-2.118-2.118-5.554 0-7.673l12.66-12.66c1.551-1.552 3.885-2.016 5.913-1.177 2.028 0.84 3.349 2.818 3.349 5.012v45.214c0 2.998-2.429 5.427-5.425 5.427z"/><path style="fill:#71c5f4" d="m42.761 127.27c-11.009 0-19.968-8.957-19.968-19.967v-16.131c0-11.009 8.957-19.967 19.968-19.967s19.967 8.957 19.967 19.967v16.131c0 11.01-8.957 19.967-19.967 19.967zm0-45.214c-5.027 0-9.116 4.09-9.116 9.115v16.131c0 5.027 4.09 9.115 9.116 9.115 5.025 0 9.115-4.09 9.115-9.115v-16.13c0.001-5.027-4.089-9.116-9.115-9.116z"/><path style="fill:#71c5f4" d="m52.186 205.59c-1.221 0-2.211-0.99-2.211-2.211v-13.092l-1.385 1.385c-0.864 0.863-2.264 0.863-3.128 0-0.863-0.863-0.863-2.264 0-3.128l5.16-5.16c0.633-0.633 1.583-0.822 2.41-0.48s1.365 1.149 1.365 2.044v18.432c0.002 1.221-0.988 2.21-2.211 2.21z"/><path style="fill:#71c5f4" d="m33.948 205.59c-4.489 0-8.14-3.652-8.14-8.14v-6.576c0-4.489 3.652-8.14 8.14-8.14s8.14 3.651 8.14 8.14v6.576c-0.001 4.49-3.652 8.14-8.14 8.14zm0-18.431c-2.05 0-3.716 1.667-3.716 3.716v6.576c0 2.049 1.668 3.716 3.716 3.716s3.716-1.667 3.716-3.716v-6.576c0-2.049-1.668-3.716-3.716-3.716z"/><path style="fill:#71c5f4" d="m69.416 205.59c-4.489 0-8.14-3.652-8.14-8.14v-6.576c0-4.489 3.652-8.14 8.14-8.14s8.14 3.651 8.14 8.14v6.576c0 4.49-3.651 8.14-8.14 8.14zm0-18.431c-2.05 0-3.716 1.667-3.716 3.716v6.576c0 2.049 1.668 3.716 3.716 3.716 2.049 0 3.716-1.667 3.716-3.716v-6.576c0-2.049-1.667-3.716-3.716-3.716z"/><path style="fill:#71c5f4" d="m35.306 239.65c-1.221 0-2.211-0.99-2.211-2.211v-13.092l-1.385 1.385c-0.864 0.863-2.264 0.863-3.128 0s-0.863-2.264 0-3.128l5.16-5.16c0.633-0.633 1.583-0.822 2.41-0.48s1.365 1.149 1.365 2.044v18.432c0.002 1.22-0.988 2.21-2.211 2.21z"/><path style="fill:#71c5f4" d="m96.142 239.65c-1.221 0-2.211-0.99-2.211-2.211v-13.092l-1.385 1.385c-0.865 0.863-2.264 0.863-3.128 0s-0.863-2.264 0-3.128l5.16-5.16c0.633-0.633 1.583-0.822 2.41-0.48s1.365 1.149 1.365 2.044v18.432c0 1.22-0.99 2.21-2.211 2.21z"/><path style="fill:#71c5f4" d="m34.853 272.4c-1.221 0-2.211-0.99-2.211-2.211v-13.092l-1.385 1.385c-0.864 0.863-2.264 0.863-3.128 0-0.863-0.863-0.863-2.264 0-3.128l5.16-5.16c0.633-0.633 1.583-0.822 2.41-0.48s1.365 1.149 1.365 2.044v18.432c0.002 1.22-0.988 2.21-2.211 2.21z"/><path style="fill:#71c5f4" d="m49.322 272.4c-1.221 0-2.211-0.99-2.211-2.211v-13.092l-1.385 1.385c-0.864 0.863-2.264 0.863-3.128 0-0.863-0.863-0.863-2.264 0-3.128l5.16-5.16c0.633-0.633 1.583-0.822 2.41-0.48s1.365 1.149 1.365 2.044v18.432c0.001 1.22-0.989 2.21-2.211 2.21z"/><path style="fill:#71c5f4" d="m66.202 272.4c-1.221 0-2.211-0.99-2.211-2.211v-13.092l-1.385 1.385c-0.864 0.863-2.264 0.863-3.128 0-0.863-0.863-0.863-2.264 0-3.128l5.16-5.16c0.633-0.633 1.583-0.822 2.41-0.48s1.365 1.149 1.365 2.044v18.432c0.001 1.22-0.989 2.21-2.211 2.21z"/><path style="fill:#71c5f4" d="m52.244 239.65c-4.489 0-8.14-3.652-8.14-8.14v-6.576c0-4.489 3.652-8.14 8.14-8.14s8.14 3.652 8.14 8.14v6.576c0 4.488-3.651 8.14-8.14 8.14zm0-18.432c-2.05 0-3.716 1.667-3.716 3.716v6.576c0 2.049 1.668 3.716 3.716 3.716s3.716-1.667 3.716-3.716v-6.576c0-2.05-1.667-3.716-3.716-3.716z"/><path style="fill:#71c5f4" d="m74.842 239.65c-4.489 0-8.14-3.652-8.14-8.14v-6.576c0-4.489 3.652-8.14 8.14-8.14s8.14 3.652 8.14 8.14v6.576c0 4.488-3.651 8.14-8.14 8.14zm0-18.432c-2.05 0-3.716 1.667-3.716 3.716v6.576c0 2.049 1.668 3.716 3.716 3.716 2.049 0 3.716-1.667 3.716-3.716v-6.576c0-2.05-1.668-3.716-3.716-3.716z"/><path style="fill:#71c5f4" d="m91.623 205.59c-4.489 0-8.14-3.652-8.14-8.14v-6.576c0-4.489 3.652-8.14 8.14-8.14s8.14 3.651 8.14 8.14v6.576c0 4.49-3.651 8.14-8.14 8.14zm0-18.431c-2.05 0-3.716 1.667-3.716 3.716v6.576c0 2.049 1.668 3.716 3.716 3.716s3.716-1.667 3.716-3.716v-6.576c0-2.049-1.668-3.716-3.716-3.716z"/><path style="fill:#71c5f4" d="m70.166 57.269c-2.996 0-5.426-2.43-5.426-5.426v-32.115l-3.398 3.398c-2.12 2.118-5.554 2.118-7.673 0-2.118-2.118-2.118-5.554 0-7.673l12.66-12.66c1.552-1.552 3.886-2.017 5.913-1.177 2.028 0.84 3.349 2.818 3.349 5.012v45.214c0.001 2.998-2.429 5.427-5.425 5.427z"/><path style="fill:#71c5f4" d="m103.92 57.269c-11.009 0-19.967-8.957-19.967-19.967v-16.132c0-11.009 8.957-19.967 19.967-19.967s19.967 8.957 19.967 19.967v16.132c-0.001 11.01-8.958 19.967-19.967 19.967zm0-45.214c-5.025 0-9.115 4.09-9.115 9.115v16.132c0 5.027 4.09 9.115 9.115 9.115s9.115-4.089 9.115-9.115v-16.132c0-5.025-4.089-9.115-9.115-9.115z"/><path style="fill:#71c5f4" d="m455.65 289.97c-11.009 0-19.968-8.957-19.968-19.967v-16.132c0-11.009 8.957-19.967 19.968-19.967s19.967 8.957 19.967 19.967v16.132c-0.001 11.01-8.958 19.967-19.967 19.967zm0-45.214c-5.027 0-9.116 4.09-9.116 9.115v16.132c0 5.027 4.09 9.115 9.116 9.115 5.025 0 9.115-4.089 9.115-9.115v-16.132c0-5.025-4.09-9.115-9.115-9.115z"/></g><path style="fill:#666" d="m442.39-177.84s-53.232-63.505-121.78-35.774c-34.194 13.83-57.874 12.756-75.562 5.016-0.398-0.193-0.808-0.374-1.218-0.567-0.386-0.169-0.76-0.35-1.133-0.531-3.593-1.736-6.933-3.762-10.056-5.98-0.036 0.109-0.084 0.217-0.133 0.326-13.504 34.664-72.391 38.631-72.391 38.631s-26.393-42.116-11.925-74.67c11.466-25.814 41.887-53.136 93.66-63.348 13.528-2.677 28.515-4.172 44.997-4.172 79.578 0 155.54 53.051 155.54 141.07z"/><path style="fill:#4d4d4d" d="m241.86-314.73s-73.371 35.36-9.344 99.387c-13.504 34.664-72.391 38.631-72.391 38.631s-26.393-42.116-11.925-74.67c11.467-25.814 41.887-53.136 93.66-63.348z"/><path style="fill:#fce8ca" d="m488.6 18.997v113.42c0 9.827-7.958 17.784-17.784 17.784h-59.466c-9.827 0-17.784-7.958-17.784-17.784v-113.42c0-9.827 7.958-17.784 17.784-17.784h59.466c9.826 0 17.784 7.957 17.784 17.784z"/><path style="fill:#fcf3e6" d="m488.6 18.997v113.42c0 9.827-7.958 17.784-17.784 17.784h-47.566l44.141-148.99h3.424c9.827 0 17.785 7.957 17.785 17.784z"/><g transform="translate(7.0432 -318.9)"><path style="fill:#666" d="m481.55 443.81v7.512c0 9.827-7.958 17.784-17.784 17.784h-59.466c-9.827 0-17.784-7.958-17.784-17.784v-7.512h95.034z"/><path style="fill:#666" d="m481.55 337.9v7.512h-95.035v-7.512c0-9.827 7.958-17.784 17.784-17.784h59.466c9.827 0 17.785 7.957 17.785 17.784z"/></g><path style="fill:#999" d="m488.6 124.91v7.512c0 9.827-7.958 17.784-17.784 17.784h-47.566l7.487-25.296h57.863z"/><path style="fill:#333" d="m455.65 18.804h-29.149c-1.998 0-3.617-1.619-3.617-3.617s1.619-3.617 3.617-3.617h29.149c1.998 0 3.617 1.619 3.617 3.617s-1.619 3.617-3.617 3.617z"/><g transform="translate(7.0432 -318.9)"><polygon style="fill:#fce8ca" points="233.02 489.59 203.18 459.75 233.02 429.91 242.4 439.29 221.94 459.75 242.4 480.21"/><polygon style="fill:#fce8ca" points="311.12 489.59 301.74 480.21 322.21 459.75 301.74 439.29 311.12 429.91 340.96 459.75"/><rect style="fill:#fce8ca" transform="matrix(-.8994 -.4372 .4372 -.8994 313.95 991.8)" height="58.765" width="13.263" y="430.39" x="264.49"/></g><path style="fill:#999" d="m488.6 18.997v7.512h-28.708l7.5-25.296h3.424c9.826 0 17.784 7.957 17.784 17.784z"/><circle style="fill:#666" cx="441.08" r="6.33" cy="136.36"/><path style="fill:#f2f2f2" d="m326.31-46.449s-0.687 1.688-2.134 4.353c-0.35 0.687-0.76 1.411-1.218 2.194-0.543 0.772-1.17 1.555-1.845 2.436-0.675 0.88-1.447 1.772-2.267 2.761-0.289 0.374-0.603 0.687-0.94 1.013-0.121 0.121-0.253 0.241-0.386 0.362-0.47 0.434-0.953 0.892-1.447 1.35-0.989 0.928-2.062 1.845-3.183 2.809-1.182 0.868-2.448 1.688-3.75 2.58-0.651 0.446-1.326 0.88-2.014 1.314-0.687 0.41-1.423 0.748-2.17 1.121-1.471 0.748-3.002 1.471-4.582 2.194-3.255 1.109-6.643 2.411-10.261 2.954-3.569 0.832-7.295 0.965-11.008 1.145-3.714-0.181-7.439-0.301-11.008-1.133-3.617-0.543-7.005-1.845-10.261-2.954-1.579-0.711-3.111-1.435-4.594-2.182-0.735-0.374-1.471-0.711-2.17-1.121-0.675-0.446-1.35-0.868-2.001-1.314-1.302-0.892-2.58-1.724-3.762-2.58-1.121-0.965-2.182-1.893-3.183-2.809-0.494-0.47-0.965-0.916-1.435-1.362-0.169-0.157-0.338-0.313-0.506-0.47-0.289-0.289-0.567-0.567-0.808-0.892-0.784-0.953-1.543-1.833-2.206-2.701-0.651-0.88-1.29-1.652-1.821-2.423-0.482-0.82-0.928-1.567-1.302-2.255-1.507-2.749-2.134-4.389-2.134-4.389s1.784 0.543 4.533 1.652c0.699 0.265 1.423 0.591 2.231 0.916 0.856 0.253 1.736 0.579 2.677 0.892 0.953 0.313 1.905 0.699 2.918 1.061 1.001 0.386 2.134 0.639 3.255 0.977 1.121 0.326 2.243 0.723 3.412 1.073 1.218 0.265 2.436 0.579 3.689 0.88 0.627 0.145 1.242 0.326 1.869 0.494 0.639 0.145 1.302 0.229 1.953 0.362 1.314 0.229 2.628 0.494 3.943 0.796 2.737 0.253 5.438 0.856 8.259 0.965 2.785 0.362 5.631 0.265 8.452 0.434 2.833-0.169 5.679-0.06 8.464-0.422 2.821-0.096 5.522-0.711 8.259-0.965 1.314-0.289 2.628-0.555 3.943-0.784 0.651-0.133 1.314-0.217 1.953-0.362 0.627-0.181 1.254-0.35 1.869-0.494 1.254-0.301 2.472-0.627 3.689-0.88 1.182-0.35 2.303-0.748 3.424-1.073 1.109-0.338 2.267-0.603 3.231-0.977 0.989-0.338 1.917-0.711 2.858-1.001 0.928-0.313 1.797-0.627 2.653-0.88 0.844-0.362 1.592-0.711 2.303-0.989 2.811-1.17 4.559-1.676 4.559-1.676z"/><path style="fill:#4d4d4d" d="m317.91-33.693c-0.121 0.121-0.253 0.241-0.386 0.362-0.47 0.434-0.953 0.892-1.447 1.35-0.989 0.928-2.062 1.845-3.183 2.809-1.182 0.868-2.448 1.688-3.75 2.58-0.651 0.446-1.326 0.88-2.014 1.314-0.687 0.41-1.423 0.748-2.17 1.121-1.471 0.748-3.002 1.471-4.582 2.194-3.255 1.109-6.643 2.411-10.261 2.954-3.569 0.832-7.295 0.965-11.008 1.145-3.714-0.181-7.439-0.301-11.008-1.133-3.617-0.543-7.005-1.845-10.261-2.954-1.579-0.711-3.111-1.435-4.594-2.182-0.735-0.374-1.471-0.711-2.17-1.121-0.675-0.446-1.35-0.868-2.001-1.314-1.302-0.892-2.58-1.724-3.762-2.58-1.121-0.965-2.182-1.893-3.183-2.809-0.494-0.47-0.965-0.916-1.435-1.362-0.169-0.157-0.338-0.313-0.506-0.47 0.386 0.133 0.772 0.265 1.17 0.398 0.953 0.313 1.905 0.687 2.918 1.049 1.001 0.398 2.134 0.651 3.255 0.989 1.121 0.326 2.243 0.711 3.412 1.073 1.218 0.253 2.436 0.579 3.689 0.88 0.627 0.145 1.242 0.313 1.869 0.482 0.639 0.145 1.302 0.229 1.953 0.362 1.314 0.229 2.628 0.506 3.943 0.796 2.737 0.265 5.438 0.868 8.259 0.965 2.785 0.374 5.631 0.265 8.452 0.446 2.833-0.169 5.679-0.06 8.464-0.434 2.821-0.096 5.522-0.699 8.259-0.953 1.314-0.289 2.628-0.567 3.943-0.796 0.651-0.133 1.314-0.217 1.953-0.362 0.627-0.169 1.254-0.338 1.869-0.482 1.254-0.301 2.472-0.627 3.689-0.88 1.182-0.362 2.303-0.76 3.424-1.073 1.109-0.338 2.267-0.615 3.231-0.977 0.989-0.35 1.917-0.711 2.858-1.013 0.376-0.121 0.75-0.253 1.111-0.374z"/><g transform="translate(7.0432 -318.9)"><path style="fill:#666" d="m305.07 164.92s0.024-0.24 0.105-0.652c0.093-0.399 0.187-1.03 0.389-1.743 0.09-0.369 0.207-0.754 0.341-1.177 0.175-0.429 0.41-0.861 0.66-1.35 0.247-0.492 0.559-0.978 0.887-1.524 0.33-0.555 0.725-0.975 1.129-1.511 0.41-0.515 0.872-1.013 1.354-1.548 0.51-0.484 1.063-0.96 1.652-1.438 1.151-1.014 2.559-1.747 4.025-2.562 1.517-0.641 3.126-1.337 4.851-1.659 1.707-0.444 3.498-0.549 5.283-0.632 1.786 0.082 3.577 0.177 5.286 0.619 1.725 0.318 3.336 1.018 4.854 1.654 1.467 0.814 2.876 1.546 4.028 2.561 0.587 0.48 1.142 0.957 1.653 1.438 0.482 0.537 0.942 1.039 1.354 1.551 0.398 0.533 0.811 0.971 1.114 1.504 0.304 0.531 0.598 1.006 0.837 1.487 0.238 0.482 0.468 0.907 0.641 1.335 0.158 0.446 0.298 0.85 0.402 1.232 0.229 0.739 0.324 1.375 0.412 1.772 0.077 0.411 0.094 0.645 0.094 0.645s-0.25-0.006-0.672-0.047c-0.41-0.053-1.047-0.08-1.749-0.182-0.364-0.037-0.735-0.105-1.144-0.159-0.435-0.021-0.865-0.081-1.331-0.117-0.915-0.096-1.87-0.24-2.92-0.281-0.516-0.034-1.016-0.109-1.54-0.152-0.541-0.007-1.076-0.035-1.606-0.075-1.039-0.135-2.169-0.055-3.218-0.187-1.103 0.04-2.159-0.095-3.253-0.061-1.076-0.081-2.163 0.005-3.242-0.071-1.079 0.074-2.167-0.02-3.245 0.058-1.095-0.039-2.151 0.101-3.257 0.057-1.05 0.13-2.182 0.049-3.222 0.186-0.531 0.04-1.065 0.069-1.607 0.075-0.523 0.043-1.021 0.123-1.54 0.154-1.071 0.058-1.961 0.159-2.854 0.236-0.469 0.036-0.908 0.07-1.314 0.1-0.433 0.078-0.828 0.165-1.204 0.215-0.729 0.129-1.367 0.159-1.772 0.211-0.418 0.038-0.661 0.038-0.661 0.038z"/><path style="fill:#666" d="m197.72 164.92s0.024-0.24 0.105-0.652c0.093-0.399 0.187-1.03 0.389-1.743 0.09-0.369 0.207-0.754 0.341-1.177 0.175-0.429 0.41-0.861 0.66-1.35 0.247-0.492 0.559-0.978 0.887-1.524 0.33-0.555 0.725-0.975 1.129-1.511 0.41-0.515 0.872-1.013 1.354-1.548 0.51-0.484 1.063-0.96 1.652-1.438 1.151-1.014 2.559-1.747 4.025-2.562 1.517-0.641 3.126-1.337 4.851-1.659 1.707-0.444 3.498-0.549 5.283-0.632 1.786 0.082 3.577 0.177 5.286 0.619 1.725 0.318 3.336 1.018 4.854 1.654 1.467 0.814 2.876 1.546 4.028 2.561 0.587 0.48 1.142 0.957 1.653 1.438 0.482 0.537 0.942 1.039 1.354 1.551 0.398 0.533 0.811 0.971 1.114 1.504 0.304 0.531 0.598 1.006 0.837 1.487 0.238 0.482 0.468 0.907 0.641 1.335 0.158 0.446 0.298 0.85 0.401 1.232 0.229 0.739 0.324 1.375 0.412 1.772 0.077 0.411 0.094 0.645 0.094 0.645s-0.25-0.006-0.672-0.047c-0.41-0.053-1.047-0.08-1.749-0.182-0.364-0.037-0.735-0.105-1.144-0.159-0.435-0.021-0.864-0.081-1.331-0.117-0.915-0.096-1.87-0.24-2.92-0.281-0.516-0.034-1.016-0.109-1.54-0.152-0.541-0.007-1.076-0.035-1.606-0.075-1.039-0.135-2.169-0.055-3.218-0.187-1.103 0.04-2.159-0.095-3.253-0.061-1.076-0.081-2.163 0.005-3.242-0.071-1.079 0.074-2.167-0.02-3.245 0.058-1.095-0.039-2.151 0.101-3.257 0.057-1.05 0.13-2.182 0.049-3.222 0.186-0.531 0.04-1.065 0.069-1.607 0.075-0.523 0.043-1.021 0.123-1.54 0.154-1.071 0.058-1.96 0.159-2.854 0.236-0.469 0.036-0.908 0.07-1.314 0.1-0.433 0.078-0.828 0.165-1.205 0.215-0.729 0.129-1.367 0.159-1.772 0.211-0.417 0.038-0.659 0.038-0.659 0.038z"/><circle style="fill:#666" cx="326.63" r="7.434" cy="209.78"/><circle style="fill:#666" cx="217.51" r="7.434" cy="209.78"/></g></g><g transform="matrix(.12594 0 0 .12594 319.32 111.75)"><path style="fill:#694b4b" d="m-185.46 36.595c-82.142 0-73.034 99.89-72.659 172.28 0.014 2.734 1.446 5.198 3.788 6.61 9.102 5.487 34.1 18.316 68.871 18.316s59.769-12.829 68.871-18.316c2.341-1.412 3.774-3.876 3.788-6.61 0.375-72.387 9.483-172.28-72.659-172.28z"/><path style="fill:#5a4146" d="m-190.75 36.801c-76.395 4.283-67.733 101.3-67.367 172.07 0.014 2.734 1.446 5.199 3.788 6.61 9.102 5.487 34.1 18.316 68.871 18.316l20.759-145.31"/><path style="fill:#694b4b" d="m-185.46 36.595c-46.706 0-49.949 56.436-49.949 56.436 26.921-4.541 43.463 6.811 70.708-4.541l-20.759 145.31c34.772 0 59.769-12.829 68.871-18.316 2.341-1.412 3.774-3.876 3.788-6.61 0.375-72.387 9.483-172.28-72.659-172.28z"/><path style="fill:#785550" d="m-112.8 208.87c0.322-62.201 7.037-144.65-43.183-166.64-0.876 4.55-2.463 17.253 1.661 25.498 10.379 20.759 20.759 20.759 31.137 36.327 10.379 57.085-19.831 117.67-29.865 125.92 17.778-4.228 30.522-10.919 36.462-14.499 2.341-1.411 3.774-3.876 3.788-6.61z"/><path style="fill:#e6af78" d="m-106.81 224.62-46.307-19.294c-3.867-1.611-6.387-5.39-6.387-9.581v-12.541h-51.895v12.541c0 4.191-2.52 7.97-6.387 9.581l-46.307 19.294c-5.802 2.418-9.581 8.087-9.581 14.372v20.759c0 5.732 4.647 10.379 10.379 10.379h155.69c5.732 0 10.379-4.647 10.379-10.379v-20.759c0.001-6.285-3.778-11.954-9.58-14.372z"/><path style="fill:#eff2fa" d="m-106.81 224.62-44.773-18.656-33.869 14.618-33.869-14.617-44.772 18.656c-5.802 2.417-9.581 8.086-9.581 14.371v20.759c0 5.732 4.647 10.379 10.379 10.379h155.69c5.732 0 10.379-4.647 10.379-10.379v-20.759c0.001-6.285-3.778-11.954-9.58-14.372z"/><path style="fill:#d29b6e" d="m-159.51 183.2h-51.895v12.541c0 4.191-2.52 7.97-6.387 9.581l-7.232 3.014c55.345 14.112 65.514-25.136 65.514-25.136z"/><g transform="translate(-273.68 -123.04)"><path style="fill:#e4eaf6" d="m25.294 367.73-20.83-16.57c-2.791 2.85-4.464 6.71-4.464 10.86v20.759c0 5.732 4.647 10.379 10.379 10.379h20.759v-13.276c-0.001-4.73-2.15-9.203-5.844-12.158z"/><path style="fill:#e4eaf6" d="m176.44 382.78v-20.759c0-4.119-1.645-7.952-4.397-10.8l-20.898 16.504c-3.693 2.954-5.843 7.427-5.843 12.157v13.275h20.759c5.732 0.002 10.379-4.645 10.379-10.377z"/><path style="fill:#e4eaf6" d="m89.001 382.78h-1.557c-2.436 0-4.411-1.975-4.411-4.411v-34.745h10.379v34.744c0 2.437-1.975 4.412-4.411 4.412z"/><path style="fill:#e4eaf6" d="m88.222 343.62-29.702-22.28c-1.907-1.43-4.623-0.965-5.945 1.018l-5.869 8.803 18.21 25.494c1.384 1.938 4.112 2.317 5.972 0.829l17.334-13.868z"/><path style="fill:#e4eaf6" d="m88.222 343.62 29.702-22.276c1.907-1.43 4.623-0.965 5.945 1.018l5.869 8.803-18.21 25.494c-1.384 1.938-4.112 2.317-5.972 0.829l-17.328-13.87z"/></g><path style="fill:#f0c087" d="m-159.51 83.302c-25.948 25.947-76.87 5.188-76.87 46.704l3.222 30.581c0.622 6.841 4.588 12.931 10.591 16.267l29.548 16.415c4.702 2.612 10.419 2.612 15.121 0l29.548-16.415c6.005-3.336 9.97-9.427 10.591-16.267l3.72-36.32c0.265-2.582 0.321-5.179 0.234-7.769-1.94-13.21-20.516-22.818-25.705-33.196z"/><path style="fill:#e6af78" d="m-236.38 130.01 3.222 30.581c0.622 6.841 4.588 12.931 10.591 16.267l29.548 16.415c3.263 1.813 7.005 2.282 10.567 1.579 0 0-14.897-4.515-23.764-28.516-2.716-7.352-6.487-46.274-3.243-51.031 6.412-9.402 42.165-10.379 52.729-27.822-0.522-0.647-1.004-1.296-1.444-1.945-0.035-0.052-0.078-0.105-0.114-0.158-0.459-0.69-0.875-1.382-1.223-2.077-25.947 25.95-76.869 5.191-76.869 46.707z"/><path style="fill:#e4eaf6" d="m-147.57 259.75h-13.493c-4.872 0-8.822 3.95-8.822 8.822v1.557h31.137v-1.557c0-4.873-3.95-8.822-8.822-8.822z"/><polygon style="fill:#e6af78" points="369.49 295.02 369.49 323.52 406.13 356.1 442.78 323.52 442.78 295.02" transform="translate(-273.68 -123.04)"/><path style="fill:#eff2fa" d="m225.76 213.82-50.385-11.855c-0.761-0.179-1.461-0.483-2.115-0.851l-40.81 23.806-39.218-24.957c-1.016 0.956-2.275 1.666-3.706 2.003l-50.385 11.855c-7.358 1.731-12.557 8.296-12.557 15.855v31.89c0 4.497 3.646 8.144 8.144 8.144h195.45c4.497 0 8.144-3.646 8.144-8.144v-31.89c-0.002-7.56-5.202-14.125-12.559-15.856z"/><path style="fill:#d29b6e" d="m95.808 171.99v30.073c46.165 16.632 73.293-24.995 73.293-24.995v-5.078h-73.293z"/><path style="fill:#f0c087" d="m79.521 78.333 3.549 78.063c0.332 7.293 3.907 14.055 9.747 18.435l16.836 12.627c4.229 3.172 9.373 4.886 14.658 4.886h16.287c5.286 0 10.43-1.715 14.658-4.886l16.836-12.627c5.84-4.38 9.416-11.143 9.747-18.435l3.549-78.063h-105.87z"/><path style="fill:#e6af78" d="m120.24 94.62c16.287 0 40.718-4.071 46.513-16.287h-87.231l3.548 78.063c0.332 7.293 3.907 14.055 9.747 18.435l16.836 12.627c4.229 3.172 9.373 4.886 14.658 4.886h8.144c-8.144 0-24.431-16.287-24.431-36.647v-48.862c0-4.071 4.072-12.215 12.216-12.215z"/><path style="fill:#e4eaf6" d="m208.43 243.28 26.385-23.702c2.211 2.8 3.508 6.322 3.508 10.094v31.89c0 4.497-3.646 8.144-8.144 8.144h-28.502v-11.28c0-5.778 2.454-11.284 6.753-15.146z"/><polygon style="fill:#5b5d6e" points="398.5 356.1 413.77 356.1 416.31 392.74 395.95 392.74" transform="translate(-273.68 -123.04)"/><path style="fill:#515262" d="m142.63 224.92h-20.36v2.352c0 5.448 4.416 9.863 9.863 9.863h0.632c5.448 0 9.863-4.416 9.863-9.863v-2.352h0.002z"/><g transform="translate(-273.68 -123.04)"><path style="fill:#e4eaf6" d="m368.91 314.46 37.218 33.496s-10.423 5.261-23.286 15.867c-2.653 2.188-6.667 1.301-8.09-1.829l-17.486-38.468 5.532-8.297c1.378-2.067 4.267-2.43 6.112-0.769z"/><path style="fill:#e4eaf6" d="m443.35 314.46-37.218 33.496s10.423 5.261 23.286 15.867c2.653 2.188 6.667 1.301 8.09-1.829l17.486-38.468-5.532-8.297c-1.377-2.067-4.266-2.43-6.112-0.769z"/></g><path style="fill:#785550" d="m157.14 51.357 3.818 26.976c17.425 3.485 19.936 30.83 20.298 38.641 0.066 1.417 0.518 2.787 1.287 3.979l6.649 10.313s-2.276-17.051 8.144-28.502c-0.001 0 3.576-67.694-40.196-51.407z"/><path style="fill:#f0c087" d="m193.28 129.53-4.599 18.393c-0.545 2.179-2.503 3.708-4.749 3.708-2.469 0-4.551-1.838-4.858-4.288l-2.351-18.812c-0.629-5.031 3.294-9.474 8.363-9.474h0.017c5.484-0.001 9.507 5.153 8.177 10.473z"/><path style="fill:#694b4b" d="m83.422 44.062 6.023 4.114c-27.23 20.105-22.141 54.588-22.141 54.588 8.144 8.144 8.144 28.502 8.144 28.502l8.144-8.144s-3.143-23.525 12.216-32.574c14.251-8.398 26.721-4.071 39.445-4.071 34.101 0 43.645-12.852 41.991-28.502-0.856-8.099-13.238-24.967-44.789-24.431-12.735 0.216-36.647 4.072-49.033 10.518z"/><path style="fill:#5a4146" d="m81.047 82.914s-4.326-17.051 8.398-34.738c-27.23 20.105-22.141 54.588-22.141 54.588 8.144 8.144 8.144 28.502 8.144 28.502l8.144-8.144s-3.143-23.525 12.215-32.574c14.251-8.398 26.721-4.071 39.445-4.071 5.546 0 10.379-0.372 14.684-1.008-26.262 0.881-41.743-19.011-68.889-2.555z"/><path style="fill:#e6af78" d="m71.632 129.53 4.599 18.393c0.545 2.179 2.503 3.708 4.75 3.708 2.469 0 4.551-1.838 4.858-4.288l2.351-18.812c0.629-5.031-3.294-9.474-8.364-9.474h-0.017c-5.482-0.001-9.507 5.153-8.177 10.473z"/><path style="fill:#e4eaf6" d="m181.32 261.57h-20.36c-4.497 0-8.144 3.646-8.144 8.144h36.646c0.001-4.498-3.645-8.144-8.142-8.144z"/><path style="fill:#694b4b" d="m-17.524-65.537c-139.64 0-124.16 169.81-123.52 292.87 0.024 4.647 2.458 8.838 6.439 11.237 15.474 9.328 57.97 31.137 117.08 31.137 59.111 0 101.61-21.809 117.08-31.137 3.98-2.4 6.415-6.59 6.439-11.237 0.638-123.06 16.122-292.87-123.52-292.87z"/><path style="fill:#5a4146" d="m-26.522-65.188c-129.87 7.281-115.15 172.2-114.52 292.52 0.024 4.647 2.458 8.838 6.439 11.237 15.474 9.328 57.97 31.137 117.08 31.137l35.289-247.02"/><path style="fill:#694b4b" d="m-17.524-65.537c-79.4 0-84.914 95.942-84.914 95.942 45.765-7.719 73.886 11.579 120.2-7.719l-35.289 247.02c59.111 0 101.61-21.809 117.08-31.137 3.98-2.4 6.415-6.59 6.439-11.237 0.638-123.06 16.122-292.87-123.52-292.87z"/><path style="fill:#785550" d="m106 227.34c0.548-105.74 11.962-245.91-73.41-283.29-1.489 7.736-4.185 29.331 2.823 43.348 17.645 35.289 35.289 35.289 52.933 61.756 17.644 97.045-33.714 200.05-50.771 214.07 30.222-7.188 51.887-18.562 61.985-24.649 3.981-2.4 6.416-6.59 6.44-11.237z"/><path style="fill:#e6af78" d="m116.17 254.1-78.722-32.801c-6.575-2.739-10.858-9.164-10.858-16.288v-21.32h-88.222v21.32c0 7.123-4.283 13.548-10.858 16.288l-78.722 32.801c-9.862 4.109-16.287 13.746-16.287 24.431v35.289c0 9.744 7.9 17.645 17.644 17.645h264.67c9.744 0 17.644-7.9 17.644-17.645v-35.289c0.001-10.686-6.424-20.322-16.286-24.431z"/><path style="fill:#b4e1fa" d="m116.17 254.1-76.114-31.714-57.577 24.849-57.577-24.849-76.114 31.714c-9.862 4.109-16.287 13.746-16.287 24.431v35.289c0 9.744 7.9 17.645 17.644 17.645h264.67c9.744 0 17.644-7.9 17.644-17.645v-35.289c0.001-10.686-6.424-20.322-16.286-24.431z"/><path style="fill:#d29b6e" d="m26.587 183.69h-88.222v21.32c0 7.123-4.283 13.548-10.858 16.288l-12.295 5.124c94.087 23.989 111.38-42.732 111.38-42.732z"/><g transform="translate(-273.68 -123.04)"><path style="fill:#a0d2f0" d="m149.18 411.26-35.411-28.167c-4.744 4.852-7.588 11.413-7.588 18.469v35.289c0 9.744 7.9 17.644 17.644 17.644h35.289v-22.568c-0.002-8.04-3.656-15.644-9.934-20.667z"/><path style="fill:#a0d2f0" d="m406.13 436.86v-35.289c0-7.002-2.797-13.518-7.475-18.359l-35.526 28.057c-6.278 5.023-9.933 12.627-9.933 20.667v22.568h35.289c9.745 0.001 17.645-7.899 17.645-17.644z"/><path style="fill:#a0d2f0" d="m256.16 436.86c-4.872 0-8.822-3.95-8.822-8.822v-57.742h17.644v57.743c0 4.872-3.95 8.821-8.822 8.821z"/><path style="fill:#a0d2f0" d="m256.16 370.27-50.494-37.871c-3.241-2.431-7.86-1.64-10.107 1.731l-9.977 14.966 30.957 43.339c2.353 3.295 6.991 3.938 10.152 1.409l29.469-23.574z"/><path style="fill:#a0d2f0" d="m256.16 370.27 50.494-37.871c3.241-2.431 7.86-1.64 10.107 1.731l9.977 14.966-30.957 43.339c-2.353 3.295-6.991 3.938-10.152 1.409l-29.469-23.574z"/></g><path style="fill:#f0c087" d="m26.587 13.863c-44.111 44.111-130.68 8.822-130.68 79.4l5.479 51.989c1.056 11.629 7.799 21.983 18.006 27.653l50.231 27.906c7.994 4.441 17.713 4.441 25.707 0l50.231-27.906c10.207-5.672 16.949-16.025 18.006-27.653l6.324-61.745c0.45-4.388 0.546-8.803 0.397-13.208-3.303-22.457-34.88-38.792-43.702-56.436z"/><path style="fill:#e6af78" d="m-104.09 93.263 5.479 51.989c1.056 11.629 7.799 21.983 18.006 27.653l50.231 27.906c5.547 3.081 11.908 3.88 17.963 2.685 0 0-25.326-7.674-40.398-48.477-4.617-12.5-11.028-78.665-5.514-86.752 10.899-15.985 71.681-17.645 89.641-47.298-0.888-1.101-1.707-2.203-2.455-3.308-0.061-0.089-0.133-0.179-0.193-0.268-0.78-1.172-1.488-2.348-2.079-3.53-44.113 44.111-130.68 8.822-130.68 79.4z"/><path style="fill:#a0d2f0" d="m53.054 313.82h-35.289c-4.872 0-8.822 3.95-8.822 8.822v8.822h52.933v-8.822c0-4.872-3.95-8.822-8.822-8.822z"/></g><g><path style="" d="m148.34 140.34h3.4241v1.0657h-2.1533v1.0181h2.0252v1.0657h-2.0252v2.3181h-1.2708v-5.4675z"/><path style="" d="m156.28 143.75v0.37353h-2.7576q0.0403 0.46143 0.29663 0.69214 0.26001 0.23071 0.72143 0.23071 0.37354 0 0.76172-0.12085 0.39185-0.12451 0.802-0.37353v1.0107q-0.41748 0.17578-0.83862 0.26367-0.41748 0.0916-0.83496 0.0916-1.0034 0-1.5601-0.56397-0.55298-0.56763-0.55298-1.5894 0-1.0034 0.54566-1.5784 0.54565-0.57496 1.5015-0.57496 0.87158 0 1.3916 0.58228 0.52369 0.58228 0.52369 1.5564zm-1.2122-0.43579q0-0.37354-0.19776-0.60059-0.19409-0.23071-0.51269-0.23071-0.34058 0-0.55664 0.21606-0.2124 0.2124-0.26734 0.61524h1.5344z"/><path style="" d="m160.86 143.75v0.37353h-2.7576q0.0403 0.46143 0.29663 0.69214 0.26001 0.23071 0.72143 0.23071 0.37354 0 0.76172-0.12085 0.39185-0.12451 0.80201-0.37353v1.0107q-0.41748 0.17578-0.83863 0.26367-0.41748 0.0916-0.83496 0.0916-1.0034 0-1.5601-0.56397-0.55298-0.56763-0.55298-1.5894 0-1.0034 0.54566-1.5784 0.54565-0.57496 1.5015-0.57496 0.87159 0 1.3916 0.58228 0.52368 0.58228 0.52368 1.5564zm-1.2122-0.43579q0-0.37354-0.19776-0.60059-0.19409-0.23071-0.51269-0.23071-0.34058 0-0.55664 0.21606-0.2124 0.2124-0.26734 0.61524h1.5344z"/><path style="" d="m164.28 142.31v-2.1973h1.1865v5.6982h-1.1865v-0.59326q-0.24536 0.36255-0.53833 0.53101t-0.68115 0.16846q-0.68115 0-1.1206-0.60059-0.43579-0.60425-0.43579-1.5527 0-0.94848 0.43579-1.5491 0.43946-0.60425 1.1206-0.60425 0.38452 0 0.67749 0.17212 0.29663 0.16846 0.54199 0.52735zm-0.78003 2.655q0.38086 0 0.57862-0.30762 0.20141-0.30762 0.20141-0.89356 0-0.58593-0.20141-0.89355-0.19776-0.30762-0.57862-0.30762-0.37353 0-0.57495 0.30762-0.19775 0.30762-0.19775 0.89355 0 0.58594 0.19775 0.89356 0.20142 0.30762 0.57495 0.30762z"/><path style="" d="m168.58 144.96q0.38086 0 0.57861-0.30762 0.20142-0.30762 0.20142-0.89356 0-0.58593-0.20142-0.89355-0.19775-0.30762-0.57861-0.30762-0.3772 0-0.58228 0.31128-0.20141 0.30762-0.20141 0.88989 0 0.58228 0.20141 0.89356 0.20508 0.30762 0.58228 0.30762zm-0.78369-2.655q0.24536-0.35889 0.54199-0.52735 0.29663-0.17212 0.68115-0.17212 0.68115 0 1.1206 0.60425 0.43945 0.60059 0.43945 1.5491 0 0.94849-0.43945 1.5527-0.43946 0.60059-1.1206 0.60059-0.38452 0-0.68115-0.16846-0.29663-0.17212-0.54199-0.53101v0.59326h-1.1792v-5.6982h1.1792v2.1973z"/><path style="" d="m173.1 143.96q-0.36988 0-0.55664 0.13916-0.18677 0.13916-0.18677 0.41016 0 0.24902 0.15014 0.39184 0.15015 0.13916 0.41749 0.13916 0.33325 0 0.5603-0.26367 0.22705-0.26733 0.22705-0.6665v-0.15015h-0.61157zm1.8018-0.49438v2.3401h-1.1902v-0.60791q-0.23804 0.37354-0.53467 0.54566-0.29663 0.16846-0.72143 0.16846-0.57496 0-0.93384-0.36988-0.35523-0.37353-0.35523-0.96679 0-0.72144 0.44678-1.0584 0.44678-0.33692 1.4026-0.33692h0.6958v-0.10254q0-0.31128-0.22339-0.4541-0.21973-0.14648-0.68481-0.14648-0.38086 0-0.70679 0.0842t-0.60791 0.25269v-0.99976q0.38086-0.10253 0.76172-0.1538 0.38452-0.0549 0.76538-0.0549 0.99975 0 1.4429 0.43946 0.44311 0.43579 0.44311 1.4209z"/><path style="" d="m178.98 141.83v1.0693q-0.23803-0.1831-0.48339-0.27099-0.2417-0.0879-0.50171-0.0879-0.49439 0-0.76905 0.32227-0.27465 0.3186-0.27465 0.89355 0 0.57496 0.27465 0.89722 0.27466 0.31861 0.76905 0.31861 0.27832 0 0.52734-0.0916 0.24902-0.0915 0.45776-0.27099v1.073q-0.27465 0.11353-0.5603 0.16846-0.28564 0.0586-0.57129 0.0586-0.99975 0-1.5637-0.56763-0.56396-0.57129-0.56396-1.5857t0.56396-1.582q0.56397-0.57129 1.5637-0.57129 0.28931 0 0.57129 0.0586 0.28198 0.0549 0.5603 0.16846z"/><path style="" d="m180 140.11h1.1792v3.1018l1.3586-1.5051h1.3696l-1.8018 1.8823 1.9446 2.2192h-1.4319l-1.4392-1.7102v1.7102h-1.1792v-5.6982z"/></g><g transform="matrix(-.177 0 0 .177 177.17 48.968)"><path style="fill:#ef7954" d="m182.46-56.524h-8.135v-11.756h8.135c17.53 0 31.792-14.262 31.792-31.792s-14.262-31.792-31.792-31.792h-125.84c-18.267 0-33.129-14.862-33.129-33.129s14.862-33.129 33.129-33.129h9.617c12.669 0 22.976-10.307 22.976-22.976h11.756c0 19.151-15.581 34.732-34.732 34.732h-9.617c-11.785 0-21.373 9.588-21.373 21.373s9.588 21.373 21.373 21.373h125.84c24.013 0 43.548 19.536 43.548 43.548s-19.535 43.548-43.548 43.548z"/><rect style="fill:#b3b3b3" height="48.815" width="28.561" y="-41.563" x="103.58"/><rect style="fill:#999" height="45.947" width="14.174" y="-13.772" x="103.58"/><path style="fill:#ccc" d="m157.41 32.174c0 4.072-1.208 7.919-3.612 11.318-3.773 5.365-10.516 9.597-20.135 11.841-2.073 0.481-4.275 0.876-6.615 1.165-3.163 0.395-6.573 0.598-10.228 0.598-5.995 0-11.499-2.116-15.796-5.643-5.568-4.574-9.116-11.51-9.116-19.28 0-0.192 0-0.385 0.011-0.566 0.011-0.705 0.053-1.411 0.128-2.095 1.336-12.515 11.905-22.261 24.773-22.261 3.762 0 7.235 0.192 10.431 0.556 3.537 0.395 6.744 1.015 9.608 1.806 13.744 3.815 20.006 11.852 20.519 21.278 0.021 0.428 0.032 0.856 0.032 1.283z"/><polygon style="fill:#999" points="268.68 354.13 285.24 419.54 267.43 419.54 243.52 345.96 312.4 295.91 381.29 345.96 375.19 419.54 337.02 412.93 356.13 354.13 312.4 322.37" transform="translate(-197.72 -280.84)"/><polygon style="fill:#ccc" points="286.5 354.13 305.6 412.93 285.24 419.54 261.33 345.96 330.22 295.91 399.1 345.96 375.19 419.54 354.84 412.93 373.94 354.13 330.22 322.37" transform="translate(-197.72 -280.84)"/><path style="fill:#808080" d="m-109.44-13.772h168.09c24.852 0 44.998-20.146 44.998-44.998v-6.184c0-24.852-20.146-44.998-44.998-44.998h-168.09c-24.852 0-44.998 20.146-44.998 44.998v6.184c0 24.851 20.146 44.998 44.998 44.998z"/><path style="fill:#999" d="m-27.007-13.772h168.09c24.852 0 44.998-20.146 44.998-44.998v-6.184c0-24.852-20.146-44.998-44.998-44.998h-168.09c-24.852 0-44.998 20.146-44.998 44.998v6.184c0 24.851 20.146 44.998 44.998 44.998z"/><path style="fill:#ccc" d="m-23.916-41.559c-11.194 0-20.302-9.108-20.302-20.303s9.108-20.303 20.302-20.303h161.9c11.194 0 20.302 9.108 20.302 20.303s-9.108 20.303-20.302 20.303h-161.9z"/><rect style="fill:#ccc" height="34.464" width="286.12" y="-255.56" x="-125.58"/><rect style="fill:#b3b3b3" height="34.464" width="72.135" y="-255.56" x="-197.72"/><rect style="fill:#999" height="166.71" width="107.13" y="-221.1" x="-166.99"/><path style="fill:#b3b3b3" d="m12.272-276.65h-72.135v222.27h45.602c14.654 0 26.533-11.879 26.533-26.533v-195.73z"/><path style="fill:#74a3af" d="m-41.69 31.641h-37.949c-25.041 0-45.413-20.372-45.413-45.413v-40.615h11.756v40.615c0 18.559 15.099 33.657 33.657 33.657h37.949c18.558 0 33.657-15.098 33.657-33.657h11.756c0 25.041-20.372 45.413-45.413 45.413z"/><rect style="fill:#999" height="21.089" width="32.06" y="-276.65" x="-91.923"/><rect style="fill:#999" height="21.089" width="32.06" y="-276.65" x="-166.99"/><rect style="fill:#b3b3b3" height="21.089" width="32.06" y="-276.65" x="-134.93"/><rect style="fill:#999" height="69.281" width="13.965" y="-276.65" x="-73.828"/><path style="fill:#808080" d="m-3.2929-89.103c0 9.052-7.331 16.394-16.383 16.394-1.475 0-2.918-0.192-4.275-0.566-6.979-1.881-12.119-8.261-12.119-15.828 0-7.566 5.14-13.936 12.119-15.817 1.357-0.374 2.8-0.566 4.275-0.566 9.052-0.001 16.383 7.331 16.383 16.383z"/><path style="fill:#999" d="m-11.842-89.103c0 7.567-5.13 13.947-12.109 15.828-6.979-1.881-12.119-8.261-12.119-15.828 0-7.566 5.14-13.936 12.119-15.817 6.979 1.881 12.109 8.25 12.109 15.817z"/><rect style="fill:#808080" height="123.97" width="76.947" y="-206.66" x="-151.9"/><rect style="fill:#b3b3b3" height="123.97" width="18.938" y="-206.66" x="-151.9"/><rect style="fill:#ef7954" height="10.687" width="58.009" y="-189.2" x="-132.96"/><rect style="fill:#ef7954" height="10.687" width="58.009" y="-122.23" x="-132.96"/><path style="fill:#74a3af" d="m-112.66-82.688h-10.687v-49.873c0-11.589 9.428-21.018 21.017-21.018 5.696 0 10.331-4.634 10.331-10.331v-42.749h10.687v42.749c0 11.589-9.428 21.018-21.018 21.018-5.696 0-10.33 4.634-10.33 10.331v49.873z"/><path style="fill:#ccc" d="m138.86 8.0748-1.998 1.539-14.406 11.104-14.876 11.457h-15.667l0.032-0.577 0.107-2.084c1.336-12.515 11.905-22.261 24.773-22.261h15.678c2.2-0.001 4.326 0.288 6.357 0.822z"/><path style="fill:#808080" d="m157.41 32.174c0 4.264-1.069 8.283-2.96 11.799-3.708 6.893-10.57 11.841-18.66 12.899-1.069 0.15-2.17 0.224-3.292 0.224-1.87 0-3.698-0.203-5.451-0.598-6.989-1.56-12.867-6.049-16.277-12.119-2.041-3.602-3.195-7.77-3.195-12.205 0-6.295 2.34-12.044 6.199-16.437 3.452-3.944 8.154-6.786 13.476-7.93 1.689-0.363 3.452-0.556 5.247-0.556 2.201 0 4.328 0.289 6.359 0.823 10.281 2.704 17.965 11.82 18.521 22.817 0.022 0.428 0.033 0.856 0.033 1.283z"/><path style="fill:#ccc" d="m142.54 32.174c0 5.547-4.499 10.046-10.046 10.046-1.614 0-3.131-0.374-4.478-1.058-3.302-1.646-5.568-5.055-5.568-8.988s2.266-7.342 5.568-8.988c1.347-0.684 2.864-1.058 4.478-1.058 5.547 0.001 10.046 4.5 10.046 10.046z"/><path style="fill:#999" d="m133.58 32.174c0 3.933-2.266 7.342-5.557 8.988-3.302-1.646-5.568-5.055-5.568-8.988s2.266-7.342 5.568-8.988c3.291 1.646 5.557 5.056 5.557 8.988z"/></g><g style="fill:#ccc"><path style="" d="m9.3143 92.906v3.3362h0.4541q0.77637 0 1.1865-0.42847 0.41016-0.42847 0.41016-1.2451 0-0.81299-0.41016-1.2378-0.40649-0.4248-1.1865-0.4248h-0.4541zm-1.2708-1.066h1.3403q1.1206 0 1.6663 0.17944 0.54932 0.17578 0.94116 0.60059 0.3479 0.36987 0.51636 0.85327t0.16846 1.095q0 0.6189-0.16846 1.106-0.16846 0.4834-0.51636 0.85327-0.39551 0.4248-0.94849 0.60425-0.55298 0.17578-1.6589 0.17578h-1.3403v-5.4675z"/><path style="" d="m17.272 95.246v0.37354h-2.7576q0.04028 0.46143 0.29663 0.69214 0.26001 0.23071 0.72144 0.23071 0.37354 0 0.76172-0.12085 0.39185-0.12451 0.802-0.37354v1.0107q-0.41748 0.17578-0.83862 0.26367-0.41748 0.09155-0.83496 0.09155-1.0034 0-1.5601-0.56396-0.55298-0.56763-0.55298-1.5894 0-1.0034 0.54566-1.5784 0.54565-0.57495 1.5015-0.57495 0.87158 0 1.3916 0.58228 0.52368 0.58228 0.52368 1.5564zm-1.2122-0.43579q0-0.37354-0.19775-0.60059-0.19409-0.23071-0.5127-0.23071-0.34058 0-0.55664 0.21606-0.2124 0.2124-0.26733 0.61524h1.5344z"/><path style="" d="m17.708 93.206h1.1792l0.91919 2.8345 0.91553-2.8345h1.1829l-1.4502 4.1016h-1.2964l-1.4502-4.1016z"/><path style="" d="m26.252 95.246v0.37354h-2.7576q0.04028 0.46143 0.29663 0.69214 0.26001 0.23071 0.72144 0.23071 0.37354 0 0.76172-0.12085 0.39184-0.12451 0.802-0.37354v1.0107q-0.41748 0.17578-0.83862 0.26367-0.41748 0.09155-0.83496 0.09155-1.0034 0-1.5601-0.56396-0.55298-0.56763-0.55298-1.5894 0-1.0034 0.54566-1.5784 0.54565-0.57495 1.5015-0.57495 0.87158 0 1.3916 0.58228 0.52368 0.58228 0.52368 1.5564zm-1.213-0.436q0-0.37354-0.19775-0.60059-0.19409-0.23071-0.5127-0.23071-0.34058 0-0.55664 0.21606-0.2124 0.2124-0.26733 0.61524h1.5344z"/><path style="" d="m27.152 91.609h1.1792v5.6982h-1.1792v-5.6982z"/><path style="" d="m31.236 94.044q-0.39185 0-0.59692 0.31494-0.20508 0.31128-0.20508 0.90088t0.20508 0.90454q0.20508 0.31128 0.59692 0.31128 0.38818 0 0.5896-0.31128 0.20508-0.31494 0.20508-0.90454t-0.20508-0.90088q-0.20142-0.31494-0.5896-0.31494zm0-0.9375q0.95581 0 1.4905 0.57129 0.53467 0.57129 0.53467 1.582t-0.53467 1.582q-0.53467 0.57129-1.4905 0.57129-0.95215 0-1.4941-0.57129-0.53833-0.57129-0.53833-1.582t0.53833-1.582q0.54199-0.57129 1.4941-0.57129z"/><path style="" d="m35.304 96.714v2.1533h-1.1792v-5.6616h1.1792v0.60059q0.24536-0.35889 0.54199-0.52734 0.29663-0.17212 0.68115-0.17212 0.68115 0 1.1206 0.60425 0.43945 0.60059 0.43945 1.5491 0 0.94849-0.43945 1.5527-0.43945 0.60059-1.1206 0.60059-0.38452 0-0.68115-0.16846-0.29663-0.17212-0.54199-0.53101zm0.78369-2.655q-0.3772 0-0.58228 0.31128-0.20142 0.30762-0.20142 0.88989 0 0.58228 0.20142 0.89356 0.20508 0.30762 0.58228 0.30762 0.38086 0 0.57861-0.30762 0.20142-0.30762 0.20142-0.89356t-0.20142-0.89356q-0.19775-0.30762-0.57861-0.30762z"/><path style="" d="m42.643 95.246v0.37354h-2.7576q0.04028 0.46143 0.29663 0.69214 0.26001 0.23071 0.72144 0.23071 0.37354 0 0.76172-0.12085 0.39185-0.12451 0.802-0.37354v1.0107q-0.41748 0.17578-0.83862 0.26367-0.41748 0.09155-0.83496 0.09155-1.0034 0-1.5601-0.56396-0.55298-0.56763-0.55298-1.5894 0-1.0034 0.54565-1.5784 0.54566-0.57495 1.5015-0.57495 0.87158 0 1.3916 0.58228 0.52368 0.58228 0.52368 1.5564zm-1.2122-0.43579q0-0.37354-0.19775-0.60059-0.19409-0.23071-0.5127-0.23071-0.34058 0-0.55664 0.21606-0.2124 0.2124-0.26733 0.61524h1.5344z"/><path style="" d="m46.287 94.323q-0.15747-0.08057-0.31128-0.11719-0.15015-0.04028-0.30762-0.04028-0.4541 0-0.69946 0.32593-0.24536 0.32227-0.24536 0.92651v1.8896h-1.1792v-4.1016h1.1792v0.67383q0.22705-0.40283 0.52002-0.58594 0.29663-0.18677 0.71045-0.18677 0.05859 0 0.12817 0.0073 0.06958 0.0037 0.20142 0.02197l0.0037 1.1865z"/></g><g style="fill:#ccc"><path style="" d="m302.63 97.308q-0.35157 0.20142-0.73242 0.30396-0.3772 0.10254-0.78736 0.10254-1.2305 0-1.9482-0.76172-0.71777-0.76538-0.71777-2.0728 0-1.311 0.71777-2.0728 0.71777-0.76538 1.9482-0.76538 0.41016 0 0.78736 0.10254 0.38085 0.10254 0.73242 0.30396v1.1316q-0.35523-0.26733-0.69947-0.39185-0.34057-0.12451-0.71777-0.12451-0.68115 0-1.0693 0.4834-0.38819 0.4834-0.38819 1.333 0 0.84595 0.38819 1.3293 0.38818 0.4834 1.0693 0.4834 0.3772 0 0.71777-0.12451 0.34424-0.12451 0.69947-0.39184v1.1316z"/><path style="" d="m303.58 96.012v-2.5049h1.1865v0.41016q0 0.33325-0.004 0.83862-0.004 0.50171-0.004 0.67017 0 0.49438 0.022 0.71411 0.0256 0.21606 0.0806 0.31494 0.0732 0.12817 0.19043 0.19775 0.11718 0.06958 0.26733 0.06958 0.36987 0 0.57861-0.31494 0.21241-0.31494 0.21241-0.87524v-2.0251h1.1792v4.1016h-1.1792v-0.59326q-0.26734 0.35889-0.56763 0.53101-0.29663 0.16846-0.65552 0.16846-0.63721 0-0.97412-0.43579-0.33325-0.43579-0.33325-1.2671z"/><path style="" d="m311.31 93.635v0.99609q-0.3772-0.17578-0.73242-0.26367-0.35157-0.08789-0.66284-0.08789-0.33692 0-0.50171 0.09521-0.16114 0.09155-0.16114 0.28564 0 0.15747 0.12085 0.2417 0.12451 0.08423 0.44678 0.12451l0.20508 0.03296q0.9082 0.12817 1.2195 0.42114 0.31494 0.29297 0.31494 0.91919 0 0.65552-0.43579 0.98511t-1.3 0.32959q-0.36621 0-0.75805-0.06592-0.38819-0.06226-0.79834-0.19043v-0.99609q0.35156 0.19043 0.72143 0.28564 0.37354 0.09521 0.7544 0.09521 0.34423 0 0.52002-0.1062 0.17578-0.1062 0.17578-0.31494 0-0.17578-0.12085-0.26001-0.12085-0.08789-0.47974-0.1355l-0.20874-0.0293q-0.78735-0.10986-1.106-0.40649-0.31494-0.29663-0.31494-0.90088 0-0.65186 0.40283-0.9668 0.40284-0.31494 1.2341-0.31494 0.32592 0 0.68481 0.05493t0.78003 0.17212z"/><path style="" d="m313.74 92.343v1.1646h1.2158v0.9375h-1.2158v1.7395q0 0.28564 0.0989 0.38818 0.10254 0.09888 0.40649 0.09888h0.60791v0.9375h-1.0107q-0.69946 0-0.99243-0.32227-0.29297-0.32593-0.29297-1.1023v-1.7395h-0.58594v-0.9375h0.58594v-1.1646h1.1829z"/><path style="" d="m317.45 94.346q-0.39184 0-0.59692 0.31494-0.20508 0.31128-0.20508 0.90088t0.20508 0.90454q0.20508 0.31128 0.59692 0.31128 0.38819 0 0.5896-0.31128 0.20508-0.31494 0.20508-0.90454t-0.20508-0.90088q-0.20141-0.31494-0.5896-0.31494zm0-0.9375q0.95581 0 1.4905 0.57129 0.53467 0.57129 0.53467 1.582t-0.53467 1.582q-0.53467 0.57129-1.4905 0.57129-0.95214 0-1.4941-0.57129-0.53833-0.57129-0.53833-1.582t0.53833-1.582q0.542-0.57129 1.4941-0.57129z"/><path style="" d="m323.76 94.188q0.22339-0.38086 0.531-0.57861 0.30762-0.20142 0.67749-0.20142 0.63721 0 0.97046 0.43579 0.33326 0.43579 0.33326 1.2671v2.4976h-1.1865v-2.1387q0.004-0.04761 0.004-0.09888 0.004-0.05127 0.004-0.14648 0-0.43579-0.11719-0.62988-0.11353-0.19775-0.37354-0.19775-0.33325 0-0.51635 0.30762-0.18311 0.30762-0.19043 0.88989v2.0142h-1.1865v-2.1387q0-0.68115-0.1062-0.87524-0.1062-0.19775-0.3772-0.19775-0.33691 0-0.52368 0.31128-0.1831 0.30762-0.1831 0.88257v2.0178h-1.1865v-4.1016h1.1865v0.60059q0.21606-0.3479 0.49804-0.52368 0.28199-0.17578 0.62256-0.17578 0.38086 0 0.67383 0.20508 0.29663 0.20508 0.44678 0.57495z"/><path style="" d="m331.05 95.547v0.37354h-2.7576q0.0403 0.46143 0.29663 0.69214 0.26001 0.23071 0.72144 0.23071 0.37353 0 0.76172-0.12085 0.39184-0.12451 0.802-0.37354v1.0107q-0.41748 0.17578-0.83862 0.26367-0.41748 0.09155-0.83496 0.09155-1.0034 0-1.5601-0.56396-0.55298-0.56763-0.55298-1.5894 0-1.0034 0.54565-1.5784 0.54566-0.57495 1.5015-0.57495 0.87158 0 1.3916 0.58228 0.52368 0.58228 0.52368 1.5564zm-1.2122-0.43579q0-0.37354-0.19775-0.60059-0.19409-0.23071-0.5127-0.23071-0.34057 0-0.55664 0.21606-0.2124 0.2124-0.26733 0.61523h1.5344z"/><path style="" d="m334.7 94.624q-0.15747-0.08057-0.31128-0.11719-0.15015-0.04028-0.30762-0.04028-0.4541 0-0.69946 0.32593-0.24536 0.32227-0.24536 0.92651v1.8896h-1.1792v-4.1016h1.1792v0.67383q0.22705-0.40283 0.52002-0.58594 0.29663-0.18677 0.71045-0.18677 0.0586 0 0.12817 0.0073 0.0696 0.0037 0.20142 0.02197l0.004 1.1865z"/><path style="" d="m338.17 93.635v0.99609q-0.37719-0.17578-0.73242-0.26367-0.35156-0.08789-0.66284-0.08789-0.33691 0-0.50171 0.09521-0.16113 0.09155-0.16113 0.28564 0 0.15747 0.12085 0.2417 0.12451 0.08423 0.44677 0.12451l0.20508 0.03296q0.90821 0.12817 1.2195 0.42114 0.31494 0.29297 0.31494 0.91919 0 0.65552-0.43579 0.98511-0.4358 0.32959-1.3 0.32959-0.36621 0-0.75806-0.06592-0.38818-0.06226-0.79834-0.19043v-0.99609q0.35156 0.19043 0.72144 0.28564 0.37353 0.09521 0.75439 0.09521 0.34424 0 0.52002-0.1062t0.17578-0.31494q0-0.17578-0.12085-0.26001-0.12085-0.08789-0.47973-0.1355l-0.20875-0.0293q-0.78735-0.10986-1.106-0.40649-0.31494-0.29663-0.31494-0.90088 0-0.65186 0.40283-0.9668t1.2341-0.31494q0.32593 0 0.68481 0.05493 0.35889 0.05493 0.78003 0.17212z"/></g></svg>
