<?xml version="1.0" encoding="UTF-8" standalone="no"?>
<svg xmlns:rdf="http://www.w3.org/1999/02/22-rdf-syntax-ns#" xmlns="http://www.w3.org/2000/svg" height="20.748mm" width="21.166mm" version="1.1" xmlns:cc="http://creativecommons.org/ns#" xmlns:dc="http://purl.org/dc/elements/1.1/" viewBox="0 0 74.998849 73.515958">
<g transform="translate(-188.21 -398.46)">
<g transform="matrix(-0.177 0 0 0.177 228.22 447.43)">
<path style="fill:#ef7954" d="m182.46-56.524h-8.135v-11.756h8.135c17.53 0 31.792-14.262 31.792-31.792s-14.262-31.792-31.792-31.792h-125.84c-18.267 0-33.129-14.862-33.129-33.129s14.862-33.129 33.129-33.129h9.617c12.669 0 22.976-10.307 22.976-22.976h11.756c0 19.151-15.581 34.732-34.732 34.732h-9.617c-11.785 0-21.373 9.588-21.373 21.373s9.588 21.373 21.373 21.373h125.84c24.013 0 43.548 19.536 43.548 43.548s-19.535 43.548-43.548 43.548z"/>
<rect style="fill:#b3b3b3" height="48.815" width="28.561" y="-41.563" x="103.58"/>
<rect style="fill:#999" height="45.947" width="14.174" y="-13.772" x="103.58"/>
<path style="fill:#ccc" d="m157.41 32.174c0 4.072-1.208 7.919-3.612 11.318-3.773 5.365-10.516 9.597-20.135 11.841-2.073 0.481-4.275 0.876-6.615 1.165-3.163 0.395-6.573 0.598-10.228 0.598-5.995 0-11.499-2.116-15.796-5.643-5.568-4.574-9.116-11.51-9.116-19.28 0-0.192 0-0.385 0.011-0.566 0.011-0.705 0.053-1.411 0.128-2.095 1.336-12.515 11.905-22.261 24.773-22.261 3.762 0 7.235 0.192 10.431 0.556 3.537 0.395 6.744 1.015 9.608 1.806 13.744 3.815 20.006 11.852 20.519 21.278 0.021 0.428 0.032 0.856 0.032 1.283z"/>
<polygon style="fill:#999" points="356.13 354.13 312.4 322.37 268.68 354.13 285.24 419.54 267.43 419.54 243.52 345.96 312.4 295.91 381.29 345.96 375.19 419.54 337.02 412.93" transform="translate(-197.72,-280.84)"/>
<polygon style="fill:#ccc" points="373.94 354.13 330.22 322.37 286.5 354.13 305.6 412.93 285.24 419.54 261.33 345.96 330.22 295.91 399.1 345.96 375.19 419.54 354.84 412.93" transform="translate(-197.72,-280.84)"/>
<path style="fill:#808080" d="m-109.44-13.772h168.09c24.852 0 44.998-20.146 44.998-44.998v-6.184c0-24.852-20.146-44.998-44.998-44.998h-168.09c-24.852 0-44.998 20.146-44.998 44.998v6.184c0 24.851 20.146 44.998 44.998 44.998z"/>
<path style="fill:#999" d="m-27.007-13.772h168.09c24.852 0 44.998-20.146 44.998-44.998v-6.184c0-24.852-20.146-44.998-44.998-44.998h-168.09c-24.852 0-44.998 20.146-44.998 44.998v6.184c0 24.851 20.146 44.998 44.998 44.998z"/>
<path style="fill:#ccc" d="m-23.916-41.559c-11.194 0-20.302-9.108-20.302-20.303s9.108-20.303 20.302-20.303h161.9c11.194 0 20.302 9.108 20.302 20.303s-9.108 20.303-20.302 20.303h-161.9z"/>
<rect style="fill:#ccc" height="34.464" width="286.12" y="-255.56" x="-125.58"/>
<rect style="fill:#b3b3b3" height="34.464" width="72.135" y="-255.56" x="-197.72"/>
<rect style="fill:#999" height="166.71" width="107.13" y="-221.1" x="-166.99"/>
<path style="fill:#b3b3b3" d="m12.272-276.65h-72.135v222.27h45.602c14.654 0 26.533-11.879 26.533-26.533v-195.73z"/>
<path style="fill:#74a3af" d="m-41.69 31.641h-37.949c-25.041 0-45.413-20.372-45.413-45.413v-40.615h11.756v40.615c0 18.559 15.099 33.657 33.657 33.657h37.949c18.558 0 33.657-15.098 33.657-33.657h11.756c0 25.041-20.372 45.413-45.413 45.413z"/>
<rect style="fill:#999" height="21.089" width="32.06" y="-276.65" x="-91.923"/>
<rect style="fill:#999" height="21.089" width="32.06" y="-276.65" x="-166.99"/>
<rect style="fill:#b3b3b3" height="21.089" width="32.06" y="-276.65" x="-134.93"/>
<rect style="fill:#999" height="69.281" width="13.965" y="-276.65" x="-73.828"/>
<path style="fill:#808080" d="m-3.2929-89.103c0 9.052-7.331 16.394-16.383 16.394-1.475 0-2.918-0.192-4.275-0.566-6.979-1.881-12.119-8.261-12.119-15.828 0-7.566 5.14-13.936 12.119-15.817 1.357-0.374 2.8-0.566 4.275-0.566 9.052-0.001 16.383 7.331 16.383 16.383z"/>
<path style="fill:#999" d="m-11.842-89.103c0 7.567-5.13 13.947-12.109 15.828-6.979-1.881-12.119-8.261-12.119-15.828 0-7.566 5.14-13.936 12.119-15.817 6.979 1.881 12.109 8.25 12.109 15.817z"/>
<rect style="fill:#808080" height="123.97" width="76.947" y="-206.66" x="-151.9"/>
<rect style="fill:#b3b3b3" height="123.97" width="18.938" y="-206.66" x="-151.9"/>
<rect style="fill:#ef7954" height="10.687" width="58.009" y="-189.2" x="-132.96"/>
<rect style="fill:#ef7954" height="10.687" width="58.009" y="-122.23" x="-132.96"/>
<path style="fill:#74a3af" d="m-112.66-82.688h-10.687v-49.873c0-11.589 9.428-21.018 21.017-21.018 5.696 0 10.331-4.634 10.331-10.331v-42.749h10.687v42.749c0 11.589-9.428 21.018-21.018 21.018-5.696 0-10.33 4.634-10.33 10.331v49.873z"/>
<path style="fill:#ccc" d="m138.86 8.0748-1.998 1.539-14.406 11.104-14.876 11.457h-15.667l0.032-0.577 0.107-2.084c1.336-12.515 11.905-22.261 24.773-22.261h15.678c2.2-0.001 4.326 0.288 6.357 0.822z"/>
<path style="fill:#808080" d="m157.41 32.174c0 4.264-1.069 8.283-2.96 11.799-3.708 6.893-10.57 11.841-18.66 12.899-1.069 0.15-2.17 0.224-3.292 0.224-1.87 0-3.698-0.203-5.451-0.598-6.989-1.56-12.867-6.049-16.277-12.119-2.041-3.602-3.195-7.77-3.195-12.205 0-6.295 2.34-12.044 6.199-16.437 3.452-3.944 8.154-6.786 13.476-7.93 1.689-0.363 3.452-0.556 5.247-0.556 2.201 0 4.328 0.289 6.359 0.823 10.281 2.704 17.965 11.82 18.521 22.817 0.022 0.428 0.033 0.856 0.033 1.283z"/>
<path style="fill:#ccc" d="m142.54 32.174c0 5.547-4.499 10.046-10.046 10.046-1.614 0-3.131-0.374-4.478-1.058-3.302-1.646-5.568-5.055-5.568-8.988s2.266-7.342 5.568-8.988c1.347-0.684 2.864-1.058 4.478-1.058 5.547 0.001 10.046 4.5 10.046 10.046z"/>
<path style="fill:#999" d="m133.58 32.174c0 3.933-2.266 7.342-5.557 8.988-3.302-1.646-5.568-5.055-5.568-8.988s2.266-7.342 5.568-8.988c3.291 1.646 5.557 5.056 5.557 8.988z"/>
</g>
<g transform="matrix(.99999 0 0 .99999 41.05 398.46)">
<path d="m166.8 36.991q-0.21001-0.98251-1.17-0.98251-0.66751 0-1.0425 0.51001-0.37501 0.51001-0.37501 1.4175 0 0.89251 0.36001 1.395 0.3675 0.50251 1.02 0.50251 0.52501 0 0.84001-0.285t0.36751-0.81001h1.095q-0.0525 0.93751-0.68251 1.4925-0.63001 0.54751-1.65 0.54751-1.14 0-1.8075-0.76501-0.6675-0.77251-0.6675-2.0925 0-1.3275 0.675-2.1 0.67501-0.77251 1.83-0.77251 0.96751 0 1.5825 0.51751 0.62251 0.51751 0.69751 1.425h-1.0725z"/>
<path d="m169.92 35.138v5.4676h-1.125v-5.4676h1.125z"/>
</g>
</g>
</svg>
