<?xml version="1.0" encoding="UTF-8"?>
<svg width="5.08mm" height="5.08mm" version="1.1" viewBox="0 0 5.0799999 5.0799999" xmlns="http://www.w3.org/2000/svg"><g transform="translate(207.4 -11.734)"><rect x="-206.86" y="12.274" width="4" height="4" fill="#fff" fill-rule="evenodd"/><path d="m-203.12 11.734h-3.4925c-0.44979 0-0.79375 0.34396-0.79375 0.79375v3.4925c0 0.42333 0.34396 0.79375 0.79375 0.79375h3.4925c0.4498 0 0.79375-0.37042 0.79375-0.79375v-3.4925c0-0.44979-0.37041-0.79375-0.79375-0.79375zm-0.39687 1.8256v0.07937c0 0.92604-0.71438 2.0108-2.0108 2.0108-0.39688 0-0.7673-0.10583-1.0848-0.3175h0.15875c0.34396 0 0.635-0.10583 0.87313-0.29104-0.3175 0-0.58208-0.21167-0.66146-0.50271h0.13229c0.0529 0 0.13229 0 0.18521-0.02646-0.3175-0.02646-0.55562-0.3175-0.55562-0.66146 0.10583 0.05292 0.21166 0.07937 0.3175 0.07937-0.18521-0.13229-0.3175-0.34396-0.3175-0.58208 0-0.13229 0.0264-0.26458 0.10583-0.34396 0.34396 0.42333 0.87312 0.71438 1.4552 0.74083 0-0.05292-0.0265-0.10583-0.0265-0.15875 0-0.39688 0.3175-0.71438 0.71438-0.71438 0.21166 0 0.39687 0.07938 0.52916 0.21167 0.15875-0.02646 0.3175-0.07938 0.44979-0.15875-0.0529 0.15875-0.15875 0.29104-0.3175 0.39688 0.13229-0.02646 0.26459-0.07938 0.39688-0.13229-0.10584 0.13229-0.21167 0.26458-0.34396 0.37042z" fill="#01acee" stroke-width=".26458"/></g></svg>
