<?xml version="1.0" encoding="UTF-8" standalone="no"?>
<svg xmlns:rdf="http://www.w3.org/1999/02/22-rdf-syntax-ns#" xmlns="http://www.w3.org/2000/svg" height="600" width="800" version="1.0" xmlns:cc="http://creativecommons.org/ns#" xmlns:xlink="http://www.w3.org/1999/xlink" xmlns:dc="http://purl.org/dc/elements/1.1/">
<defs>
<marker id="f" refY="0.0" refX="0.0" overflow="visible" orient="auto">
<path d="m0 0l5-5-17.5 5 17.5 5-5-5z" fill-rule="evenodd" transform="scale(.8) rotate(180) translate(12.5)" stroke="#e6e6e6" stroke-width="1pt" fill="#e6e6e6"/>
</marker>
<filter id="e" y="-.1417" width="1.1194" x="-.059692" height="1.2834">
<feGaussianBlur stdDeviation="5.4678548"/>
</filter>
</defs>
<g transform="translate(-98.931 -62.813)">
<use xlink:href="#a" transform="translate(120 120.07)" height="744.09448" width="1052.3622" y="0" x="0"/>
<use xlink:href="#a" transform="matrix(.99965 0 0 1 360.09 360.2)" height="744.09448" width="1052.3622" y="0" x="0"/>
<use xlink:href="#a" transform="matrix(.99973 0 0 .99962 240.07 240.45)" height="744.09448" width="1052.3622" y="0" x="0"/>
<use xlink:href="#a" transform="matrix(.99965 0 0 .99962 480.09 480.58)" height="744.09448" width="1052.3622" y="0" x="0"/>
<rect id="a" transform="matrix(1.0989 0 0 .87340 3.4078 35.3)" height="91.608" filter="url(#e)" width="218.84" stroke="#000" stroke-linecap="round" y="60.094" x="124" fill="#1f1f1f"/>
<rect height="80.477" width="240.5" stroke="#000" stroke-linecap="round" y="83.55" x="139.67" stroke-width="1.4739" fill="#ff8080"/>
<g transform="scale(.84064 1.1896)">
<path style="" d="m187.48 99.692q1.9878 0 2.842-0.73925 0.87067-0.73925 0.87067-2.4313 0-1.6756-0.87067-2.3984-0.85424-0.72282-2.842-0.72282h-2.6613v6.2918h2.6613zm-2.6613 4.3698v9.2817h-6.3247v-24.527h9.6595q4.8462 0 7.0968 1.6263 2.267 1.6263 2.267 5.1419 0 2.4313-1.1828 3.9919-1.1664 1.5606-3.532 2.2999 1.2978 0.2957 2.3163 1.3471 1.035 1.035 2.0863 3.1541l3.4334 6.9654h-6.7354l-2.9898-6.0947q-0.90352-1.8399-1.8399-2.5134-0.91996-0.67354-2.4642-0.67354h-1.7906z"/>
<path style="" d="m222.49 104.09v1.6756h-13.75q0.21356 2.0699 1.4949 3.1048 1.2814 1.035 3.5812 1.035 1.8563 0 3.7948-0.54212 1.9549-0.55854 4.0084-1.6756v4.5341q-2.0863 0.78853-4.1726 1.1828-2.0863 0.4107-4.1726 0.4107-4.994 0-7.7703-2.5299-2.7599-2.5463-2.7599-7.1296 0-4.5012 2.7106-7.0804 2.727-2.5792 7.491-2.5792 4.3369 0 6.9325 2.612 2.612 2.612 2.612 6.9818zm-6.0454-1.9549q0-1.6756-0.98566-2.6942-0.96924-1.0349-2.5463-1.0349-1.7085 0-2.7763 0.96924-1.0678 0.95281-1.3306 2.7599h7.6389z"/>
<path style="" d="m235.63 98.772q-1.8728 0-2.8748 1.3799-0.98566 1.3799-0.98566 4.0084 0 2.6284 0.98566 4.0084 1.0021 1.3799 2.8748 1.3799 1.8892 0 2.8749-1.3799 1.0021-1.3799 1.0021-4.0084 0-2.6284-1.0021-4.0084-0.98567-1.3799-2.8749-1.3799zm3.877 11.91q-1.2156 1.6264-2.6777 2.382-1.4621 0.75568-3.3841 0.75568-3.4006 0-5.5854-2.6942-2.1849-2.7106-2.1849-6.9654t2.1849-6.9325q2.1849-2.6941 5.5854-2.6941 1.922 0 3.3841 0.75568t2.6777 2.382v-2.727h5.914v25.397h-5.914v-9.6595z"/>
<path style="" d="m250.91 106.18v-11.237h5.914v1.8399q0 1.4949-0.0164 3.762-0.0164 2.2506-0.0164 3.0063 0 2.2178 0.11499 3.2034 0.11499 0.96924 0.39426 1.4128 0.36142 0.57497 0.93639 0.88709 0.59139 0.31213 1.3471 0.31213 1.8399 0 2.8913-1.4128t1.0514-3.9262v-9.0845h5.8811v18.399h-5.8811v-2.6613q-1.3306 1.6099-2.8256 2.382-1.4785 0.75568-3.2691 0.75568-3.187 0-4.8626-1.9549-1.6592-1.9549-1.6592-5.684z"/>
<path style="" d="m275.09 94.944h5.8811v18.399h-5.8811v-18.399zm0-7.1625h5.8811v4.7969h-5.8811v-4.7969z"/>
<path style="" d="m300.32 99.955q-0.77211-0.36141-1.5442-0.52569-0.75568-0.1807-1.5278-0.1807-2.267 0-3.4991 1.4621-1.2156 1.4456-1.2156 4.1562v8.4767h-5.8811v-18.399h5.8811v3.0227q1.1335-1.807 2.5956-2.6284 1.4785-0.83782 3.532-0.83782 0.2957 0 0.64069 0.03286 0.34498 0.01643 1.0021 0.09857l0.0164 5.3226z"/>
<path style="" d="m321.65 104.09v1.6756h-13.75q0.21356 2.0699 1.4949 3.1048 1.2814 1.035 3.5812 1.035 1.8563 0 3.7948-0.54212 1.9549-0.55854 4.0084-1.6756v4.5341q-2.0863 0.78853-4.1726 1.1828-2.0863 0.4107-4.1726 0.4107-4.994 0-7.7703-2.5299-2.7599-2.5463-2.7599-7.1296 0-4.5012 2.7106-7.0804 2.727-2.5792 7.491-2.5792 4.3369 0 6.9325 2.612 2.612 2.612 2.612 6.9818zm-6.0454-1.9549q0-1.6756-0.98566-2.6942-0.96924-1.0349-2.5463-1.0349-1.7085 0-2.7763 0.96924-1.0678 0.95281-1.3306 2.7599h7.6389z"/>
<path style="" d="m343.2 98q1.1171-1.7085 2.6449-2.5956 1.5442-0.90353 3.3841-0.90353 3.1706 0 4.8298 1.9549t1.6592 5.684v11.204h-5.914v-9.5938q0.0164-0.21356 0.0164-0.44355 0.0164-0.22999 0.0164-0.65711 0-1.9549-0.57497-2.8256-0.57497-0.8871-1.8563-0.8871-1.6756 0-2.5956 1.3799-0.90353 1.3799-0.93638 3.9919v9.0352h-5.914v-9.5938q0-3.0556-0.52569-3.9262-0.52568-0.8871-1.8728-0.8871-1.6921 0-2.612 1.3964-0.91995 1.3799-0.91995 3.9591v9.0517h-5.914v-18.399h5.914v2.6941q1.0842-1.5606 2.4806-2.3492 1.4128-0.78853 3.1048-0.78853 1.9056 0 3.3677 0.91995t2.2178 2.5792z"/>
<path style="" d="m379.6 104.09v1.6756h-13.75q0.21356 2.0699 1.4949 3.1048 1.2814 1.035 3.5812 1.035 1.8563 0 3.7948-0.54212 1.9549-0.55854 4.0084-1.6756v4.5341q-2.0863 0.78853-4.1726 1.1828-2.0863 0.4107-4.1726 0.4107-4.994 0-7.7703-2.5299-2.7598-2.5463-2.7598-7.1296 0-4.5012 2.7106-7.0804 2.727-2.5792 7.491-2.5792 4.3369 0 6.9325 2.612 2.612 2.612 2.612 6.9818zm-6.0454-1.9549q0-1.6756-0.98567-2.6942-0.96923-1.0349-2.5463-1.0349-1.7085 0-2.7763 0.96924-1.0678 0.95281-1.3306 2.7599h7.6389z"/>
<path style="" d="m402.6 102.14v11.204h-5.914v-1.8235-6.7518q0-2.382-0.11499-3.2856-0.0986-0.90353-0.36141-1.3306-0.34499-0.57497-0.93638-0.8871-0.5914-0.32855-1.3471-0.32855-1.8399 0-2.8913 1.4292-1.0514 1.4128-1.0514 3.9262v9.0517h-5.8811v-18.399h5.8811v2.6941q1.3306-1.6099 2.8256-2.3656 1.4949-0.7721 3.302-0.7721 3.187 0 4.8298 1.9549 1.6592 1.9549 1.6592 5.684z"/>
<path style="" d="m414.51 89.72v5.224h6.0618v4.2055h-6.0618v7.8032q0 1.2814 0.50926 1.7413 0.50926 0.44355 2.0206 0.44355h3.0227v4.2055h-5.0433q-3.4827 0-4.9448-1.4456-1.4456-1.4621-1.4456-4.9448v-7.8032h-2.9241v-4.2055h2.9241v-5.224h5.8811z"/>
<path style="" d="m438.56 95.519v4.4683q-1.8892-0.78853-3.647-1.1828t-3.3184-0.39427q-1.6756 0-2.497 0.42712-0.80496 0.41069-0.80496 1.2814 0 0.70639 0.60783 1.0842 0.62425 0.37784 2.2177 0.55854l1.035 0.14785q4.5176 0.57497 6.0783 1.8892 1.5606 1.3142 1.5606 4.1234 0 2.9406-2.1685 4.4191t-6.4725 1.4785q-1.8235 0-3.7784-0.2957-1.9385-0.27927-3.9919-0.85424v-4.4684q1.7578 0.85424 3.5977 1.2814 1.8563 0.42712 3.762 0.42712 1.7249 0 2.5956-0.47641 0.87067-0.4764 0.87067-1.4128 0-0.78853-0.60782-1.1664-0.5914-0.39427-2.382-0.60783l-1.035-0.13142q-3.9262-0.49283-5.5033-1.8235-1.5771-1.3306-1.5771-4.0412 0-2.9241 2.0042-4.3369t6.144-1.4128q1.6264 0 3.417 0.24642t3.8934 0.7721z"/>
</g>
<rect height="80.007" width="240.39" stroke="#000" stroke-linecap="round" y="203.85" x="259.73" stroke-width="1.4692" fill="#b69fef"/>
<g transform="scale(.86397 1.1574)">
<path style="" d="m382.17 199.93v15.381h2.33q3.9846 0 6.0782-1.9754 2.1105-1.9754 2.1105-5.7405 0-3.7482-2.0936-5.7067t-6.095-1.9585h-2.33zm-6.5003-4.9132h6.8548q5.7405 0 8.5432 0.82731 2.8196 0.81042 4.8288 2.7689 1.7728 1.7053 2.6339 3.9339 0.86108 2.2287 0.86108 5.0483 0 2.8534-0.86108 5.0989-0.86107 2.2287-2.6339 3.9339-2.026 1.9585-4.8625 2.7858-2.8365 0.81042-8.5094 0.81042h-6.8548v-25.208z"/>
<path style="" d="m422.98 210.72v1.7221h-14.132q0.21949 2.1274 1.5364 3.191 1.3169 1.0637 3.6807 1.0637 1.9079 0 3.9002-0.55717 2.0092-0.57405 4.1196-1.7221v4.6599q-2.1442 0.81042-4.2885 1.2156-2.1442 0.4221-4.2885 0.4221-5.1327 0-7.986-2.6001-2.8365-2.617-2.8365-7.3276 0-4.6262 2.7858-7.2769 2.8027-2.6508 7.699-2.6508 4.4573 0 7.125 2.6845 2.6845 2.6845 2.6845 7.1756zm-6.2132-2.0092q0-1.7222-1.013-2.769-0.99615-1.0637-2.617-1.0637-1.7559 0-2.8534 0.99614-1.0974 0.97926-1.3676 2.8365h7.851z"/>
<path style="" d="m442.38 201.9v4.5924q-1.9416-0.81042-3.7482-1.2156-1.8066-0.40521-3.4105-0.40521-1.7221 0-2.5663 0.43897-0.82731 0.4221-0.82731 1.3169 0 0.726 0.6247 1.1143 0.64159 0.38833 2.2793 0.57405l1.0637 0.15195q4.643 0.59093 6.247 1.9416t1.604 4.2378q0 3.0222-2.2287 4.5417t-6.6522 1.5195q-1.8741 0-3.8833-0.30391-1.9923-0.28702-4.1028-0.87796v-4.5924q1.8066 0.87796 3.6976 1.3169 1.9079 0.43898 3.8664 0.43898 1.7728 0 2.6676-0.48963 0.89484-0.48963 0.89484-1.452 0-0.81042-0.6247-1.1988-0.60782-0.40521-2.4482-0.6247l-1.0637-0.13507q-4.0352-0.50651-5.6561-1.8741-1.6208-1.3676-1.6208-4.1534 0-3.0053 2.0598-4.4573t6.3145-1.452q1.6715 0 3.5118 0.25326t4.0015 0.79354z"/>
<path style="" d="m448.14 201.31h6.0444v18.91h-6.0444v-18.91zm0-7.3613h6.0444v4.9301h-6.0444v-4.9301z"/>
<path style="" d="m472.89 217.01q-1.2494 1.6546-2.7521 2.4313-1.5026 0.77666-3.4781 0.77666-3.4612 0-5.7236-2.7183-2.2624-2.7352-2.2624-6.9561 0-4.2378 2.2624-6.9392 2.2624-2.7183 5.7236-2.7183 1.9754 0 3.4781 0.77666 1.5027 0.77665 2.7521 2.4481v-2.8027h6.0782v17.002q0 4.5586-2.8871 6.9561-2.8702 2.4144-8.3406 2.4144-1.7728 0-3.4274-0.27014t-3.3261-0.8273v-4.7106q1.5871 0.91173 3.1066 1.3507 1.5195 0.45587 3.056 0.45587 2.9716 0 4.356-1.3001 1.3845-1.3 1.3845-4.069v-1.3zm-3.9846-11.768q-1.8741 0-2.9209 1.3845t-1.0468 3.917q0 2.6001 1.013 3.9508 1.013 1.3338 2.9547 1.3338 1.891 0 2.9378-1.3845t1.0468-3.9002q0-2.5326-1.0468-3.917-1.0468-1.3845-2.9378-1.3845z"/>
<path style="" d="m503.82 208.71v11.515h-6.0782v-1.8741-6.9392q0-2.4482-0.11819-3.3768-0.1013-0.9286-0.37144-1.3676-0.35456-0.59094-0.96238-0.91173-0.60782-0.33767-1.3845-0.33767-1.891 0-2.9716 1.4689-1.0806 1.452-1.0806 4.0352v9.303h-6.0444v-18.91h6.0444v2.7689q1.3676-1.6546 2.904-2.4313 1.5364-0.79354 3.3936-0.79354 3.2755 0 4.9638 2.0092 1.7053 2.0092 1.7053 5.8418z"/>
</g>
<rect height="79.933" width="241.73" stroke="#000" stroke-linecap="round" y="324.23" x="379.05" stroke-width="1.4726" fill="#c5efa7"/>
<g transform="scale(.79977 1.2504)">
<path style="" d="m484.35 276.77h6.0171v23.334h-6.0171v-23.334z"/>
<path style="" d="m512.2 285.51q1.0628-1.6254 2.5162-2.4694 1.4691-0.85959 3.2196-0.85959 3.0164 0 4.5949 1.8598t1.5785 5.4076v10.659h-5.6264v-9.1273q0.0156-0.20318 0.0156-0.42198 0.0156-0.21881 0.0156-0.62516 0-1.8598-0.54702-2.6882-0.54701-0.84396-1.7661-0.84396-1.5942 0-2.4694 1.3128-0.85959 1.3128-0.89085 3.7978v8.5959h-5.6264v-9.1273q0-2.907-0.50013-3.7353-0.50012-0.84396-1.7817-0.84396-1.6098 0-2.485 1.3285-0.87522 1.3128-0.87522 3.7666v8.6115h-5.6264v-17.504h5.6264v2.5631q1.0315-1.4848 2.36-2.2349 1.3441-0.75018 2.9539-0.75018 1.813 0 3.2039 0.87521 1.391 0.87522 2.1099 2.4537z"/>
<path style="" d="m534.95 297.57v9.1898h-5.5951v-24.162h5.5951v2.5631q1.1565-1.5316 2.5631-2.2506 1.4066-0.73455 3.2352-0.73455 3.2352 0 5.3138 2.5788 2.0786 2.5631 2.0786 6.611t-2.0786 6.6267q-2.0786 2.5631-5.3138 2.5631-1.8286 0-3.2352-0.71893-1.4066-0.73456-2.5631-2.2662zm3.7197-11.331q-1.7973 0-2.7663 1.3285-0.95337 1.3128-0.95337 3.7978t0.95337 3.8135q0.96899 1.3128 2.7663 1.3128t2.7351-1.3128q0.95337-1.3128 0.95337-3.8135 0-2.5006-0.95337-3.8134-0.93773-1.3128-2.7351-1.3128z"/>
<path style="" d="m552.3 275.78h5.5952v24.319h-5.5952v-24.319z"/>
<path style="" d="m580.78 291.3v1.5942h-13.081q0.20317 1.9692 1.4222 2.9539 1.219 0.98462 3.4071 0.98462 1.7661 0 3.6103-0.51575 1.8598-0.53139 3.8134-1.5942v4.3136q-1.9849 0.75018-3.9697 1.1253-1.9849 0.39072-3.9697 0.39072-4.7512 0-7.3925-2.4068-2.6256-2.4225-2.6256-6.783 0-4.2823 2.5788-6.7361 2.5944-2.4537 7.1268-2.4537 4.126 0 6.5954 2.485 2.485 2.485 2.485 6.6423zm-5.7514-1.8598q0-1.5942-0.93773-2.5631-0.9221-0.98462-2.4225-0.98462-1.6254 0-2.6413 0.9221-1.0159 0.90648-1.266 2.6257h7.2674z"/>
<path style="" d="m601.28 285.51q1.0628-1.6254 2.5162-2.4694 1.4691-0.85959 3.2196-0.85959 3.0164 0 4.5949 1.8598t1.5785 5.4076v10.659h-5.6264v-9.1273q0.0156-0.20318 0.0156-0.42198 0.0156-0.21881 0.0156-0.62516 0-1.8598-0.54701-2.6882-0.54702-0.84396-1.7661-0.84396-1.5942 0-2.4694 1.3128-0.85959 1.3128-0.89085 3.7978v8.5959h-5.6264v-9.1273q0-2.907-0.50013-3.7353-0.50012-0.84396-1.7817-0.84396-1.6098 0-2.485 1.3285-0.87522 1.3128-0.87522 3.7666v8.6115h-5.6264v-17.504h5.6264v2.5631q1.0315-1.4848 2.36-2.2349 1.3441-0.75018 2.9539-0.75018 1.813 0 3.2039 0.87521 1.391 0.87522 2.1099 2.4537z"/>
<path style="" d="m635.92 291.3v1.5942h-13.081q0.20317 1.9692 1.4222 2.9539 1.219 0.98462 3.4071 0.98462 1.7661 0 3.6103-0.51575 1.8598-0.53139 3.8134-1.5942v4.3136q-1.9849 0.75018-3.9697 1.1253-1.9849 0.39072-3.9698 0.39072-4.7512 0-7.3925-2.4068-2.6256-2.4225-2.6256-6.783 0-4.2823 2.5788-6.7361 2.5944-2.4537 7.1268-2.4537 4.126 0 6.5954 2.485 2.485 2.485 2.485 6.6423zm-5.7514-1.8598q0-1.5942-0.93773-2.5631-0.92211-0.98462-2.4225-0.98462-1.6254 0-2.6413 0.9221-1.0159 0.90648-1.2659 2.6257h7.2674z"/>
<path style="" d="m657.8 289.44v10.659h-5.6264v-1.7348-6.4235q0-2.2662-0.1094-3.1258-0.0938-0.85959-0.34383-1.2659-0.32821-0.54701-0.89085-0.84396-0.56264-0.31258-1.2816-0.31258-1.7504 0-2.7507 1.3597-1.0002 1.3441-1.0002 3.7353v8.6115h-5.5952v-17.504h5.5952v2.5631q1.2659-1.5316 2.6882-2.2506 1.4222-0.73455 3.1414-0.73455 3.032 0 4.5949 1.8598 1.5785 1.8598 1.5785 5.4076z"/>
<path style="" d="m669.13 277.63v4.97h5.7671v4.001h-5.7671v7.4237q0 1.219 0.48449 1.6567 0.4845 0.42198 1.9224 0.42198h2.8757v4.001h-4.7981q-3.3133 0-4.7043-1.3753-1.3753-1.391-1.3753-4.7043v-7.4237h-2.782v-4.001h2.782v-4.97h5.5952z"/>
<path style="" d="m686.18 292.23q-1.7504 0-2.6413 0.5939-0.87522 0.5939-0.87522 1.7504 0 1.0628 0.7033 1.6723 0.71893 0.5939 1.9849 0.5939 1.5785 0 2.6569-1.1253 1.0784-1.1409 1.0784-2.8445v-0.64079h-2.907zm8.549-2.1099v9.9869h-5.642v-2.5944q-1.1253 1.5942-2.5319 2.3287-1.4066 0.71893-3.4227 0.71893-2.7194 0-4.423-1.5785-1.6879-1.5942-1.6879-4.126 0-3.0789 2.1099-4.5168 2.1255-1.4378 6.6579-1.4378h3.2977v-0.43761q0-1.3285-1.0471-1.938-1.0471-0.62515-3.2664-0.62515-1.7973 0-3.3446 0.35946-1.5473 0.35947-2.8757 1.0784v-4.2667q1.7973-0.43761 3.6103-0.65641 1.813-0.23443 3.6259-0.23443 4.7356 0 6.8298 1.8755 2.1099 1.8598 2.1099 6.064z"/>
<path style="" d="m706.01 277.63v4.97h5.7671v4.001h-5.7671v7.4237q0 1.219 0.48449 1.6567 0.4845 0.42198 1.9224 0.42198h2.8757v4.001h-4.7981q-3.3133 0-4.7043-1.3753-1.3753-1.391-1.3753-4.7043v-7.4237h-2.782v-4.001h2.782v-4.97h5.5952z"/>
<path style="" d="m715.22 282.6h5.5952v17.504h-5.5952v-17.504zm0-6.8142h5.5952v4.5636h-5.5952v-4.5636z"/>
<path style="" d="m734.55 286.18q-1.8598 0-2.8445 1.3441-0.969 1.3285-0.969 3.8447 0 2.5163 0.969 3.8603 0.98462 1.3285 2.8445 1.3285 1.8286 0 2.7976-1.3285 0.96899-1.3441 0.96899-3.8603t-0.96899-3.8447q-0.96899-1.3441-2.7976-1.3441zm0-4.001q4.5168 0 7.0486 2.4381 2.5475 2.4381 2.5475 6.7517t-2.5475 6.7517q-2.5319 2.4381-7.0486 2.4381-4.5324 0-7.0955-2.4381-2.5475-2.4381-2.5475-6.7517t2.5475-6.7517q2.5632-2.4381 7.0955-2.4381z"/>
<path style="" d="m765.82 289.44v10.659h-5.6264v-1.7348-6.4235q0-2.2662-0.10941-3.1258-0.0938-0.85959-0.34383-1.2659-0.32821-0.54701-0.89085-0.84396-0.56264-0.31258-1.2816-0.31258-1.7504 0-2.7507 1.3597-1.0002 1.3441-1.0002 3.7353v8.6115h-5.5952v-17.504h5.5952v2.5631q1.2659-1.5316 2.6882-2.2506 1.4222-0.73455 3.1414-0.73455 3.032 0 4.5949 1.8598 1.5785 1.8598 1.5785 5.4076z"/>
</g>
<rect height="79.748" width="240.81" stroke="#000" stroke-linecap="round" y="444.11" x="499.51" stroke-width="1.4681" fill="#fff45a"/>
<g transform="scale(.86766 1.1525)">
<path style="" d="m603.68 407.56h6.5618l6.7144 18.685 6.6974-18.685h6.5618l-9.3764 25.315h-7.7826l-9.3764-25.315z"/>
<path style="" d="m650.34 423.33v1.7295h-14.192q0.22043 2.1364 1.543 3.2046 1.3225 1.0682 3.6963 1.0682 1.916 0 3.9167-0.55954 2.0177-0.57649 4.1372-1.7295v4.6797q-2.1534 0.81387-4.3067 1.2208-2.1534 0.42389-4.3067 0.42389-5.1545 0-8.02-2.6112-2.8485-2.6281-2.8485-7.3587 0-4.6458 2.7977-7.3078 2.8146-2.662 7.7317-2.662 4.4763 0 7.1552 2.6959 2.6959 2.6959 2.6959 7.2061zm-6.2396-2.0177q0-1.7295-1.0173-2.7807-1.0004-1.0682-2.6281-1.0682-1.7634 0-2.8655 1.0004-1.1021 0.98342-1.3734 2.8485h7.8843z"/>
<path style="" d="m669.1 419.06q-0.79691-0.37302-1.5938-0.54257-0.77996-0.18651-1.5769-0.18651-2.3399 0-3.6115 1.509-1.2547 1.4921-1.2547 4.2898v8.7491h-6.0701v-18.99h6.0701v3.1198q1.1699-1.8651 2.679-2.7129 1.526-0.86473 3.6454-0.86473 0.3052 0 0.66126 0.0339 0.35607 0.017 1.0343 0.10173l0.017 5.4936z"/>
<path style="" d="m672.15 413.89h6.0701v18.99h-6.0701v-18.99zm0-7.3926h6.0701v4.951h-6.0701v-4.951z"/>
<path style="" d="m697.87 406.5h6.121v4.951h-6.121v-4.951zm-1.2547 0v3.9846h-3.3572q-1.2717 0-1.7634 0.47475-0.49171 0.4578-0.49171 1.6108v1.3225h12.988v18.99h-6.121v-14.65h-6.867v14.65h-6.121v-14.65h-2.9842v-4.3406h2.9842v-1.3225q0-3.1029 1.7295-4.578 1.7295-1.4921 5.358-1.4921h4.6458z"/>
<path style="" d="m725.2 414.48v4.951q-1.2378-0.84778-2.4925-1.2547-1.2378-0.40694-2.5772-0.40694-2.5433 0-3.9676 1.4921-1.4073 1.4751-1.4073 4.1372 0 2.662 1.4073 4.1541 1.4243 1.4751 3.9676 1.4751 1.4243 0 2.6959-0.42389 1.2886-0.42389 2.3738-1.2547v4.968q-1.4243 0.52562-2.8994 0.77995-1.4582 0.27129-2.9333 0.27129-5.1375 0-8.0369-2.6281-2.8994-2.6451-2.8994-7.3418t2.8994-7.3248q2.8994-2.6451 8.0369-2.6451 1.4921 0 2.9333 0.27129 1.4582 0.25433 2.8994 0.77995z"/>
<path style="" d="m738.99 424.33q-1.899 0-2.8655 0.64431-0.94951 0.64431-0.94951 1.899 0 1.153 0.763 1.8142 0.77996 0.64431 2.1534 0.64431 1.7125 0 2.8824-1.2208 1.1699-1.2378 1.1699-3.0859v-0.69517h-3.1537zm9.2747-2.289v10.835h-6.121v-2.8146q-1.2208 1.7295-2.7468 2.5264-1.526 0.77995-3.7133 0.77995-2.9503 0-4.7984-1.7125-1.8312-1.7295-1.8312-4.4763 0-3.3402 2.289-4.9002 2.306-1.5599 7.2231-1.5599h3.5776v-0.47476q0-1.4412-1.136-2.1025-1.136-0.67822-3.5437-0.67822-1.9499 0-3.6285 0.38998t-3.1198 1.1699v-4.6289q1.9499-0.47475 3.9167-0.71213 1.9668-0.25433 3.9337-0.25433 5.1375 0 7.4096 2.0347 2.289 2.0177 2.289 6.5788z"/>
<path style="" d="m760.5 408.5v5.3919h6.2566v4.3406h-6.2566v8.0539q0 1.3225 0.52563 1.7973 0.52562 0.4578 2.0855 0.4578h3.1198v4.3406h-5.2054q-3.5946 0-5.1036-1.4921-1.4921-1.509-1.4921-5.1036v-8.0539h-3.0181v-4.3406h3.0181v-5.3919h6.0701z"/>
<path style="" d="m770.49 413.89h6.0701v18.99h-6.0701v-18.99zm0-7.3926h6.0701v4.951h-6.0701v-4.951z"/>
<path style="" d="m791.47 417.77q-2.0177 0-3.0859 1.4582-1.0512 1.4412-1.0512 4.1711 0 2.7298 1.0512 4.188 1.0682 1.4412 3.0859 1.4412 1.9838 0 3.035-1.4412 1.0512-1.4582 1.0512-4.188t-1.0512-4.1711q-1.0512-1.4582-3.035-1.4582zm0-4.3406q4.9002 0 7.647 2.6451 2.7638 2.6451 2.7638 7.3248t-2.7638 7.3248q-2.7468 2.6451-7.647 2.6451-4.9171 0-7.6978-2.6451-2.7638-2.6451-2.7638-7.3248t2.7638-7.3248q2.7807-2.6451 7.6978-2.6451z"/>
<path style="" d="m825.39 421.32v11.564h-6.104v-1.8821-6.9687q0-2.4586-0.11869-3.3911-0.10174-0.93255-0.37302-1.3734-0.35607-0.59344-0.96647-0.9156-0.6104-0.33911-1.3904-0.33911-1.899 0-2.9842 1.4751-1.0852 1.4582-1.0852 4.0524v9.3425h-6.0701v-18.99h6.0701v2.7807q1.3734-1.6616 2.9164-2.4416 1.543-0.79691 3.4081-0.79691 3.2894 0 4.9849 2.0177 1.7125 2.0177 1.7125 5.8666z"/>
</g>
<rect height="79.749" width="239.99" stroke="#000" stroke-linecap="round" y="564.45" x="619.92" stroke-width="1.4656" fill="#00fff7"/>
<g transform="scale(.84064 1.1896)">
<path style="" d="m760.43 496.03h8.0496l5.5854 13.126 5.6183-13.126h8.0332v24.527h-5.9797v-17.939l-5.6511 13.224h-4.0084l-5.6511-13.224v17.939h-5.9961v-24.527z"/>
<path style="" d="m801.86 512.28q-1.8399 0-2.7763 0.62425-0.91995 0.62425-0.91995 1.8399 0 1.1171 0.73925 1.7578 0.75567 0.62426 2.0863 0.62426 1.6592 0 2.7927-1.1828 1.1335-1.1992 1.1335-2.9898v-0.67353h-3.0556zm8.986-2.2178v10.497h-5.9304v-2.727q-1.1828 1.6756-2.6613 2.4477-1.4785 0.75568-3.5977 0.75568-2.8584 0-4.649-1.6592-1.7742-1.6756-1.7742-4.3369 0-3.2363 2.2177-4.7476 2.2342-1.5114 6.9982-1.5114h3.4662v-0.45998q0-1.3964-1.1007-2.037-1.1007-0.65711-3.4334-0.65711-1.8892 0-3.5155 0.37784-1.6264 0.37784-3.0227 1.1335v-4.4848q1.8892-0.45997 3.7948-0.68996 1.9056-0.24642 3.8112-0.24642 4.9776 0 7.1789 1.9713 2.2177 1.9549 2.2177 6.374z"/>
<path style="" d="m816.28 502.16h5.8811v18.399h-5.8811v-18.399zm0-7.1625h5.8811v4.7969h-5.8811v-4.7969z"/>
<path style="" d="m846.35 509.36v11.204h-5.914v-1.8235-6.7518q0-2.382-0.11499-3.2856-0.0986-0.90353-0.36141-1.3306-0.34499-0.57497-0.93639-0.8871-0.59139-0.32855-1.3471-0.32855-1.8399 0-2.8913 1.4292-1.0514 1.4128-1.0514 3.9262v9.0517h-5.8811v-18.399h5.8811v2.6942q1.3306-1.6099 2.8256-2.3656 1.4949-0.77211 3.302-0.77211 3.187 0 4.8298 1.9549 1.6592 1.9549 1.6592 5.684z"/>
<path style="" d="m858.26 496.94v5.224h6.0618v4.2055h-6.0618v7.8032q0 1.2814 0.50926 1.7413 0.50926 0.44355 2.0206 0.44355h3.0227v4.2055h-5.0433q-3.4827 0-4.9448-1.4456-1.4456-1.4621-1.4456-4.9448v-7.8032h-2.9241v-4.2055h2.9241v-5.224h5.8811z"/>
<path style="" d="m886.3 511.31v1.6756h-13.75q0.21356 2.0699 1.4949 3.1048 1.2814 1.035 3.5812 1.035 1.8563 0 3.7948-0.54212 1.9549-0.55854 4.0084-1.6756v4.5341q-2.0863 0.78853-4.1726 1.1828-2.0863 0.4107-4.1726 0.4107-4.994 0-7.7703-2.5299-2.7599-2.5463-2.7599-7.1296 0-4.5012 2.7106-7.0804 2.727-2.5792 7.491-2.5792 4.3369 0 6.9325 2.612 2.612 2.612 2.612 6.9818zm-6.0454-1.9549q0-1.6756-0.98566-2.6942-0.96924-1.035-2.5463-1.035-1.7085 0-2.7763 0.96924-1.0678 0.95281-1.3306 2.7599h7.6389z"/>
<path style="" d="m909.3 509.36v11.204h-5.914v-1.8235-6.7518q0-2.382-0.11499-3.2856-0.0986-0.90353-0.36141-1.3306-0.34499-0.57497-0.93639-0.8871-0.59139-0.32855-1.3471-0.32855-1.8399 0-2.8913 1.4292-1.0514 1.4128-1.0514 3.9262v9.0517h-5.8811v-18.399h5.8811v2.6942q1.3306-1.6099 2.8256-2.3656 1.4949-0.77211 3.302-0.77211 3.187 0 4.8298 1.9549 1.6592 1.9549 1.6592 5.684z"/>
<path style="" d="m923.03 512.28q-1.8399 0-2.7763 0.62425-0.91996 0.62425-0.91996 1.8399 0 1.1171 0.73925 1.7578 0.75568 0.62426 2.0863 0.62426 1.6592 0 2.7927-1.1828 1.1335-1.1992 1.1335-2.9898v-0.67353h-3.0556zm8.986-2.2178v10.497h-5.9304v-2.727q-1.1828 1.6756-2.6613 2.4477-1.4785 0.75568-3.5977 0.75568-2.8584 0-4.649-1.6592-1.7742-1.6756-1.7742-4.3369 0-3.2363 2.2178-4.7476 2.2342-1.5114 6.9982-1.5114h3.4662v-0.45998q0-1.3964-1.1006-2.037-1.1007-0.65711-3.4334-0.65711-1.8892 0-3.5155 0.37784t-3.0227 1.1335v-4.4848q1.8892-0.45997 3.7948-0.68996 1.9056-0.24642 3.8112-0.24642 4.9776 0 7.1789 1.9713 2.2178 1.9549 2.2178 6.374z"/>
<path style="" d="m955.95 509.36v11.204h-5.914v-1.8235-6.7518q0-2.382-0.11499-3.2856-0.0986-0.90353-0.36141-1.3306-0.34499-0.57497-0.93639-0.8871-0.59139-0.32855-1.3471-0.32855-1.8399 0-2.8913 1.4292-1.0514 1.4128-1.0514 3.9262v9.0517h-5.8811v-18.399h5.8811v2.6942q1.3306-1.6099 2.8256-2.3656 1.4949-0.77211 3.302-0.77211 3.187 0 4.8298 1.9549 1.6592 1.9549 1.6592 5.684z"/>
<path style="" d="m976.31 502.74v4.7969q-1.1992-0.82139-2.4149-1.2156-1.1992-0.39427-2.497-0.39427-2.4642 0-3.8441 1.4456-1.3635 1.4292-1.3635 4.0084t1.3635 4.0248q1.3799 1.4292 3.8441 1.4292 1.3799 0 2.612-0.4107 1.2485-0.41069 2.2999-1.2156v4.8133q-1.3799 0.50926-2.8091 0.75567-1.4128 0.26285-2.842 0.26285-4.9776 0-7.7868-2.5463-2.8091-2.5627-2.8091-7.1132t2.8091-7.0968q2.8092-2.5627 7.7868-2.5627 1.4456 0 2.842 0.26285 1.4128 0.24641 2.8091 0.75567z"/>
<path style="" d="m999.78 511.31v1.6756h-13.75q0.21356 2.0699 1.4949 3.1048 1.2814 1.035 3.5812 1.035 1.8563 0 3.7948-0.54212 1.9549-0.55854 4.0084-1.6756v4.5341q-2.0863 0.78853-4.1726 1.1828-2.0863 0.4107-4.1726 0.4107-4.994 0-7.7703-2.5299-2.7599-2.5463-2.7599-7.1296 0-4.5012 2.7106-7.0804 2.727-2.5792 7.491-2.5792 4.3369 0 6.9325 2.612 2.612 2.612 2.612 6.9818zm-6.0454-1.9549q0-1.6756-0.98566-2.6942-0.96924-1.035-2.5463-1.035-1.7085 0-2.7763 0.96924-1.0678 0.95281-1.3306 2.7599h7.6389z"/>
</g>
<use xlink:href="#b" transform="translate(120 120.1)" height="744.09448" width="1052.3622" y="0" x="0"/>
<use xlink:href="#b" transform="translate(240 240.16)" height="744.09448" width="1052.3622" y="0" x="0"/>
<use xlink:href="#b" transform="translate(360 360.23)" height="744.09448" width="1052.3622" y="0" x="0"/>
<path id="b" marker-end="url(#f)" d="m380 124.09c50 0 45 20 0 80" stroke="#e6e6e6" stroke-width="1.833" fill="none"/>
</g>
</svg>
